<?xml version="1.0" encoding="UTF-8"?>
<svg id="Layer_2" data-name="Layer 2" xmlns="http://www.w3.org/2000/svg" xmlns:xlink="http://www.w3.org/1999/xlink" viewBox="0 0 1366 512">
  <defs>
    <style>
      .cls-1 {
        fill: url(#linear-gradient);
      }

      .cls-1, .cls-2, .cls-3, .cls-4, .cls-5, .cls-6, .cls-7, .cls-8, .cls-9, .cls-10, .cls-11, .cls-12, .cls-13, .cls-14, .cls-15, .cls-16, .cls-17, .cls-18, .cls-19, .cls-20, .cls-21, .cls-22, .cls-23, .cls-24, .cls-25, .cls-26, .cls-27, .cls-28, .cls-29, .cls-30, .cls-31, .cls-32, .cls-33, .cls-34, .cls-35, .cls-36, .cls-37, .cls-38, .cls-39, .cls-40, .cls-41, .cls-42, .cls-43, .cls-44, .cls-45, .cls-46, .cls-47, .cls-48, .cls-49, .cls-50, .cls-51, .cls-52, .cls-53, .cls-54, .cls-55, .cls-56, .cls-57, .cls-58, .cls-59, .cls-60, .cls-61, .cls-62, .cls-63, .cls-64, .cls-65 {
        stroke-width: 0px;
      }

      .cls-2 {
        fill: #f2e6f4;
      }

      .cls-3 {
        fill: #5d4e4c;
      }

      .cls-4 {
        fill: #5f2b79;
      }

      .cls-5 {
        fill: #4e4c6c;
      }

      .cls-6 {
        fill: #7c3f96;
      }

      .cls-7 {
        fill: #26336a;
      }

      .cls-8 {
        fill: #482261;
      }

      .cls-9 {
        fill: #484a59;
      }

      .cls-10 {
        fill: #2c1f48;
      }

      .cls-11 {
        fill: #281d27;
      }

      .cls-12 {
        fill: #6288b8;
      }

      .cls-13 {
        fill: #645476;
      }

      .cls-14 {
        fill: #6d6e79;
      }

      .cls-15 {
        fill: #9b7ea5;
      }

      .cls-16 {
        fill: #9755ae;
      }

      .cls-17 {
        fill: #89a1d4;
      }

      .cls-18 {
        fill: #94919d;
      }

      .cls-19 {
        fill: #0d231e;
      }

      .cls-20 {
        fill: #111013;
      }

      .cls-21 {
        fill: #151b19;
      }

      .cls-22 {
        fill: #232632;
      }

      .cls-23 {
        fill: #20130d;
      }

      .cls-24 {
        fill: #206b97;
      }

      .cls-25 {
        fill: #cfb8dd;
      }

      .cls-26 {
        fill: #debcbf;
      }

      .cls-27 {
        fill: #c9b0b9;
      }

      .cls-28 {
        fill: #cb95d4;
      }

      .cls-29 {
        fill: #c6592d;
      }

      .cls-30 {
        fill: #c95ca3;
      }

      .cls-31 {
        fill: #c7c0e3;
      }

      .cls-32 {
        fill: #dd638d;
      }

      .cls-33 {
        fill: #bca6a3;
      }

      .cls-34 {
        fill: #aaa5c5;
      }

      .cls-35 {
        fill: #c09798;
      }

      .cls-36 {
        fill: #a76ac2;
      }

      .cls-37 {
        fill: #b1bcd0;
      }

      .cls-38 {
        fill: #cecbdd;
      }

      .cls-39 {
        fill: #cf7ab3;
      }

      .cls-40 {
        fill: #b8c2c7;
      }

      .cls-41 {
        fill: #b5368a;
      }

      .cls-42 {
        fill: #b8661e;
      }

      .cls-43 {
        fill: #bacbda;
      }

      .cls-44 {
        fill: #bb81cf;
      }

      .cls-45 {
        fill: #8d89a0;
      }

      .cls-46 {
        fill: #982d70;
      }

      .cls-47 {
        fill: #6c5f62;
      }

      .cls-48 {
        fill: #7e698f;
      }

      .cls-49 {
        fill: #98541e;
      }

      .cls-50 {
        fill: #a0a8bb;
      }

      .cls-51 {
        fill: #9fb0ba;
      }

      .cls-52 {
        fill: #93525e;
      }

      .cls-53 {
        fill: #6c3c17;
      }

      .cls-54 {
        fill: #818a97;
      }

      .cls-55 {
        fill: #64aaca;
      }

      .cls-56 {
        fill: #e3dcfd;
      }

      .cls-57 {
        fill: #e8e8eb;
      }

      .cls-58 {
        fill: #fae640;
      }

      .cls-59 {
        fill: #fcfc54;
      }

      .cls-60 {
        fill: #e5cee6;
      }

      .cls-61 {
        fill: #eaefff;
      }

      .cls-62 {
        fill: #ecc7b4;
      }

      .cls-63 {
        fill: #eaaaa6;
      }

      .cls-64 {
        fill: #68244b;
      }

      .cls-65 {
        fill: #6a3d7f;
      }
    </style>
    <linearGradient id="linear-gradient" x1="1345.34" y1="-277.26" x2="1326.36" y2="778.79" gradientTransform="translate(15.08 130.25) scale(.5)" gradientUnits="userSpaceOnUse">
      <stop offset=".13" stop-color="#695a7b"/>
      <stop offset=".87" stop-color="#363e51"/>
    </linearGradient>
  </defs>
  <g id="Layer_1-2" data-name="Layer 1">
    <g>
      <g id="Background">
        <rect class="cls-1" width="1366" height="512"/>
        <path class="cls-1" d="m1366,0v512H0V0h1366Z"/>
        <path class="cls-5" d="m306.82,131c2.5,1.69,1.03,2.89-2,3-2.5.09-29.35-12-28.68-15,1.21,0,1.04-.84,5.34.25,4.52,3.49,23.23,10.33,25.35,11.75Z"/>
        <path class="cls-2" d="m624.97,14.5c.99.06.53,2.11,6,2.25-7.99,5.2-13.54-.06-12.01-1,.18-.11,5.66-1.27,6-1.25Z"/>
        <path class="cls-38" d="m222.11,222c4.46,5.26,6.48,0,1.33,5.5-10.74-1.8-8.25-2.73-1.33-5.5Z"/>
        <path class="cls-2" d="m1334.65,32c10.08,6.2-9.89,5.5-6,1.75.33-.32,3.09.24,6-1.75Z"/>
        <path class="cls-40" d="m136.73,481c6.71,4.76,3.01,7.71-6,2.25l6-2.25Z"/>
        <path class="cls-43" d="m1173.24,402.5c1,.09,5.73,3.97,1.33,4.5-7.05.85-5.19-4.84-1.33-4.5Z"/>
        <path class="cls-38" d="m1303.97,67c3.59.22,2.79,4.06-2.67,3-.58-.11.24-3.15,2.67-3Z"/>
        <path class="cls-61" d="m252.79,153.5c3.06-.8,6.87,1.67,2.67,2-2.66.21-4.68-1.48-2.67-2Z"/>
        <path class="cls-43" d="m183.42,268c4.06-.12,3.84,1.9,1.33,2-1,.04-5-1.89-1.33-2Z"/>
        <path class="cls-31" d="m103.38,15.5c1.29.02,3.21,1.61,1.33,2-2.89.6-4.44-2.05-1.33-2Z"/>
        <path class="cls-38" d="m811.73,68.5c4.96-.36,3.53,1.28,1.33,1.5-2.74.28-4.2-1.29-1.33-1.5Z"/>
        <path class="cls-2" d="m1130.55,36c3.98-.01,1.63,2.26-.67,1.75-2.8-.63-.13-1.75.67-1.75Z"/>
        <path class="cls-37" d="m118.06,453.5c.78,0,3.48,1.12.67,1.75-2.88.64-3.28-1.75-.67-1.75Z"/>
        <path class="cls-48" d="m67.37,128.5c3.3-.18,3.82,1.38,1.33,1.5-1,.05-5.22-1.29-1.33-1.5Z"/>
        <path class="cls-50" d="m971.81,477c1.56.03,2.19,2.53-.67,1.75-2.84-.78.1-1.76.67-1.75Z"/>
        <path class="cls-50" d="m1273.29,387.5c2.59-.51,4.08,1.56,1.33,1.5-2.96-.06-2.6-1.25-1.33-1.5Z"/>
        <path class="cls-60" d="m1186.58,56.5c2.96.06,2.6,1.25,1.33,1.5-2.59.51-4.08-1.56-1.33-1.5Z"/>
        <path class="cls-31" d="m963.8,89.5c3.83-.02,1.5,1.64-.67,1.25-2.3-.41.07-1.25.67-1.25Z"/>
        <path class="cls-50" d="m1237.27,376.5c1.48.32,1.11,2.84-1.33,1.5-1.52-.83,1.11-1.55,1.33-1.5Z"/>
        <path class="cls-25" d="m1095.87,15.5c1.11-.25,3.42.68,3.33.75-1.01.83-6.31-.07-3.33-.75Z"/>
        <path class="cls-60" d="m278.14,57.5c.48,0,2.93.72.67,1.25-2.54.6-2.97-1.25-.67-1.25Z"/>
        <path class="cls-56" d="m231.45,201c.48,0,2.93.72.67,1.25-2.54.6-2.97-1.25-.67-1.25Z"/>
        <path class="cls-37" d="m586.29,465.5c1.63.27.81,2.93-1.33,1.5-.56-.38,1.1-1.54,1.33-1.5Z"/>
        <path class="cls-60" d="m1094.53,45c.15-.04,2.18.51,1.33,1-2.05,1.2-3.03-.55-1.33-1Z"/>
        <path class="cls-38" d="m299.48,240.5c1.99-.3,2.93.76,1.33,1-1.99.3-2.93-.76-1.33-1Z"/>
        <path class="cls-60" d="m414.2,85.5c.15-.04,2.18.51,1.33,1-2.05,1.2-3.03-.55-1.33-1Z"/>
        <path class="cls-25" d="m132.73,12.5c1.99-.3,2.93.76,1.33,1-1.99.3-2.93-.76-1.33-1Z"/>
        <path class="cls-31" d="m1237.27,194c.15-.04,2.18.51,1.33,1-2.05,1.2-3.03-.55-1.33-1Z"/>
        <path class="cls-34" d="m47.36,238c1.02,0,1.02,1.5,0,1.5s-1.02-1.5,0-1.5Z"/>
        <path class="cls-60" d="m877.09,92h1.33l.67.25v.5l-.67.25-.67-.25-.67-.25-.67-.25.67-.25Z"/>
      </g>
      <g>
        <g>
          <path class="cls-60" d="m580.21,104c-1.67,2.41-3.2,4.93-5,7.25l9,10.5-14.75-.75-6.25,12c-.79-1.42-7.81-8.26-9.5-11.75-1.61-1.09-1.55-.24-2-.25-2.15-.04-12.91,3.6-13.5,2.75l10-11.5-9-11c.6-.79,7.9.18,10.5.25-1.56,2.75,6.93,2.91,8.25,2.5,1.8-.57,3.64-6.73,5-6.5,5.64,10.86,8.73,3.57,17.25,6.5Z"/>
          <path class="cls-60" d="m580.21,104c-8.52-2.93-11.61,4.36-17.25-6.5-1.36-.23-3.2,5.93-5,6.5-1.32.41-9.81.25-8.25-2.5,2.38.06,4.43.96,5.5.25l6.25-13.75,7.5,13.5c17.55-2,15.94-4.28,11.25,2.5Z"/>
        </g>
        <g>
          <path class="cls-60" d="m860.96,80.5l9,11,13.75-2.75-8,10.5,8,10-16.25.25-6.5,13-6-12.5-13.75,2.25,7.5-10-8.5-10,.25-.75,14,2,6.5-13Z"/>
          <g>
            <path class="cls-60" d="m862.21,174.5c1.32-2.37,10.66-1.67,12.75-3,.84-.53,2.6-6.41,3.5-6.5.59-.06,3.4,4.42,4,4.5,1.2.16,2.59-1.95,2.75-2,27.02-8.4,4.67,5.3,5.5,9.75l8.5,8-13.75.25-5,11-5-9-15.25,2.25,7-9.5c.02-.6-4.2-4.92-5-5.75Z"/>
            <path class="cls-2" d="m885.21,167.5c-.16.05-1.55,2.16-2.75,2-.6-.08-3.41-4.56-4-4.5-.9.09-2.66,5.97-3.5,6.5-2.09,1.33-11.43.63-12.75,3-1.33-1.36-3-2.57-4.5-3.75l15.25-.75,4.5-11c3,2.65,5.16,8.67,7.75,8.5Z"/>
          </g>
        </g>
        <g>
          <path class="cls-60" d="m554.46,400.5l10.5,17c1.34-.44,15.68-6.78,15.75-5.25l-7,16,13,9.5c-23.83,2.93-17.18-2.44-21.25,21.25l-11.5-14-20,5.5,8.25-15.25-15-14.5,20.25-.75,7-19.5Z"/>
          <g>
            <path class="cls-25" d="m556.96,441.5c.6-.35,7.07,1.41,7.25,1.75.98,1.81.19,15.16-7.25-1.75Z"/>
            <path class="cls-17" d="m544.96,428c.2-.06,3.3,2.54,3.25,2.75-.06.22-3.83,2-4.25,1.75-.2-.12.49-4.34,1-4.5Z"/>
            <path class="cls-12" d="m563.46,425.5l.75.25c-2.91,5.53-8.37,3.4-.75-.25Z"/>
            <path class="cls-55" d="m563.96,436.5c.7.09,1.67-.14,2,0,2.04.9.77,6.71-2,0Z"/>
            <path class="cls-24" d="m556.46,418.5c1.6.06.46,4.72-.5,4-.79-.6.1-4.01.5-4Z"/>
          </g>
        </g>
        <g>
          <path class="cls-13" d="m682.71,89c-11.47,2.57-21.89,7.64-32,13.5,2.47-2.37.61-2.76,1.25-3.5,1.89-1.01,14.69-8.33,15.5-8,.39.16.06,1.72,1,2,.72.22,11.64-5.79,14.25-4Z"/>
          <g>
            <g>
              <path class="cls-2" d="m599.71,189c-.75,4.72-1.4,9.74-1.5,14.5-.19,8.81.68,17.74,1.5,26.5l-17-19c-.05-5.71-.36-11.58.5-17.25,1.3-2.49,13.55-4.61,16.5-4.75Z"/>
              <path class="cls-25" d="m599.71,230c.34,3.64,1.01,7.14,1.5,10.75-.35.44-1.18.22-2,.25-5.2-4.64-12.32-14.93-14.5-21.25-.42-1.21-.55-5.99-2-5.75-.02-1,0-2,0-3l17,19Z"/>
              <path class="cls-60" d="m599.21,241c-1.39.06-13.49-2.45-15-4.25-.44-7.56-1.34-15.19-1.5-22.75,1.45-.24,1.58,4.54,2,5.75,2.18,6.32,9.3,16.61,14.5,21.25Z"/>
            </g>
            <g>
              <path class="cls-2" d="m815.21,237c8.06,1.19,12.21-3.2,12.25-11-4.47,5.16-5.53,3.8-11.25,2.5.93-13.09.74-26.21-.5-39.25,15.3,2.03,15.56,2.21,16.5,16.5.4,6.01.96,30.11-4.25,32.75-2.23,1.13-9.98,1.69-13,3-1.33-.81.01-2.88.25-4.5Z"/>
              <path class="cls-25" d="m815.21,237c.42-2.87.79-5.59,1-8.5,5.72,1.3,6.78,2.66,11.25-2.5-.04,7.8-4.19,12.19-12.25,11Z"/>
            </g>
            <path class="cls-9" d="m600.71,189c-.59,5.5-.92,8.85-1,14.5h-1.5c.1-4.76.75-9.78,1.5-14.5.05,0-.21-.87,1,0Z"/>
          </g>
          <path class="cls-22" d="m645.21,168.5c-5.93,9.67-16.25,33.83-18,44.75-2.21,13.81-1.49,23.32,3,36.25.11.3.15,1.01,1,3-3.76-4.63-7.69-21.51-8.5-27.75-4.37-33.65.97-46.08,27.25-66.25,1.7.91-6.2,8.49-4.75,10Z"/>
          <path class="cls-22" d="m793.21,187.5c2.78,11.16,2.91,22.65,1.5,34-2.28-.71-.57,2.14-2.25,2-.37-.03-2.7-4-2.75-4.25-.66-3.5,1.05-6.65,1-7-.39-2.77-4.86-14.39-6.5-17.5-4.29-8.14-16.77-21.25-19-25.75-.09-.18-.09-1.64-1.5-2.75-.2-1.32,1.27-2.23,1-3.75,4.78.38,15.37,10.09,19,14.25,3.12,3.58,5.54,11.13,9.5,10.75Z"/>
          <path class="cls-22" d="m793.21,187.5c-3.96.38-6.38-7.17-9.5-10.75-3.63-4.16-14.22-13.87-19-14.25-.12-.69-1.96-4.28-2.5-5.75.65-2.8,16.88,8.1,18.75,9.75,6.44,5.67,10.19,12.72,12.25,21Z"/>
          <g>
            <path class="cls-2" d="m800.71,261.5l-3.5,1.75c2.29-3.76,5.28-7.41,7-11.5,6.21-14.79-2.15,1.99-16,14.25.2-1.45-.11-2.38-1.5-3,29.27-26.37,27.12-65.13,12-98.5-3.77-8.33-8-15.88-13-23.5-20.23-30.83-47.03-46.84-84.75-44.5-32.28,2-58.79,21.77-74.75,49-5.22,8.92-9.72,18.18-13,28-8.19,24.48-9.85,53.32,4.5,76l-1-.25c-.72,1.99,2.34,5.76,0,6.25-3.69-4.98-8.28-14.02-7.5-10.25.58,2.79,7.33,13.14,9.5,16.25,3.67,5.26,7.8,9.11,11,14.5-1.4-1.05-2.76-1.8-3-2-22.98-18.78-27.43-42.08-27-70.5.08-5.65.41-9,1-14.5,2.59-24.14,9.8-47.17,26-65.75,10.3-11.81,20.21-17.12,24-20.75,10.11-5.86,20.53-10.93,32-13.5,48.51-10.87,99.84,11.63,120.5,57.75,14.86,33.16,20.04,84.12-2.5,114.75Z"/>
            <path class="cls-40" d="m800.71,261.5c-3.38,4.59-7.15,8.81-11.5,12.5-15.51,13.17-41.96,22.59-62,25,1.27-3.79,4.02-.91,5.75-1.5.28-3.18,8.37-2.46,5-5-1.12-.85-3.46,1.09-3.25-1,18.41-3.64,39.39-13.02,53.5-25.5,13.85-12.26,22.21-29.04,16-14.25-1.72,4.09-4.71,7.74-7,11.5l3.5-1.75Z"/>
            <path class="cls-37" d="m797.21,164.5c.36.11,1.6.62,1.5,0,15.12,33.37,17.27,72.13-12,98.5-.38.35-1.1.66-1.5,1-2.73-1.21-4.27-.93-3-4,19.34-15.53,23.9-42.29,21-65.75-6.06-49.04-63.51-62.01-104.75-59.25-27.24,1.82-67.9,17.55-80.75,43.5-2.6.37-2.65-3.17-2-5,.76-2.16,11.28-13.79,13.75-16,25.27-22.64,70.67-31.68,103.5-26.5,44.91,7.08,60.57,32.32,64.25,33.5Z"/>
            <path class="cls-57" d="m617.71,249.5c3.14,4.96,7.79,9.9,12,14,34.85,33.92,114.49,35.79,155.5.5.4-.34,1.12-.65,1.5-1,1.39.62,1.7,1.55,1.5,3-14.11,12.48-35.09,21.86-53.5,25.5-33.41,6.61-72.52.92-100.75-19-4.39-3.1-7.97-7.3-12.25-10.5-1.31-2.4-3.36-4.29-5-6.5,2.34-.49-.72-4.26,0-6.25l1,.25Z"/>
            <path class="cls-40" d="m621.71,262c4.28,3.2,7.86,7.4,12.25,10.5,28.23,19.92,67.34,25.61,100.75,19-.21,2.09,2.13.15,3.25,1,3.37,2.54-4.72,1.82-5,5-1.73.59-4.48-2.29-5.75,1.5-33.85,4.07-69.76-2.21-97.5-23-3.2-5.39-7.33-9.24-11-14.5.87.01.25-1.46.75-1.5.15-.01,1.65,1.55,2.25,2Z"/>
            <path class="cls-37" d="m615.71,173.5c-.65,1.83-.6,5.37,2,5-11.15,22.52-6.13,65.06,14.5,80-1.48,1.6-3.68,2.33-2.5,5-4.21-4.1-8.86-9.04-12-14-14.35-22.68-12.69-51.52-4.5-76,.83-.19,1.19-1.27,1.5-2l1,2Z"/>
            <path class="cls-54" d="m785.71,141h-1c-14.74-21.31-34.17-37.43-60.25-42-41.35-7.24-75.78,11.45-97.25,46.5h-1c15.96-27.23,42.47-47,74.75-49,37.72-2.34,64.52,13.67,84.75,44.5Z"/>
            <path class="cls-18" d="m616.71,255.5c1.64,2.21,3.69,4.1,5,6.5-.6-.45-2.1-2.01-2.25-2-.5.04.12,1.51-.75,1.5-2.17-3.11-8.92-13.46-9.5-16.25-.78-3.77,3.81,5.27,7.5,10.25Z"/>
            <path class="cls-14" d="m785.71,141c5,7.62,9.23,15.17,13,23.5.1.62-1.14.11-1.5,0-.84-3.55-3.44-7.97-5.5-11-.08-.12.09-.49-1.5-2.5-.91-2.72-3.86-7.63-5.5-10h1Z"/>
            <path class="cls-14" d="m627.21,145.5c-2.12,3.46-3.65,7.41-5.5,11-.98,1.9-2.06,3.49-3,5.5-1.45,3.11-2.66,6.34-4,9.5-.31.73-.67,1.81-1.5,2,3.28-9.82,7.78-19.08,13-28h1Z"/>
            <path class="cls-61" d="m791.71,153.5c2.06,3.03,4.66,7.45,5.5,11-3.68-1.18-19.34-26.42-64.25-33.5-32.83-5.18-78.23,3.86-103.5,26.5-2.47,2.21-12.99,13.84-13.75,16l-1-2c1.34-3.16,2.55-6.39,4-9.5,25.93-31.59,73.03-43.21,112.25-37.5,5.23.76,19.35,4.61,24.5,6.5,13.52,4.98,25.64,12.79,36.25,22.5Z"/>
            <path class="cls-40" d="m633.71,259c12.26,11.01,28.35,17.74,44.5,20.5-.95,2.57,16.21,4.72,21.25,5,6.67.37,34.88-.09,37.25-4.5,10.05-1.61,26.73-6.91,34.5-13.5,3.93-1.59,7.7-3.85,11-6.5-1.27,3.07.27,2.79,3,4-41.01,35.29-120.65,33.42-155.5-.5-1.18-2.67,1.02-3.4,2.5-5,.06.05.75-.07,1.5.5Z"/>
            <path class="cls-2" d="m784.71,141c1.64,2.37,4.59,7.28,5.5,10-12.91-16.34-46.2-27.01-66.25-29-36.72-3.65-76.05,7.91-102.25,34.5,1.85-3.59,3.38-7.54,5.5-11,21.47-35.05,55.9-53.74,97.25-46.5,26.08,4.57,45.51,20.69,60.25,42Z"/>
            <path class="cls-54" d="m790.21,151c1.59,2.01,1.42,2.38,1.5,2.5-10.61-9.71-22.73-17.52-36.25-22.5-5.15-1.89-19.27-5.74-24.5-6.5-39.22-5.71-86.32,5.91-112.25,37.5.94-2.01,2.02-3.6,3-5.5,26.2-26.59,65.53-38.15,102.25-34.5,20.05,1.99,53.34,12.66,66.25,29Z"/>
            <path class="cls-57" d="m736.71,280c-2.37,4.41-30.58,4.87-37.25,4.5-5.04-.28-22.2-2.43-21.25-5,15.18,2.59,43.35,2.93,58.5.5Z"/>
          </g>
          <g>
            <path class="cls-36" d="m785.21,350c1.02.49,1.48,1.55,2.5,2,.02.05.11-.35.5,1-4.95,1.21,2.83,6.13-8.25.5-2.02-.25-1.66.51-1.75.5-13.59-1.56-25.49,2.44-36.75,10-1.26-1.06.72-26.31-.75-33-1.8-8.16-11.48-11.82-19-10-4.86-.39-16.78-.16-22.5,0-40.33-4.86-28.86,13.35-31.5,42.5-10.04-5.65-26.09-11.49-37.5-8.5.17-2.17-5.66-.22-6.5-1.25-.61-.75,1.46-4.5,1.5-4.75,26.4-6.22,26.2-20.29,33.5-43,29.04,10.96,65.52,11.15,94.75,1,4.01,11.24,2.8,35.38,16,40.5.77.3,16.36,3.95,15.75,2.5Z"/>
            <g>
              <path class="cls-10" d="m792.21,376c1.12,2.93-.05,1.11,0,1.5-17.54-15.87-57.7-1.97-64.25,21.5-3.45-29.45,56.35-43.64,64.25-23Z"/>
              <path class="cls-4" d="m778.21,354c4.58,1.8,10.67,3.45,12,9,.3,1.41,0,.95,0,1-22.02-19.24-57.28,2.65-66.75,26.5-.27-11.13,12.26-21.22,14.75-25,.05-.07.99-.45,1.5-.75-.82-10.41,1.92-21.4,0-31.75l1-2c1.47,6.69-.51,31.94.75,33,11.26-7.56,23.16-11.56,36.75-10Z"/>
            </g>
            <path class="cls-60" d="m625.71,343.5c-.12.57-.02,2.78-.5,5.5-.04.25-2.11,4-1.5,4.75.84,1.03,6.67-.92,6.5,1.25-2.7.71-7.77,3.02-9,5.5.02-.11-.86-.47-.5-2.25.7-3.52,4-16.26,5-14.75Z"/>
            <path class="cls-60" d="m788.21,353c.7,2.45,2.05,6.24,2.5,8.25.41,1.82-.52,1.66-.5,1.75-1.33-5.55-7.42-7.2-12-9,.09.01-.27-.75,1.75-.5,11.08,5.63,3.3.71,8.25-.5Z"/>
            <path class="cls-6" d="m699.21,321c-8.76.24-21.55-1.79-27,6.5-4.84,7.36-1.79,27.86-2,37.5-.78-.49-1.7-1.05-2.5-1.5,2.64-29.15-8.83-47.36,31.5-42.5Z"/>
            <path class="cls-6" d="m740.71,331l-1,2c-.36-1.94-.57-2.31-1.5-4-3.55-6.47-9.73-7.46-16.5-8,7.52-1.82,17.2,1.84,19,10Z"/>
            <g>
              <path class="cls-2" d="m639.21,296c4.2,1.46,9.2,5.24,14,7.5-.14,2.14-.49,4.41-1,6.5-2.35,5.89-7.37,13.27-12.5,17-11.67,8.48-4.26-.31-5.25-9-.55,6.92-3.71,11.76-4.75,14.5-4.46,3.13-8.5,7.3-13.25,10-13.33,7.59-7.34,2.67-8.25-5.75-1.24-11.49-13.13-26.93-25-29.5-.28-.89,11.44-11.84,13-13.25,11,7.43,30.39,28.41,25.75,42,11.84-9.26,11.85-26.83,17.25-40Z"/>
              <path class="cls-4" d="m608.21,284.5c-1.45,1.96.91,1.58,1.5,2,11.72,8.39,18.11,14.76,22.75,29l6.25-19.5h.5c-5.4,13.17-5.41,30.74-17.25,40,4.64-13.59-14.75-34.57-25.75-42,1.29-1.17,1.95-2.23,3.5-3.5-4.62,3.55,1.79,3.72,8.75,10,8.11,7.31,14.08,16.62,18.5,26.5.87-3.57,3.46-6.26,3.25-8.5-.81-8.62-15.8-26.72-23.5-32-.27-1.66,1.48-3.03,1.5-2Z"/>
              <path class="cls-44" d="m630.21,318.5c.21,2.24-2.38,4.93-3.25,8.5-4.42-9.88-10.39-19.19-18.5-26.5-6.96-6.28-13.37-6.45-8.75-10,.55-.45,1.44-.56,2-1,12.56,6.35,21.7,16.84,28.5,29Z"/>
              <path class="cls-41" d="m602.21,324.5c.16.33.71,3.25,1.5,2,6.02,10.79,3.21,26.71-3,21,1.35-5.26.03-13-2-18,2.68-1.65-3.14-9.62-6.75-12-1.45-.81-4.16-1.37-5.25-2-.11-.06-.6.04-1,0-.5-2.31-8.38-3.79-4-6,8.26,2.7,15.55,7.76,20.5,15Z"/>
              <path class="cls-44" d="m641.21,332.5c-3.14,4.61-5.05,8.54-9.5,12.5-4.43,1.55-5.34,3.02-5.5-3.5-.07-2.7,2.07-4.89,2.5-6,3.24-2.67,7.21-4.42,10.5-7l2,4Z"/>
              <path class="cls-4" d="m658.71,306c-7.3,22.71-7.1,36.78-33.5,43,.48-2.72.38-4.93.5-5.5.2-.93-1.17-1.4.5-2,.16,6.52,1.07,5.05,5.5,3.5,17.78-6.21,21.38-23.95,24.5-40.5.34.15.68-.53.75-.5.12.05,1.63,1.95,1.75,2Z"/>
              <path class="cls-2" d="m606.71,286.5c7.7,5.28,22.69,23.38,23.5,32-6.8-12.16-15.94-22.65-28.5-29,1.45-1.13,2.99-2.99,5-3Z"/>
              <path class="cls-2" d="m624.21,280l-14.5,6.5c-.59-.42-2.95-.04-1.5-2,4.49-2.85,9.03-5.63,13.5-8.5.73,1.37,1.54,2.79,2.5,4Z"/>
              <path class="cls-65" d="m639.71,327c.92-.13-.34,1.37-.5,1.5-3.29,2.58-7.26,4.33-10.5,7,.33-.86.65-2.09,1-3,1.04-2.74,4.2-7.58,4.75-14.5.99,8.69-6.42,17.48,5.25,9Z"/>
              <path class="cls-39" d="m602.21,324.5c-4.95-7.24-12.24-12.3-20.5-15,4.86-2.44,17.44,8.65,20.5,15Z"/>
              <path class="cls-39" d="m603.71,326.5c-.79,1.25-1.34-1.67-1.5-2,.07.1.34-.08,1.5,2Z"/>
              <path class="cls-44" d="m638.71,296l-6.25,19.5c-4.64-14.24-11.03-20.61-22.75-29l14.5-6.5c4.27,5.4,9.18,10.42,14.5,14.75v1.25Z"/>
              <path class="cls-2" d="m656.21,304.5c-3.12,16.55-6.72,34.29-24.5,40.5,4.45-3.96,6.36-7.89,9.5-12.5,2.47-3.63,5.22-7,7.5-10.75.7-4.09,2.51-7.72,3.5-11.75.51-2.09.86-4.36,1-6.5,1.37.65,2.61.83,3,1Z"/>
              <path class="cls-25" d="m641.21,332.5l-2-4c.16-.13,1.42-1.63.5-1.5,5.13-3.73,10.15-11.11,12.5-17-.99,4.03-2.8,7.66-3.5,11.75-2.28,3.75-5.03,7.12-7.5,10.75Z"/>
            </g>
            <g>
              <path class="cls-6" d="m626.71,274c.24.2,1.6.95,3,2,27.74,20.79,63.65,27.07,97.5,23,20.04-2.41,46.49-11.83,62-25,2.29,1.12,4.37,3.11,5,3.5-.68,1.31-1.94,2.06-3,3-3.73,3.31-7.11,6.85-10.5,10.5-7.01,7.54-8.88,4.52-5.5,16,.54,1.85.74,3.8,1.75,5.5,4.43-13.19,15.14-22.81,27.25-29,2.61,1.94,1.89,1.91,2,2-8.56,3.84-15.71,11.21-20,19.5-3.33,6.43-6.88,15.86-1.5,22-.82,1.6-.35.3-3.5.5-2.1-3.71-3.02-6.61-4.5-10.5-2.23-5.9-3.6-12.08-5.75-18l-5.75,3.25c3.53,4.15,6.36,8.81,9.5,13.25-1.56-1.63-10.9-12.37-11.75-12.5-.43-.07-8.47,3.21-6.75,4-.15.53-.51.55-.5,1.5.03,2.3,5.41,26.37,6.5,28.75.94,2.04,4.56,6.47,6.5,7.75,3.82,2.52,6.89,2.31,11,3.5,1.67.48,3.39.82,5,1.5.14.06.37-.06.5,0,.61,1.45-14.98-2.2-15.75-2.5-13.2-5.12-11.99-29.26-16-40.5-29.23,10.15-65.71,9.96-94.75-1-.12-.05-1.63-1.95-1.75-2-.07-.03-.41.65-.75.5-.39-.17-1.63-.35-3-1-4.8-2.26-9.8-6.04-14-7.5h-.5v-1.25c-5.32-4.33-10.23-9.35-14.5-14.75-.96-1.21-1.77-2.63-2.5-4,.25-.16,1.76-3.38,5-2Z"/>
              <path class="cls-36" d="m639.21,289.5l2.5-2c21.96,11.49,48.58,18.49,73.25,17,22.16-1.34,46.14-10.1,65.25-20.25-34.87,36.27-102.27,34.16-141,5.25Z"/>
              <path class="cls-60" d="m776.71,317c-1.68.23-1.44-.45-1.5-.5,1.19-.26-.43-.9-.5-1-3.14-4.44-5.97-9.1-9.5-13.25l5.75-3.25c2.15,5.92,3.52,12.1,5.75,18Z"/>
              <path class="cls-16" d="m641.71,287.5l-2.5,2c-16.82-12.55-13.26-14.49,2.5-2Z"/>
              <path class="cls-6" d="m775.21,316.5c-.79-.63-.43-.93-.5-1,.07.1,1.69.74.5,1Z"/>
            </g>
            <g>
              <path class="cls-36" d="m586.71,315.5c4.75,4.06,9.57,8.03,12,14,2.03,5,3.35,12.74,2,18-1-.92-.71-.64-5.71,1.36-2.63,1.05-7,3-15,4-4.4.55-13,0-15-5-1.34-3.35-1-9,2.71-12.11,4.59-3.84,4.15-4.21,6.29-5.89,4.84-3.79-7.2-.8-6-6,1.23-5.34,8-7,17.71-8.36.4-.06.89-.06,1,0Z"/>
              <path class="cls-46" d="m598.71,329.5c-2.43-5.97-7.25-9.94-12-14,1.09.63,3.8,1.19,5.25,2,3.61,2.38,9.43,10.35,6.75,12Z"/>
            </g>
            <g>
              <path class="cls-2" d="m830.21,310c-17.18-1.46-35.17,22.95-25.5,38-10.43-3.1-21.56-12.03-29.5-19.5-7-6.59-12.8-14.21-19-21.5-1.72-.79,6.32-4.07,6.75-4,.85.13,10.19,10.87,11.75,12.5.07.07-.29.37.5,1,.06.05-.18.73,1.5.5,1.48,3.89,2.4,6.79,4.5,10.5,7.94,14.02,5.21,4.07,6.5-1.25,2.45-10.14,12.39-21.53,21-27.25,2.35-1.56,5.61-3.72,8.25-4.5,1.07.22,12.19,13.64,13.25,15.5Z"/>
              <path class="cls-41" d="m830.21,310c.41.72.91,1.2,1.5,1.75-2.36,1.45-4.65,2.75-7,4.25-24.58,15.7-14.9,28.37-16,32.75-.09.37-.66.25-1,.25-1.88-.25-2.24-.77-3-1-9.67-15.05,8.32-39.46,25.5-38Z"/>
              <path class="cls-44" d="m803.71,283c.51.37.47.48.5.5-12.11,6.19-22.82,15.81-27.25,29-1.01-1.7-1.21-3.65-1.75-5.5.79.21,3.3-6.22,4-8.25,1.24-3.61,2.8-9,1.5-7.75,3.39-3.65,6.77-7.19,10.5-10.5,2.42,1.49,9.03,2.39,12.5,2.5Z"/>
              <path class="cls-36" d="m808.71,296.5c-6.72,4.14-12.91,8.34-17.5,15-1.17-.56-2.19-1.24-3.5-1.5l10.5-14.5c3.96-3,7.25-5.26,12-7,1.47,1.43,3.16,2.68,4.5,4.25-1.76,1.62-3.99,2.51-6,3.75Z"/>
              <path class="cls-4" d="m808.71,296.5v2.5c-8.61,5.72-18.55,17.11-21,27.25-1.29,5.32,1.44,15.27-6.5,1.25,3.15-.2,2.68,1.1,3.5-.5.87-1.7,1.09-7.64,6.5-15.5,4.59-6.66,10.78-10.86,17.5-15Z"/>
              <path class="cls-60" d="m806.21,285.5c1.29,1.03,2.8,1.83,4,3-4.75,1.74-8.04,4-12,7-3.82,2.89-7.85,6.01-10,10.5l-2-1c4.29-8.29,11.44-15.66,20-19.5Z"/>
              <path class="cls-2" d="m803.71,283c-3.47-.11-10.08-1.01-12.5-2.5,1.06-.94,2.32-1.69,3-3,3.07,1.9,6.56,3.35,9.5,5.5Z"/>
              <path class="cls-36" d="m788.21,306c-3.26,6.81-.82,3.94-.5,4,1.31.26,2.33.94,3.5,1.5-5.41,7.86-5.63,13.8-6.5,15.5-5.38-6.14-1.83-15.57,1.5-22l2,1Z"/>
              <path class="cls-28" d="m775.21,307c-3.38-11.48-1.51-8.46,5.5-16,1.3-1.25-.26,4.14-1.5,7.75-.7,2.03-3.21,8.46-4,8.25Z"/>
              <g>
                <path class="cls-60" d="m774.71,328.5c2.62,2.92,5.37,5.66,7.5,9-3.39-.45-6.84-1.79-10-3-.2-.08-2.12-1.67-3.75-2,.47,1.32.26,2.72.75,4-1.13,2.78-.63,5.47-.5,8.5-1.94-1.28-5.56-5.71-6.5-7.75-1.09-2.38-6.47-26.45-6.5-28.75,1.28-.68,5.42,6.23,8,9.25,4.32,5.04,10.44,10.12,11,10.75Z"/>
                <path class="cls-36" d="m782.21,337.5c2.24,3.51,2.1,3.88,3.5,7.5-.6.81-3.89.94-4,1.75-.09.65,3.44,1.76,3,3.25-1.61-.68-3.33-1.02-5-1.5-.44-2.07-2.59-2.81-4-4,1.68-6.02-1.88-5.83-3.5-10,3.16,1.21,6.61,2.55,10,3Z"/>
                <path class="cls-15" d="m775.21,328.5h-.5c-.56-.63-6.68-5.71-11-10.75-2.58-3.02-6.72-9.93-8-9.25-.01-.95.35-.97.5-1.5,6.2,7.29,12,14.91,19,21.5Z"/>
                <path class="cls-2" d="m787.71,352c-1.02-.45-1.48-1.51-2.5-2-.13-.06-.36.06-.5,0,.44-1.49-3.09-2.6-3-3.25.11-.81,3.4-.94,4-1.75,1.03,2.67,1.28,4.61,2,7Z"/>
                <path class="cls-25" d="m775.71,344.5c1.41,1.19,3.56,1.93,4,4-4.11-1.19-7.18-.98-11-3.5-.13-3.03-.63-5.72.5-8.5,1.3,3.37,3.9,5.81,6.5,8Z"/>
                <path class="cls-28" d="m772.21,334.5c1.62,4.17,5.18,3.98,3.5,10-2.6-2.19-5.2-4.63-6.5-8-.49-1.28-.28-2.68-.75-4,1.63.33,3.55,1.92,3.75,2Z"/>
              </g>
              <path class="cls-6" d="m787.71,310c-.32-.06-2.76,2.81.5-4,2.15-4.49,6.18-7.61,10-10.5l-10.5,14.5Z"/>
            </g>
            <g>
              <path class="cls-2" d="m790.21,364c.12.61,3.2,6.27,2,12-7.9-20.64-67.7-6.45-64.25,23,6.55-23.47,46.71-37.37,64.25-21.5.78,6.47-.34,16.66-2.5,22.75-1.55,4.36-1.17,1.81-1.5,1.75-6.88-26.28-53.43-14.13-51.25,11,7.25-23.5,43.38-27.02,50.25-10.5.3.72,1.03,1.65,1,2.25-5.15,14.88-24.31,42.17-42.25,29.25-18.25-13.14-14.77-46.96-39-48-28.63-1.23-23.65,31.9-36.75,46.25-11.42,12.52-30.91.58-40.5-15-8.42-13.69-10.94-26.5-10.5-42.25,12.53-11.11,41.7-.2,52.75,9,8.3,6.91,9.22,13.17,10,13.5,1.78.74,4.07-4.18-4.75-13.75-11-11.93-45.46-26.63-58-10.75.11-2.14-.26-4.58,0-6.75.23-1.95,1.47-3.55,1.5-3.75,20.45-14.93,57.81,4.57,66.75,26.5.04-7.2-7.62-17.06-13.25-21.5-.09-.67,2.25-.64,4-.5,11.44.93,37.38,1.2,48.75.5,1.53-.09,3.89-1.32,5.25-1.5,2.91-.38,3.51,1.57,6-.5-2.49,3.78-15.02,13.87-14.75,25,9.47-23.85,44.73-45.74,66.75-26.5Z"/>
              <g>
                <g>
                  <path class="cls-10" d="m788.21,402c-.43-.09-.56.58-1,.5-6.87-16.52-43-13-50.25,10.5-2.18-25.13,44.37-37.28,51.25-11Z"/>
                  <g>
                    <path class="cls-38" d="m782.21,414c-.6,1.28-.21,2.19-1.5.5.65-8.78-12.75-13.82-22.75-9-3.2,1.54-6.12,5.23-8.25,8-1.53,1.99-2.88,4.11-4.5,6-.03-3.9,2.48-9.05,5-12,9.52-11.13,32.79-11.69,32,6.5Z"/>
                    <path class="cls-45" d="m780.71,414.5c-.43,5.83-11.33,15.79-17.75,17.5-16.99,4.53-22.95-11.55-14.75-24l2-.5c-2.52,2.95-5.03,8.1-5,12,.15,17.39,25.7,12.27,33-.75,7.81-13.93-15.93-17.04-28.5-5.25,2.13-2.77,5.05-6.46,8.25-8,10-4.82,23.4.22,22.75,9Z"/>
                    <path class="cls-34" d="m782.21,414c.79-18.19-22.48-17.63-32-6.5l-2,.5c11.22-17.04,40.83-8.7,34,6Z"/>
                    <path class="cls-38" d="m745.21,419.5c1.62-1.89,2.97-4.01,4.5-6,12.57-11.79,36.31-8.68,28.5,5.25-7.3,13.02-32.85,18.14-33,.75Z"/>
                  </g>
                </g>
                <g>
                  <path class="cls-10" d="m619.21,375c.02-.66-.04-1.34,0-2,12.54-15.88,47-1.18,58,10.75,8.82,9.57,6.53,14.49,4.75,13.75-.78-.33-1.7-6.59-10-13.5-11.05-9.2-40.22-20.11-52.75-9Z"/>
                  <path class="cls-8" d="m667.71,363.5c.8.45,1.72,1.01,2.5,1.5,1.29.81,2.29,1.15,4,2.5,5.63,4.44,13.29,14.3,13.25,21.5-8.94-21.93-46.3-41.43-66.75-26.5.11-.73.37-1.27.5-2,1.23-2.48,6.3-4.79,9-5.5,11.41-2.99,27.46,2.85,37.5,8.5Z"/>
                  <path class="cls-10" d="m639.96,387c14.89-1.53,35.24,10.49,37.25,21.25,2.01,10.76-1.43,1.33-4-2-11.11-14.39-38.78-22.36-48.75-2.75-1.91-8.55,7.73-15.7,15.5-16.5Z"/>
                  <g>
                    <path class="cls-38" d="m667.21,417.5c.36,2.06.78,3.88.5,6-2.2.29-1.23-.77-1.5-1.5-2.28-6.09-5.19-11.34-10.75-15-11.08-7.3-22.18-2.93-23.75,5-.13.67.32,1.51-.5,1.5-1.52-18.89,29.18-19.44,36,4Z"/>
                    <path class="cls-34" d="m667.21,417.5c-6.82-23.44-37.52-22.89-36-4,.08.94,1.88,1.97,1,4-3.11-4.87-5.3-7.58-1.5-13.25,7.28-10.87,32.9-7.26,36.5,13.25Z"/>
                    <path class="cls-15" d="m633.21,412c-4.56,12.68,35.16,29.62,32.5,10h.5c.27.73-.7,1.79,1.5,1.5-2.04,15.7-24.94,10.56-35.5-6,.88-2.03-.92-3.06-1-4,.82.01.37-.83.5-1.5h1.5Z"/>
                    <path class="cls-45" d="m666.21,422h-.5c-.32-2.33-5.24-9.42-7.25-11-7.69-6.06-22.79-5.85-25.25,1h-1.5c1.57-7.93,12.67-12.3,23.75-5,5.56,3.66,8.47,8.91,10.75,15Z"/>
                    <path class="cls-38" d="m665.71,422c2.66,19.62-37.06,2.68-32.5-10,2.46-6.85,17.56-7.06,25.25-1,2.01,1.58,6.93,8.67,7.25,11Z"/>
                  </g>
                </g>
              </g>
            </g>
            <g>
              <path class="cls-25" d="m738.21,329c.93,1.69,1.14,2.06,1.5,4,1.92,10.35-.82,21.34,0,31.75-.51.3-1.45.68-1.5.75-2.49,2.07-3.09.12-6,.5,3.1-4.4,1-3.75,1-4,.53-46.22,5.35-31.58-52.75-34.5-2.09.65-4.74,2.47-5.25,4.75-.32,1.44-.29,28.05,0,29.5.04.19,1.68,2.77,2,3.25,1.06,1.58,1.88.71,1,2-1.75-.14-4.09-.17-4,.5-1.71-1.35-2.71-1.69-4-2.5.21-9.64-2.84-30.14,2-37.5,10.53-1.75,48.17-2.38,56.25-1.5,3.39.37,6.59,1.83,9.75,3Z"/>
              <path class="cls-57" d="m699.21,321c5.72-.16,17.64-.39,22.5,0,6.77.54,12.95,1.53,16.5,8-3.16-1.17-6.36-2.63-9.75-3-8.08-.88-45.72-.25-56.25,1.5,5.45-8.29,18.24-6.26,27-6.5Z"/>
              <g>
                <path class="cls-2" d="m733.21,362c-1.07,1.69-3.29,3.62-5.25,4-3.05.59-43.58.27-50.75-1-.32-.48-1.96-3.06-2-3.25-.29-1.45-.32-28.06,0-29.5.51-2.28,3.16-4.1,5.25-4.75,58.1,2.92,53.28-11.72,52.75,34.5Z"/>
                <g>
                  <path class="cls-48" d="m732.21,366c-1.36.18-3.72,1.41-5.25,1.5-11.37.7-37.31.43-48.75-.5.88-1.29.06-.42-1-2,7.17,1.27,47.7,1.59,50.75,1,1.96-.38,4.18-2.31,5.25-4,0,.25,2.1-.4-1,4Z"/>
                  <path class="cls-49" d="m690.71,340.5c.09,1.51.42,9.48-.75,10l-9.25-.75c.08-2.91-.11-5.84,0-8.75h3.5c.2,1.63-.27,7.87,0,8.25.43.6,8.24,2.95,5-8.25.08-.01-.23-.73,1.5-.5Z"/>
                  <path class="cls-29" d="m690.71,337.5h-10c.11-.89-.07-1.85,0-2.75,4.37-1.56,9.18-2.47,10,2.75Z"/>
                  <path class="cls-53" d="m690.71,337.5c.14.89-.06,2.03,0,3-1.73-.23-1.42.49-1.5.5-1.42.24-3.45-.17-5,0h-3.5c.04-1.14-.14-2.39,0-3.5h10Z"/>
                  <g>
                    <path class="cls-7" d="m696.46,335h28.5c.2,29.45,6.34,23.59-28,23l-.5-23Z"/>
                    <path class="cls-58" d="m702.96,344c6.22-2.41,5.77,7.3,0,5-1.75-.7-1.74-4.32,0-5Z"/>
                    <path class="cls-59" d="m714.96,343c3.64-.06,3.58,5.41,1,6-3.62.83-4.81-5.93-1-6Z"/>
                  </g>
                  <path class="cls-42" d="m689.21,341c3.24,11.2-4.57,8.85-5,8.25-.27-.38.2-6.62,0-8.25,1.55-.17,3.58.24,5,0Z"/>
                </g>
              </g>
            </g>
          </g>
          <g>
            <path class="cls-32" d="m647.71,265c31.4,17.75,93.4,19.71,123-2,3.85-2.83,6.91-6.46,8-5.5-2.04,2.97-4.77,6.69-7.5,9-7.77,6.59-24.45,11.89-34.5,13.5-15.15,2.43-43.32,2.09-58.5-.5-16.15-2.76-32.24-9.49-44.5-20.5.15-1.14-.5-2.07-1-3,.66-4.42,3.18,1.61,7.75,5,2.18,1.62,4.9,2.67,7.25,4Z"/>
            <path class="cls-22" d="m794.71,221.5c-.34,2.72-3.3,17.32-4,19.25-1.09,3.02-4.73,9.24-4,2,.24-2.41,4.36-11.89,2.5-16.25.66-13.44-2.43-23.97-9.5-35.25-1.26-2.01-15.01-20.36-16-21.25l1.5-1c2.23,4.5,14.71,17.61,19,25.75,1.64,3.11,6.11,14.73,6.5,17.5.05.35-1.66,3.5-1,7,.05.25,2.38,4.22,2.75,4.25,1.68.14-.03-2.71,2.25-2Z"/>
            <g>
              <path class="cls-20" d="m782.21,260c-3.3,2.65-7.07,4.91-11,6.5,2.73-2.31,5.46-6.03,7.5-9,1.4-2.04,1.86-2.84,3-5,4.25-8.04,7.05-16.85,7.5-26,1.86,4.36-2.26,13.84-2.5,16.25-.73,7.24,2.91,1.02,4-2,.7-1.93,3.66-16.53,4-19.25,1.41-11.35,1.28-22.84-1.5-34-2.06-8.28-5.81-15.33-12.25-21-1.87-1.65-18.1-12.55-18.75-9.75.54,1.47,2.38,5.06,2.5,5.75.27,1.52-1.2,2.43-1,3.75,1.41,1.11,1.41,2.57,1.5,2.75l-1.5,1c-.21-.19-.77-1.63-1.75-1.5-14.23,13.73-23.6,11.04-41.25,8-.08-.01-.93-1.2-1.5-.75-.15,1.23,1.05.55,1.5.75,9.55,4.26,15.14,3.32,18.75,4,8.16,1.53-2.46,2.11-8.5,1-5.92-1.09-11.15-5.16-17-6.5l14,11c-3.11,1.14-11.79-3.51-15-5.5-9.84-6.1-16.16-16.21-.75,5.75-.42.92-4.34-1.41-5-1.75,1.7-1.27.62-.72,0-1.5-2.62-3.33-9.94-8.86-13.25-12.5l-.75.25c1.27.91.94,1.67,1,1.75l-1.5.5c-11.94-11.78-10.65-8.42-2.75-.5,1.88,1.89,3.6,1.85,3.75,2,.05.05.76,1.97-.25,1.5-8.98-5.24-10.83-10.12-12.25-11.5-.04-.04-.03-.47-.75-1-.81,1.48.24,1.42.25,1.5.97,10.54,6.94,14.45,13.75,21.5-9.04-3.03-15.57-8.56-18-18,1.55,12.63-2.79-1.88-2.5-7-1.09,2.39-2.01,8.1-2.25,10.75-.46,5.06.8,14.84-1,11.5-2.14-3.98-2.93-26.21-.25-32.25-5.29,6.95-6.78,17.18-6.25,25.75.03.44,2.72,11.41,0,5.5-.18-.39-1.36-7.4-1.5-8.5-1.3-10.42,1.18-24.45-3-9.5-1.24,4.43-1.53,15.24-2.5,9-.18-1.14-.13-5.39,0-6.75.02-.2,2.3-3.93-.5-.5-2.16,2.65-9.56,16.88-10.5,17.25-.7.27-.68-.4-.5-1,.59-1.93,16.4-30.63,18.75-35.75-7.3,6.35-14.17,13.21-19.25,21.5-1.45-1.51,6.45-9.09,4.75-10-26.28,20.17-31.62,32.6-27.25,66.25.81,6.24,4.74,23.12,8.5,27.75.47,1.1.98,2.54,1.5,3.5.5.93,1.15,1.86,1,3-.75-.57-1.44-.45-1.5-.5-20.63-14.94-25.65-57.48-14.5-80,12.85-25.95,53.51-41.68,80.75-43.5,41.24-2.76,98.69,10.21,104.75,59.25,2.9,23.46-1.66,50.22-21,65.75Z"/>
              <g>
                <g>
                  <path class="cls-22" d="m760.71,161.5c.05.12,1.63,1.31.75,2.5-16.14,9.46-27.71,7.79-45.25,5-.98-4.88-4.43-3.37-4.75-3.5-4.23-1.71-32.28-10.38-30.75-14.75,20.75-6.71,52.72-3.94,71.75,6.75,3.01,1.69,5.45,5.99,8.25,4Z"/>
                  <path class="cls-22" d="m760.71,161.5c-2.8,1.99-5.24-2.31-8.25-4-19.03-10.69-51-13.46-71.75-6.75-1.53,4.37,26.52,13.04,30.75,14.75.32.13,3.77-1.38,4.75,3.5-11.49-1.83-37.7-7.35-41-19.75,17.3-8.45,77.85-8.08,85.5,12.25Z"/>
                </g>
                <path class="cls-35" d="m707.21,183c-2.79-.74-12-9-13-10.5-.06-.08.27-.84-1-1.75l.75-.25c3.31,3.64,10.63,9.17,13.25,12.5Z"/>
                <path class="cls-26" d="m692.71,173c.22.22.79,1.31,1,1.5-.15-.15-1.87-.11-3.75-2-7.9-7.92-9.19-11.28,2.75.5Z"/>
                <path class="cls-47" d="m657.21,167l-.5-.5c2.8-3.43.52.3.5.5Z"/>
                <path class="cls-33" d="m681.21,164.5l-.5.5c0-.08-1.06-.02-.25-1.5.72.53.71.96.75,1Z"/>
                <path class="cls-3" d="m720.71,176.5c-.45-.2-1.65.48-1.5-.75.57-.45,1.42.74,1.5.75Z"/>
              </g>
            </g>
            <g>
              <path class="cls-63" d="m647.71,265c-2.35-1.33-5.07-2.38-7.25-4-4.57-3.39-7.09-9.42-7.75-5-.52-.96-1.03-2.4-1.5-3.5-.85-1.99-.89-2.7-1-3,6.65,1.39,12.74-2.84,18.5-5.5l20-.5c-2.6-10.48,19.52,11.06.25,19l-21.25,2.5Z"/>
              <path class="cls-63" d="m668.71,243.5l-20,.5c1.55-.71,10.77-9.58,20-.5Z"/>
            </g>
            <g>
              <path class="cls-63" d="m781.71,252.5c-1.14,2.16-1.6,2.96-3,5-1.09-.96-4.15,2.67-8,5.5-.08-1.34-4.32-.69-6-.5-1.88-1.83-4.87-1.08-8.25-2-2.28-.62-4.74-2.4-5-2.5-.28-.11-.23,1.11-.5,1-2.74-1.14-7.68-4.69-8.25-7.75-.86-4.63,2.15-5.48,1-7.75.1-.06.8-1.19,1.75-1.5,1.14-.05.18.93,1.75,1,4.53.2,13.79,1.65,17.5-.5,2.38.6-3.28-3.09.25-3.5,1.07-.12,14.66,11.98,16.75,13.5Z"/>
              <path class="cls-63" d="m764.71,262.5c-3.75.43-7.4,1.46-11.25,1-14.58-1.73-20.12-13.45-9.75-20,1.15,2.27-1.86,3.12-1,7.75.57,3.06,5.51,6.61,8.25,7.75.27.11.22-1.11.5-1,.26.1,2.72,1.88,5,2.5,3.38.92,6.37.17,8.25,2Z"/>
              <path class="cls-63" d="m764.71,242.5c-3.71,2.15-12.97.7-17.5.5-.17-3.8,12.18-4.16,17.5-.5Z"/>
            </g>
            <g>
              <path class="cls-62" d="m656.71,166.5l.5.5c-.13,1.36-.18,5.61,0,6.75.97,6.24,1.26-4.57,2.5-9,4.18-14.95,1.7-.92,3,9.5.14,1.1,1.32,8.11,1.5,8.5,2.72,5.91.03-5.06,0-5.5-.53-8.57.96-18.8,6.25-25.75-2.68,6.04-1.89,28.27.25,32.25,1.8,3.34.54-6.44,1-11.5.24-2.65,1.16-8.36,2.25-10.75-.29,5.12,4.05,19.63,2.5,7,2.43,9.44,8.96,14.97,18,18-6.81-7.05-12.78-10.96-13.75-21.5l.5-.5c1.42,1.38,3.27,6.26,12.25,11.5,1.01.47.3-1.45.25-1.5,4.15,3.87,8.33,7.34,13.5,10,.66.34,4.58,2.67,5,1.75-15.41-21.96-9.09-11.85.75-5.75,3.21,1.99,11.89,6.64,15,5.5l-14-11c5.85,1.34,11.08,5.41,17,6.5,6.04,1.11,16.66.53,8.5-1-3.61-.68-9.2.26-18.75-4,17.65,3.04,27.02,5.73,41.25-8,.98-.13,1.54,1.31,1.75,1.5.99.89,14.74,19.24,16,21.25,7.07,11.28,10.16,21.81,9.5,35.25-.45,9.15-3.25,17.96-7.5,26-2.09-1.52-15.68-13.62-16.75-13.5-3.53.41,2.13,4.1-.25,3.5-5.32-3.66-17.67-3.3-17.5.5-1.57-.07-.61-1.05-1.75-1-.95.31-1.65,1.44-1.75,1.5-10.37,6.55-4.83,18.27,9.75,20,3.85.46,7.5-.57,11.25-1,1.68-.19,5.92-.84,6,.5-29.6,21.71-91.6,19.75-123,2l21.25-2.5c19.27-7.94-2.85-29.48-.25-19-9.23-9.08-18.45-.21-20,.5-5.76,2.66-11.85,6.89-18.5,5.5-4.49-12.93-5.21-22.44-3-36.25,1.75-10.92,12.07-35.08,18-44.75,5.08-8.29,11.95-15.15,19.25-21.5-2.35,5.12-18.16,33.82-18.75,35.75-.18.6-.2,1.27.5,1,.94-.37,8.34-14.6,10.5-17.25Z"/>
              <g>
                <path class="cls-23" d="m694.21,172.5c1,1.5,10.21,9.76,13,10.5.62.78,1.7.23,0,1.5-5.17-2.66-9.35-6.13-13.5-10-.21-.19-.78-1.28-1-1.5l1.5-.5Z"/>
                <path class="cls-20" d="m664.96,195.5c2.14-.1,10.14,1,10.75,3.25,1.52,5.64-5.07-1.03-19.25,3.75-1.43.48-4.71,3.01-5,3-4.65-.22,5.01-9.61,13.5-10Z"/>
                <path class="cls-21" d="m745.46,195.5c5-.32,15.7,2.34,16.75,8.25-16.53-6.65-22.81-1.48-23.75-2.25-2.11-1.73.49-5.58,7-6Z"/>
                <path class="cls-19" d="m636.71,204.5h-.5c.8-5.79,3.44-11.16,7-15.75,9.59-12.36,16.78-8.21,16-6.5-.68,1.51-14.04.05-22.5,22.25Z"/>
                <path class="cls-19" d="m758.46,181.5c2.02-1.25,12.76,10.58,15.75,16.75,6.06,12.52-1.85-.81-4.5-4-3.28-3.94-13.05-11.63-11.25-12.75Z"/>
                <g>
                  <path class="cls-20" d="m753.71,233c8.14-6.21-4.07-14.87-4-8.75.05,3.97,6.4-1.77,5,4.5-.24,1.06-3.77,4.98-7.5,5.75-11.1,2.28-10.6-12.27-3.25-15.5,6.04-2.65,12.85-.11,15.5,6,4.64-9.79-.8,3.03,6.25,11.75-3.93-1.82-7.7-3.1-12-3.75Z"/>
                  <path class="cls-57" d="m753.71,233c-1.38,1.05-5.47,2.63-6.5,1.5,3.73-.77,7.26-4.69,7.5-5.75,1.4-6.27-4.95-.53-5-4.5-.07-6.12,12.14,2.54,4,8.75Z"/>
                </g>
                <path class="cls-11" d="m697.96,234c11.2,5.63,16.1,0,17,0,5.8-.04-10.61,9.52-17,0Z"/>
                <path class="cls-52" d="m636.71,204.5c-.88,2.31-.89,2.85-.5,0h.5Z"/>
                <g>
                  <path class="cls-20" d="m665.71,234c-2.2-7.97-6.31-3.1-4-1-6.79-.22-13.7,4.42-14,3.75,9.12-8.03-.09-21.87,5.25-11.75,5.23-11.19,24.77-8.03,21.75,5.75-1.51,6.88-8.45,3.39-9,3.25Z"/>
                  <path class="cls-57" d="m665.71,234c-.2-.05-2.11.71-4-1-2.31-2.1,1.8-6.97,4,1Z"/>
                  <path class="cls-57" d="m662.46,223c4.03-1.29,4.17,4.77,1,5-2.78.2-3.42-4.22-1-5Z"/>
                  <path class="cls-51" d="m667.96,223c2.3-1.1,3.92,2.08,2,3-2.3,1.1-3.92-2.08-2-3Z"/>
                </g>
                <g>
                  <path class="cls-41" d="m721.21,251.5c-1.65,1.62-3.97,7.47-5.75,9-1.31,1.13-7,3.06-8.5,3-7.14-.3-12.1-6.39-15.25-12-.07-.51-.09-1.56,0-2,1.3-.62,3.78.84,5,1.5-.22,10.48,18.9,11.96,21,0,.08-.48-.05-1.01,0-1.5.18-.04,2.48-1.19,3.25-1.5.43.31.29,2.79.25,3.5Z"/>
                  <path class="cls-46" d="m721.21,251.5c-.98,16.88-27.21,17.37-29.5,0,3.15,5.61,8.11,11.7,15.25,12,1.5.06,7.19-1.87,8.5-3,1.78-1.53,4.1-7.38,5.75-9Z"/>
                  <path class="cls-27" d="m717.71,251c-2.1,11.96-21.22,10.48-21,0,.33.18,1.5-.18,1.75,0,.64.46,4.62,10.37,12.5,6,3.67-2.03,1.11-6.14,6.75-6Z"/>
                  <g>
                    <path class="cls-64" d="m717.71,249.5c-.05.49.08,1.02,0,1.5-5.64-.14-3.08,3.97-6.75,6-7.88,4.37-11.86-5.54-12.5-6-.25-.18-1.42.18-1.75,0-1.22-.66-3.7-2.12-5-1.5.09-.44-.23-1.26.25-1.5,8.93,4.05,10.11.3,11.5,0,8.26-1.79,4.97,3.37,14.25,1.5Z"/>
                    <path class="cls-30" d="m704.46,249c7.46-1,11.07,5.94,5,7.5-6.92,1.78-12.5-6.49-5-7.5Z"/>
                  </g>
                </g>
              </g>
            </g>
          </g>
        </g>
      </g>
    </g>
  </g>
</svg>