<?xml version="1.0" encoding="UTF-8"?>
<svg id="Layer_2" data-name="Layer 2" xmlns="http://www.w3.org/2000/svg" xmlns:xlink="http://www.w3.org/1999/xlink" viewBox="0 0 1366 675">
  <defs>
    <style>
      .cls-1 {
        fill: url(#linear-gradient);
        opacity: .3;
      }

      .cls-1, .cls-2, .cls-3, .cls-4, .cls-5, .cls-6, .cls-7, .cls-8, .cls-9, .cls-10, .cls-11, .cls-12, .cls-13, .cls-14, .cls-15 {
        stroke-width: 0px;
      }

      .cls-2 {
        fill: #f2e6f4;
      }

      .cls-3 {
        fill: #4e4c6c;
      }

      .cls-4 {
        fill: #cfb8dd;
      }

      .cls-5 {
        fill: #c7c0e3;
      }

      .cls-6 {
        fill: #aaa5c5;
      }

      .cls-7 {
        fill: #b1bcd0;
      }

      .cls-8 {
        fill: #cecbdd;
      }

      .cls-9 {
        fill: #b8c2c7;
      }

      .cls-10 {
        fill: #bacbda;
      }

      .cls-11 {
        fill: #7e698f;
      }

      .cls-12 {
        fill: #a0a8bb;
      }

      .cls-13 {
        fill: #e3dcfd;
      }

      .cls-14 {
        fill: #e5cee6;
      }

      .cls-15 {
        fill: #eaefff;
      }
    </style>
    <linearGradient id="linear-gradient" x1="1348.23" y1="-365.03" x2="1323.48" y2="1011.83" gradientTransform="translate(15.08 175.32) scale(.5)" gradientUnits="userSpaceOnUse">
      <stop offset=".13" stop-color="#695a7b"/>
      <stop offset=".87" stop-color="#363e51"/>
    </linearGradient>
  </defs>
  <g id="Layer_1-2" data-name="Layer 1">
    <g id="Background">
      <rect class="cls-1" width="1366" height="675"/>
      <path class="cls-3" d="m306.82,172.71c2.5,2.22,1.03,3.8-2,3.96-2.5.12-29.35-15.82-28.68-19.78,1.21.01,1.04-1.1,5.34.33,4.52,4.6,23.23,13.61,25.35,15.49Z"/>
      <path class="cls-2" d="m624.97,19.12c.99.08.53,2.78,6,2.97-7.99,6.86-13.54-.08-12.01-1.32.18-.14,5.66-1.68,6-1.65Z"/>
      <path class="cls-8" d="m222.11,292.68c4.46,6.93,6.48,0,1.33,7.25-10.74-2.37-8.25-3.6-1.33-7.25Z"/>
      <path class="cls-2" d="m1334.65,42.19c10.08,8.17-9.89,7.25-6,2.31.33-.42,3.09.31,6-2.31Z"/>
      <path class="cls-9" d="m136.73,634.13c6.71,6.27,3.01,10.16-6,2.97l6-2.97Z"/>
      <path class="cls-10" d="m1173.24,530.64c1,.12,5.73,5.24,1.33,5.93-7.05,1.11-5.19-6.38-1.33-5.93Z"/>
      <path class="cls-8" d="m1303.97,88.33c3.59.29,2.79,5.35-2.67,3.96-.58-.15.24-4.15,2.67-3.96Z"/>
      <path class="cls-15" d="m252.79,202.37c3.06-1.05,6.87,2.2,2.67,2.64-2.66.27-4.68-1.95-2.67-2.64Z"/>
      <path class="cls-10" d="m183.42,353.32c4.06-.16,3.84,2.5,1.33,2.64-1,.05-5-2.49-1.33-2.64Z"/>
      <path class="cls-5" d="m103.38,20.43c1.29.03,3.21,2.12,1.33,2.64-2.89.79-4.44-2.71-1.33-2.64Z"/>
      <path class="cls-8" d="m811.73,90.31c4.96-.47,3.53,1.68,1.33,1.98-2.74.37-4.2-1.71-1.33-1.98Z"/>
      <path class="cls-2" d="m1130.55,47.46c3.98-.02,1.63,2.98-.67,2.31-2.8-.82-.13-2.3.67-2.31Z"/>
      <path class="cls-7" d="m118.06,597.88c.78,0,3.48,1.48.67,2.31-2.88.85-3.28-2.31-.67-2.31Z"/>
      <path class="cls-11" d="m67.37,169.41c3.3-.24,3.82,1.82,1.33,1.98-1,.06-5.22-1.7-1.33-1.98Z"/>
      <path class="cls-12" d="m971.81,628.86c1.56.04,2.19,3.34-.67,2.31-2.84-1.03.1-2.32.67-2.31Z"/>
      <path class="cls-12" d="m1273.29,510.86c2.59-.67,4.08,2.05,1.33,1.98-2.96-.08-2.6-1.65-1.33-1.98Z"/>
      <path class="cls-14" d="m1186.58,74.49c2.96.08,2.6,1.65,1.33,1.98-2.59.67-4.08-2.05-1.33-1.98Z"/>
      <path class="cls-5" d="m963.8,117.99c3.83-.03,1.5,2.16-.67,1.65-2.3-.54.07-1.64.67-1.65Z"/>
      <path class="cls-12" d="m1237.27,496.36c1.48.42,1.11,3.74-1.33,1.98-1.52-1.1,1.11-2.04,1.33-1.98Z"/>
      <path class="cls-4" d="m1095.87,20.43c1.11-.34,3.42.9,3.33.99-1.01,1.09-6.31-.09-3.33-.99Z"/>
      <path class="cls-14" d="m278.14,75.81c.48,0,2.93.95.67,1.65-2.54.78-2.97-1.65-.67-1.65Z"/>
      <path class="cls-13" d="m231.45,264.99c.48,0,2.93.95.67,1.65-2.54.78-2.97-1.65-.67-1.65Z"/>
      <path class="cls-7" d="m586.29,613.7c1.63.35.81,3.86-1.33,1.98-.56-.5,1.1-2.03,1.33-1.98Z"/>
      <path class="cls-14" d="m1094.53,59.33c.15-.05,2.18.67,1.33,1.32-2.05,1.58-3.03-.72-1.33-1.32Z"/>
      <path class="cls-8" d="m299.48,317.07c1.99-.39,2.93,1,1.33,1.32-1.99.39-2.93-1-1.33-1.32Z"/>
      <path class="cls-14" d="m414.2,112.72c.15-.05,2.18.67,1.33,1.32-2.05,1.58-3.03-.72-1.33-1.32Z"/>
      <path class="cls-4" d="m132.73,16.48c1.99-.39,2.93,1,1.33,1.32-1.99.39-2.93-1-1.33-1.32Z"/>
      <path class="cls-5" d="m1237.27,255.76c.15-.05,2.18.67,1.33,1.32-2.05,1.58-3.03-.72-1.33-1.32Z"/>
      <path class="cls-6" d="m47.36,313.77c1.02,0,1.02,1.98,0,1.98s-1.02-1.98,0-1.98Z"/>
      <path class="cls-14" d="m877.09,121.29h1.33l.67.33v.66l-.67.33-.67-.33-.67-.33-.67-.33.67-.33Z"/>
    </g>
  </g>
</svg>