<?xml version="1.0" encoding="UTF-8"?>
<svg id="Layer_2" data-name="Layer 2" xmlns="http://www.w3.org/2000/svg" xmlns:xlink="http://www.w3.org/1999/xlink" viewBox="0 0 165.09 269.72">
  <defs>
    <style>
      .cls-1 {
        fill: url(#linear-gradient);
      }

      .cls-1, .cls-2, .cls-3, .cls-4, .cls-5, .cls-6, .cls-7, .cls-8, .cls-9, .cls-10, .cls-11, .cls-12, .cls-13, .cls-14, .cls-15, .cls-16, .cls-17, .cls-18, .cls-19, .cls-20, .cls-21, .cls-22, .cls-23, .cls-24, .cls-25, .cls-26, .cls-27, .cls-28, .cls-29, .cls-30, .cls-31, .cls-32, .cls-33, .cls-34, .cls-35, .cls-36, .cls-37, .cls-38, .cls-39, .cls-40, .cls-41, .cls-42, .cls-43, .cls-44, .cls-45, .cls-46, .cls-47, .cls-48, .cls-49, .cls-50, .cls-51, .cls-52, .cls-53, .cls-54, .cls-55, .cls-56, .cls-57, .cls-58, .cls-59, .cls-60, .cls-61, .cls-62, .cls-63, .cls-64, .cls-65, .cls-66, .cls-67, .cls-68, .cls-69, .cls-70, .cls-71, .cls-72, .cls-73, .cls-74, .cls-75, .cls-76, .cls-77, .cls-78, .cls-79, .cls-80, .cls-81, .cls-82, .cls-83, .cls-84, .cls-85, .cls-86, .cls-87, .cls-88, .cls-89, .cls-90, .cls-91, .cls-92, .cls-93, .cls-94, .cls-95, .cls-96, .cls-97, .cls-98, .cls-99, .cls-100, .cls-101, .cls-102, .cls-103, .cls-104, .cls-105, .cls-106, .cls-107, .cls-108, .cls-109, .cls-110, .cls-111, .cls-112 {
        stroke-width: 0px;
      }

      .cls-2 {
        fill: url(#linear-gradient-4);
      }

      .cls-3 {
        fill: url(#linear-gradient-2);
      }

      .cls-4 {
        fill: url(#linear-gradient-3);
      }

      .cls-5 {
        fill: #f4aba7;
      }

      .cls-6 {
        fill: #f3b898;
      }

      .cls-7 {
        fill: #f7cabf;
      }

      .cls-8 {
        fill: #f9eef2;
      }

      .cls-9 {
        fill: #473938;
      }

      .cls-10 {
        fill: #5e5148;
      }

      .cls-11 {
        fill: #789d89;
      }

      .cls-12 {
        fill: #796139;
      }

      .cls-13 {
        fill: #504e49;
      }

      .cls-14 {
        fill: #271309;
      }

      .cls-15 {
        fill: #7a4a37;
      }

      .cls-16 {
        fill: #7a475a;
      }

      .cls-17 {
        fill: #49160a;
      }

      .cls-18 {
        fill: #291214;
      }

      .cls-19 {
        fill: #572232;
      }

      .cls-20 {
        fill: #573955;
      }

      .cls-21 {
        fill: #2b2727;
      }

      .cls-22 {
        fill: #703f3b;
      }

      .cls-23 {
        fill: #853;
      }

      .cls-24 {
        fill: #462022;
      }

      .cls-25 {
        fill: #897366;
      }

      .cls-26 {
        fill: #72655e;
      }

      .cls-27 {
        fill: #a36a61;
      }

      .cls-28 {
        fill: #6f120e;
      }

      .cls-29 {
        fill: #310f25;
      }

      .cls-30 {
        fill: #2ca165;
      }

      .cls-31 {
        fill: #596c60;
      }

      .cls-32 {
        fill: #581d42;
      }

      .cls-33 {
        fill: #18aa8f;
      }

      .cls-34 {
        fill: #1b1a0f;
      }

      .cls-35 {
        fill: #0d2923;
      }

      .cls-36 {
        fill: #453114;
      }

      .cls-37 {
        fill: #362210;
      }

      .cls-38 {
        fill: #0d4e39;
      }

      .cls-39 {
        fill: #1c130b;
      }

      .cls-40 {
        fill: #090707;
      }

      .cls-41 {
        fill: #407664;
      }

      .cls-42 {
        fill: #097059;
      }

      .cls-43 {
        fill: #18d3ce;
      }

      .cls-44 {
        fill: #141d0b;
      }

      .cls-45 {
        fill: #203031;
      }

      .cls-46 {
        fill: #a87559;
      }

      .cls-47 {
        fill: #190d11;
      }

      .cls-48 {
        fill: #14c2a9;
      }

      .cls-49 {
        fill: #163c29;
      }

      .cls-50 {
        fill: #11bfb7;
      }

      .cls-51 {
        fill: #d3806e;
      }

      .cls-52 {
        fill: #d45574;
      }

      .cls-53 {
        fill: #d0ab7a;
      }

      .cls-54 {
        fill: #d15788;
      }

      .cls-55 {
        fill: #cb6254;
      }

      .cls-56 {
        fill: #cda254;
      }

      .cls-57 {
        fill: #d7ab21;
      }

      .cls-58 {
        fill: #decbba;
      }

      .cls-59 {
        fill: #c98a83;
      }

      .cls-60 {
        fill: #d77b8a;
      }

      .cls-61 {
        fill: #d69b7c;
      }

      .cls-62 {
        fill: #d5fefa;
      }

      .cls-63 {
        fill: #d76a9f;
      }

      .cls-64 {
        fill: #d4927e;
      }

      .cls-65 {
        fill: #db8653;
      }

      .cls-66 {
        fill: #bc9262;
      }

      .cls-67 {
        fill: #d6ecc8;
      }

      .cls-68 {
        fill: #c18269;
      }

      .cls-69 {
        fill: #a5f0f1;
      }

      .cls-70 {
        fill: #a79283;
      }

      .cls-71 {
        fill: #c0bfbd;
      }

      .cls-72 {
        fill: #af7017;
      }

      .cls-73 {
        fill: #b09c83;
      }

      .cls-74 {
        fill: #aa4177;
      }

      .cls-75 {
        fill: #c0989b;
      }

      .cls-76 {
        fill: #b3a99b;
      }

      .cls-77 {
        fill: #ceb7a3;
      }

      .cls-78 {
        fill: #cdc1c4;
      }

      .cls-79 {
        fill: #b95693;
      }

      .cls-80 {
        fill: #8d514e;
      }

      .cls-81 {
        fill: #932755;
      }

      .cls-82 {
        fill: #8f9a86;
      }

      .cls-83 {
        fill: #b4796c;
      }

      .cls-84 {
        fill: #b78446;
      }

      .cls-85 {
        fill: #31212b;
      }

      .cls-86 {
        fill: #7e174a;
      }

      .cls-87 {
        fill: #934c81;
      }

      .cls-88 {
        fill: #945e47;
      }

      .cls-89 {
        fill: #fcf4db;
      }

      .cls-90 {
        fill: #fbceab;
      }

      .cls-91 {
        fill: #918981;
      }

      .cls-92 {
        fill: #f2a1bc;
      }

      .cls-93 {
        fill: #f3d6c8;
      }

      .cls-94 {
        fill: #eec276;
      }

      .cls-95 {
        fill: #f0d174;
      }

      .cls-96 {
        fill: #f0d29e;
      }

      .cls-97 {
        fill: #e4e6dd;
      }

      .cls-98 {
        fill: #efddb7;
      }

      .cls-99 {
        fill: #fbafbd;
      }

      .cls-100 {
        fill: #e6a58f;
      }

      .cls-101 {
        fill: #e782ae;
      }

      .cls-102 {
        fill: #fefcfa;
      }

      .cls-103 {
        fill: #ecc24b;
      }

      .cls-104 {
        fill: #f2985a;
      }

      .cls-105 {
        fill: #f7998b;
      }

      .cls-106 {
        fill: #f5e9de;
      }

      .cls-107 {
        fill: #f4e279;
      }

      .cls-108 {
        fill: #016e69;
      }

      .cls-109 {
        fill: #034e51;
      }

      .cls-110 {
        fill: #674319;
      }

      .cls-111 {
        fill: #676767;
      }

      .cls-112 {
        fill: #6a3166;
      }
    </style>
    <linearGradient id="linear-gradient" x1="37.86" y1="237.85" x2="49.85" y2="249.9" gradientUnits="userSpaceOnUse">
      <stop offset="0" stop-color="#927f71"/>
      <stop offset="1" stop-color="#6d5c52"/>
    </linearGradient>
    <linearGradient id="linear-gradient-2" x1="36.78" y1="37.04" x2="101.16" y2="41.07" gradientUnits="userSpaceOnUse">
      <stop offset="0" stop-color="#ee87ae"/>
      <stop offset="1" stop-color="#d75b8d"/>
    </linearGradient>
    <linearGradient id="linear-gradient-3" x1="25.54" y1="207.77" x2="42.03" y2="224.52" gradientUnits="userSpaceOnUse">
      <stop offset="0" stop-color="#501338"/>
      <stop offset="1" stop-color="#260d22"/>
    </linearGradient>
    <linearGradient id="linear-gradient-4" x1="102.87" y1="207.72" x2="141.74" y2="235.01" gradientUnits="userSpaceOnUse">
      <stop offset="0" stop-color="#5a1640"/>
      <stop offset="1" stop-color="#1e0c1b"/>
    </linearGradient>
  </defs>
  <g id="Layer_1-2" data-name="Layer 1">
    <g>
      <path class="cls-71" d="m45.86,176.72c1.76,2.07.98,5.94,1.5,8.5-2.84-.31-6.19-.98-9-1,.57-.76.45-1.41.5-1.5.04-.08.63-.89,1-1.5,2.68-4.5,2.23-3.54,6-4.5Z"/>
      <g>
        <path class="cls-101" d="m31.86,135.22c.28,1.57.64,2.65,1.5,4,.57,4.21,9.74,9.18,14.5,10.5,3.33,1.49-3.9,7.61-1.25,12.5,1.45-3.7,4.85-8.69,4.25-12,3.14.7,6.8,1.19,10,1.5-3.75.27-9.43,5.9-10,9.25-.22,1.28,0,22.92,1,25.75-1.46-.95-2.98-.91-3.5-1.75-.19-2.96-1.04-5.85-1.5-8.75-.24-1.48.4-3.41.25-3.5-.7-.4-2.12,2.39-2.75,1.25,3.64-14.21-14.03-22.03-16-34.75,1.8-2.15,2.55-4.29,3.5-4Z"/>
        <path class="cls-54" d="m143.36,142.72c-13.49,3.79-17.17,14.49-19,16-.69.57-4.77,1.8-5,2,.74-.97.41-1.84.5-2,.21-.38,4.34-4.31,4-7.5,5.64-4.05,10.99-7.98,17-11.5,2.25,1.67,1.89,2.39,2.5,3Z"/>
        <path class="cls-81" d="m140.36,139.22c-4.65,1.84-8.7,5.02-13.5,6.5-2.52.78-13.08,2.84-15.5,2,7.57-2.06,18.16-5.74,24-11,1.37,1.4,3.41,1.5,5,2.5Z"/>
        <path class="cls-13" d="m108.86,269.72c.02-.31-.58-.96-.75-1-1.63-.38-13.66,2.23-33.25-2-1.56-.34-3.83-.71-5-2,6.31,1.38,21.77,4.36,27.25,3.5,2.79-.44,4.48-2.36,6.75-3.5.1-.05.74.07,1.5-.5-4.9,5.76-1.71,1.75,9,4.75-1.76.02-3.97.62-5.5.75Z"/>
        <path class="cls-12" d="m140.86,139.72c-6.01,3.52-11.36,7.45-17,11.5-1.37.98-1.43,2.53-2,0,1.61-2.02,3.13-3.72,5-5.5,4.8-1.48,8.85-4.66,13.5-6.5.61.38.47.48.5.5Z"/>
        <g>
          <path class="cls-101" d="m147.36,150.22l3.5,6.5c-9.19-.73-14.83-8.26-3.5-6.5Z"/>
          <path class="cls-63" d="m150.86,156.72l-3.5-6.5c1,.16,2.76-.21,3.25,0,1.58.68,3.76,5.34,5.25,6.75-.23.35-4.19-.19-5-.25Z"/>
        </g>
        <path class="cls-54" d="m106.36,150.22c-1.07,2.47-.62,5.25,0,7,.14.4.08,1.14.5,1.5.41.35,1.08.79,1.5,1,.61,4.72,3.93,10.75,3,15-2.04-.63-3.49-1.9-5.5-2.5-1.99-2.34-1.12-5.33-4.5-9.75-1.53-1.99-4.64-3.81-6.5-5.75-2.87-3-1.8-4.12-2.25-4.5-.18-.15-4.6.56-4.75.75-.28.36,3.15,7.83,4,7.75h.5c-5.86,2.94-5.75,8.54-3.5,14-.01.16-.01.34,0,.5.9,10.81,13.26,10.23,21,10.5-1.83.86-4.06,1.65-6,2.5-3.69,1.62-7.91,2.51-11.5,4.5-.89-1.42-1.58-2.87-2-4.5-.03-.12.94-.15,0-2.5-2.04-5.08-5.2-2.1-5.5-1.25-.7,1.99.94,2.36,1,2.75.02.11-1.71-.43-.75,1.5h3.75c-4.07,1.72-7.92,3.48-12.25,4.5-9.03.52-6.85-.99-7.25-1,1.64.02,4.81.2,5.75,0,.43-.09.19-.96.25-1,.3-.18,1.49.39,1.5-.5.32-.03.69.06,1,0,.84-.16.7-.05,1.5-.5.03-.02.41-.4.5-.5,5.12.28,1.63-25.96,1-27.25-.11-.22-2.14-2.11-4-2.75-.21-.07-3.48-.36-4.5-.5.35-.6.78-.46,1.5-1.5,2.07.89,4.33,1.04,6.5,1.5l3.75,4.5c.16-2.27.74-3.32.75-3.5.09-2.44-3.37-3.42-6-4,1.61-1.6.34-2,.5-4,8.66-.22,17.01-1.26,25.5-3,.09.28,1.41,1,1.5,1Z"/>
        <path class="cls-74" d="m118.36,156.22c-.82,1.92-1.3,3.8-2,5.75,2.09.69.97-6.49,3.5-3.25-.09.16.24,1.03-.5,2-3.77,3.3-1.54,11.1-5,14.5-.09,0-1.35.6-1.75.5-.43-.1-1.17-.98-1.25-1,.93-4.25-2.39-10.28-3-15,.2.1.47-1.26,3.25,1,.58-2.26,4.44-3.41,6.75-4.5Z"/>
        <path class="cls-81" d="m103.86,177.22c.04,3.86,4.33,3.71,13,3.5-1.57,2.74-4.33,3.75-7,5-7.74-.27-20.1.31-21-10.5,5.28,11.41,13.68,4.99,15,2Z"/>
        <path class="cls-86" d="m128.36,182.22v6c-1.07-.48-.74-2.22-1.25-2.5-.78-.43-15.21,1.76-17.75,2-1.84.17-3.64.53-5.5.5,1.94-.85,4.17-1.64,6-2.5,2.67-1.25,5.43-2.26,7-5,1.53-.04,5.93-2.02,8.25-1.5.24.05,2.84,2.72,3.25,3Z"/>
        <path class="cls-81" d="m124.36,158.72c-.4,2.61-2.1,5.16-2.5,7.75-1.28,8.3,4.19,9.55-7.5,8.75,3.46-3.4,1.23-11.2,5-14.5.23-.2,4.31-1.43,5-2Z"/>
        <path class="cls-34" d="m94.86,156.72c1.86,1.94,4.97,3.76,6.5,5.75,3.38,4.42,2.51,7.41,4.5,9.75-.64-.19-1.34-.42-2-.5-.38-2.84-.64-5.39-3-7.5-1.39-4.11-4.91-3.59-8.5-3.5h-.5c-.36-5.61.78-2.82,3-4Z"/>
        <g>
          <path class="cls-58" d="m107.36,240.22c-4.01-1.64-5.1-5.52-5.25-2.5-8.37-3.17,3.37,5.93,3.75,16.5.14,3.97-1.22,6.8-2,10.5-2.27,1.14-3.96,3.06-6.75,3.5-5.48.86-20.94-2.12-27.25-3.5-1.56-.34-3.55-1.36-4.75-2.5-2.1,2.52-20,2.33-21.75-.5,1.11-.11,1.96-.35,3-.5.45,2.22,13.16,2.41,15.25,2,.15-.03,1.31-1.03,2.75-1.25-.89-1.27-3.03-3.55-3.5-4.75-.05-.12-.23-1.48-.5-2.5-.27-1.03-.37-1.37-.5-2.5-.69-5.86.55-7.7.5-10,.58-.91,1.41-1.4,1.5-1.5-.32,3.19.82-1.86,11.75-2.5,6.74-.39,12.21,1.39,13.75,1.5.91,6.4-11.86,1.09-19.25,2.5-7,1.34-5.4,11.25-1.75,15.5-1.62,2.14,1.81,3.04,4,4,5.77,2.52,23.68,7.52,28.5,3.75,5.07-3.96,4.18-14.6,1-19.5-2.42-3.73-6.97-4.56-8-6.25,1.24-.4,2.36,1.14,2-2.5,5.29-2.18,1.32,4.82,5.5-4,3.56,1.38,5.81,4.06,8,7Z"/>
          <path class="cls-70" d="m107.36,240.22c4.26,5.72,5.5,9.01,3.5,16l-5-2c-.38-10.57-12.12-19.67-3.75-16.5.15-3.02,1.24.86,5.25,2.5Z"/>
          <path class="cls-106" d="m77.86,234.22c5.48.88,10.85.51,16,3,.36,3.64-.76,2.1-2,2.5-.27.09-3.87.04-4.5,0-1.54-.11-7.01-1.89-13.75-1.5-10.93.64-12.07,5.69-11.75,2.5.09-.1.44-.95.5-1,4.35-3.87,7.4-1.56,15-5.5h.5Z"/>
          <path class="cls-58" d="m99.36,233.22c-4.18,8.82-.21,1.82-5.5,4-5.15-2.49-10.52-2.12-16-3,5.37-3.43,15.81-3.21,21.5-1Z"/>
          <path class="cls-25" d="m110.86,256.22c-.92,3.23-1.53,3.92-3.5,6.5-.43.56-1.47.87-2,1.5-.76.57-1.4.45-1.5.5.78-3.7,2.14-6.53,2-10.5l5,2Z"/>
          <g>
            <path class="cls-58" d="m91.86,239.72c1.03,1.69,5.58,2.52,8,6.25,3.18,4.9,4.07,15.54-1,19.5-4.82,3.77-22.73-1.23-28.5-3.75,1.22-2.22-1.98-1.65-4-4-3.65-4.25-5.25-14.16,1.75-15.5,7.39-1.41,20.16,3.9,19.25-2.5.63.04,4.23.09,4.5,0Z"/>
            <path class="cls-77" d="m70.36,261.72c-2.19-.96-5.62-1.86-4-4,2.02,2.35,5.22,1.78,4,4Z"/>
          </g>
        </g>
        <path class="cls-101" d="m79.36,152.22c-.16,2,1.11,2.4-.5,4-.45-.1-2.25-1.72-5.25.5-.95.7.28.96.25,1-.72,1.04-1.15.9-1.5,1.5-5.33-.74-17.24-2.25-19.5,4.25-.49,1.42-.29,12.43,0,14,.08.41.91.09,1,.5,1.71,7.73,2.01,8.59,10,10.75l.5,2c-2.47-.36-4.93-1.53-7.5-1.5-.87-.63-3.7-1.65-5-2.5-1-2.83-1.22-24.47-1-25.75.57-3.35,6.25-8.98,10-9.25,6.15.59,12.33.66,18.5.5Z"/>
        <path class="cls-92" d="m50.86,150.22c.6,3.31-2.8,8.3-4.25,12-2.65-4.89,4.58-11.01,1.25-12.5.31.09,1.66.2,3,.5Z"/>
        <g>
          <path class="cls-58" d="m56.36,225.72c.95.35,1.42,1.26,2,2,.03.67-.89.58-1.5.5-8.93-1.22-19.12-1.81-27,3.5-.3-2.14,5.25-2.79,5.5-3.25.17-.32-.58-3.66-.75-3.75-3.3-1.85-18.43,12.12-13.75,22-1.07,3.64-2.13,3.79,0,7.5.28.48.62.88.5,1.5-5.04-5.78-6.7-11.55-4.5-19,.64-2.16,2.38-4.52,3.5-6.5,4.7-3.98,9.32-6.28,15.5-7,8.58-1,12.68.15,20.5,2.5Z"/>
          <path class="cls-76" d="m24.36,249.72c.81,3.95,2.35,6.15,5.5,8.5,2.98,2.22,5.91,2.49,6.5,4-7.37-.26-10.05-.82-15-6.5.12-.62-.22-1.02-.5-1.5,1.73-2.03.39-8.28,3.5-4.5Z"/>
          <path class="cls-21" d="m60.86,257.22c-3.07,2.37-10.29,3.4-14.5,4-1.04.15-1.89.39-3,.5-1.95.2-2.37.49-2.5.5.28-1.47,6.63-1.86,11.25-3.5,2.72-.97,5.56-2.84,8.25-4,.27,1.02.45,2.38.5,2.5Z"/>
          <path class="cls-70" d="m62.36,239.72c-.06.05-.41.9-.5,1-.09.1-.92.59-1.5,1.5-.09-4.41.15-7.37-2-11.5-.44-.85-1.22-1.54-1.5-2.5.61.08,1.53.17,1.5-.5,3.1,3.95,3.67,7.01,4,12Z"/>
          <g>
            <path class="cls-10" d="m59.86,252.22c.13,1.13.23,1.47.5,2.5-2.69,1.16-5.53,3.03-8.25,4-4.62,1.64-10.97,2.03-11.25,3.5-1.47.08-3.03.05-4.5,0-.59-1.51-3.52-1.78-6.5-4-.08-.77,1.62-.49,3.5-.5,0,.34-.12.91.25,1,6.96,1.76,19.37-4.2,26.25-6.5Z"/>
            <path class="cls-9" d="m60.36,242.22c.05,2.3-1.19,4.14-.5,10-6.88,2.3-19.29,8.26-26.25,6.5-.37-.09-.25-.66-.25-1,8.96-.04,17.68-2.36,25.5-6.75-.57-7.02,1.42-13.16-.5-20.25,2.15,4.13,1.91,7.09,2,11.5Z"/>
            <path class="cls-1" d="m56.86,228.22c.28.96,1.06,1.65,1.5,2.5,1.92,7.09-.07,13.23.5,20.25-7.82,4.39-16.54,6.71-25.5,6.75-1.88,0-3.58-.27-3.5.5-3.15-2.35-4.69-4.55-5.5-8.5-.7-3.4-.52-6.58-.5-10,1.01-1.91,1.76-3.94,3-5.75.83-.97,1.96-1.55,3-2.25,7.88-5.31,18.07-4.72,27-3.5Z"/>
          </g>
          <path class="cls-97" d="m29.86,231.72c-1.04.7-2.17,1.28-3,2.25-1.24,1.81-1.99,3.84-3,5.75-1.17,2.22-2.3,4.61-3,7-4.68-9.88,10.45-23.85,13.75-22,.17.09.92,3.43.75,3.75-.25.46-5.8,1.11-5.5,3.25Z"/>
          <path class="cls-58" d="m24.36,249.72c-3.11-3.78-1.77,2.47-3.5,4.5-2.13-3.71-1.07-3.86,0-7.5.7-2.39,1.83-4.78,3-7-.02,3.42-.2,6.6.5,10Z"/>
        </g>
        <path class="cls-54" d="m126.86,145.72c-1.87,1.78-3.39,3.48-5,5.5-.8,1-1.8,1.76-2.5,3l-5.5-.5c-.26-1.48.51-3.42-.5-3.5-.9-.71-1.59-.38-2-.5-2.17-.65-1.74.02-2.5,0-2.16-.04-2.11.48-2.5.5-.09,0-1.41-.72-1.5-1,2.37-.49,4.15-.86,6.5-1.5,2.42.84,12.98-1.22,15.5-2Z"/>
        <path class="cls-56" d="m123.86,151.22c.34,3.19-3.79,7.12-4,7.5-2.53-3.24-1.41,3.94-3.5,3.25.7-1.95,1.18-3.83,2-5.75.2-.46.76-1.57,1-2,.7-1.24,1.7-2,2.5-3,.57,2.53.63.98,2,0Z"/>
        <g>
          <g>
            <path class="cls-40" d="m143.36,142.72c.71.72,5.76,5.76,5.5,6.25l-9.25-.25c2.48,10.22,8.35,8.8,17,10,.24.23.69,4.08,1.75,6.5-13.15-10.81-33.14-.06-28.5,17,.92,1.68-.03,1-1.5,0-.41-.28-3.01-2.95-3.25-3-2.32-.52-6.72,1.46-8.25,1.5-8.67.21-12.96.36-13-3.5.16-.37.52-3.64.5-4.5-.01-.45-.43-.5-.5-1,.66.08,1.36.31,2,.5,2.01.6,3.46,1.87,5.5,2.5.08.02.82.9,1.25,1,.4.1,1.66-.51,1.75-.5,11.69.8,6.22-.45,7.5-8.75.4-2.59,2.1-5.14,2.5-7.75,1.83-1.51,5.51-12.21,19-16Z"/>
            <path class="cls-56" d="m134.11,155.72c2.64,5.37.99,2.99-1.5,7-.83-3.24-3.14-1.45-3.75-2.25,3.95-3.46-1.41-3.13,5.25-4.75Z"/>
            <path class="cls-89" d="m127.11,164.72c1.19-.71,3.05,3.02,1,3-.39,0-1.82-2.51-1-3Z"/>
          </g>
          <g>
            <path class="cls-43" d="m158.36,165.22c.46,1.06.56,1.05,1,2.5h-.5c-1.64-1.95-3.08-2.64-5.5-3-2.11-.31-3.97.21-6,.5-9.77,1.41-16.23,6.78-17.5,17-4.64-17.06,15.35-27.81,28.5-17Z"/>
            <path class="cls-84" d="m160.86,182.22c.32,2.19-.95,2.85-1,3-2.35-10.22-20.14-9.3-25.5-2-.8.46-.91.94-1,1-.1.07-.92,1.46-1,1.5-.15.07-.63-.04-1,0v-1c.42-1.96.95-1.9,1-2,6.76-9.43,23.15-12.43,28.5-.5Z"/>
            <path class="cls-14" d="m159.86,185.22c-.43,1.3-.51,2.8-2,3.5-3.7-3.18-1.83-9.23-11-9.5-4.81-.14-8.45,1.68-12.5,4,5.36-7.3,23.15-8.22,25.5,2Z"/>
            <path class="cls-37" d="m160.86,182.22c-5.35-11.93-21.74-8.93-28.5.5,3.2-5.75,7.1-8.42,14-9,1.47-.12,3.02.01,4.5,0,5.61-.05,7.77,4.22,8-6h.5c.06.18,1.45,1.49,2,3.25l-.5,11.25Z"/>
            <path class="cls-106" d="m147.36,165.22c5.34.23-1.97,1.87-1,8.5-6.9.58-10.8,3.25-14,9-.05.1-.58.04-1,2-.01.05-1.31,1.98,0,1,.37-.04.85.07,1,0,.94.01,0,2.38,0,2.5-.36-.96-1.64,1.06-4,0v-6c1.47,1,2.42,1.68,1.5,0,1.27-10.22,7.73-15.59,17.5-17Z"/>
            <path class="cls-77" d="m158.86,167.72c-.23,10.22-2.39,5.95-8,6,2.04-3.96.42-8.1,2.5-9,2.42.36,3.86,1.05,5.5,3Z"/>
            <path class="cls-58" d="m153.36,164.72c-2.08.9-.46,5.04-2.5,9-1.48.01-3.03-.12-4.5,0-.97-6.63,6.34-8.27,1-8.5,2.03-.29,3.89-.81,6-.5Z"/>
          </g>
          <path class="cls-10" d="m131.36,185.72c-1.31.98-.01-.95,0-1v1Z"/>
        </g>
        <g>
          <path class="cls-8" d="m148.86,50.72c-5.05-19.79-18.12-35.1-37-43C71.43-9.19,17.05,10.62,11.86,55.72c-.88-13.15,10.12-30.51,20.25-39,40.51-33.93,111.14-13.05,116.75,34Z"/>
          <path class="cls-101" d="m18.86,105.22c1.36,3.27,2.99,7.11,5,10-.77,6.3,11.15,14.27,16.75,16.5,8.03,3.19,20.07,4.31,28.75,4.5-.4,1.96,3.57.52,4.25,1,.65.46-.15,2.54.5,3,.65.46,5.07,1.16,3-3.5,9.86-.91,2.82,2.76,10.25,3.5-11.95.77-28.66,1.42-40-2-2.2-.66-8.67-3.79-11-5-1.17-.61-2.19-2.34-4-2-7.44-10.5-9.01-10.69-14.5-26h1Z"/>
          <path class="cls-81" d="m141.36,80.72c-.8,9.94-.97,20.58,4,29.5-1.01.66-7.73,8.44-10,10.5-.1.09-.89.41-1,.5,1.94-2.62,2.48-5.65,1.5-9,1.7-3.27,7.3-16.81,2-15,.57-2.94,1.61-12.88,1.5-15.5l2-1Z"/>
          <path class="cls-74" d="m12.36,67.72c-.46,12.18,1.82,26.22,6.5,37.5h-1c-2.03.36-2.37-.51-2.5-.5-.83-1.25-.94-2.37-1-2.5l-4-20.5c-.03-6.01,1.16-10.52,1-14h1Z"/>
          <path class="cls-91" d="m134.36,62.72c6.79,22.93,5.42,45.35-14.5,61,.9-3.65,5.77-5.19,5.5-9,11.31-14.39,11.08-41.66,2.5-57.25-5.43-9.87-16.04-16.98-26-21.75l1-3.5c15.29,6.76,24.74,14.83,31.5,30.5Z"/>
          <path class="cls-89" d="m84.86,132.72c.68,3.53,2.49,1.06,4.5,2.5-6.64.87-13.31,1.15-20,1-8.68-.19-20.72-1.31-28.75-4.5-5.6-2.23-17.52-10.2-16.75-16.5,12.8,18.38,40.84,19.11,61,17.5Z"/>
          <path class="cls-106" d="m76.36,24.72c-2.08-.19-13.56-.9-14.25-.5-.58.33.08,1.67-.5,2-.9.52-5.1-1-4.75,1-15.09.84-34.75,7.2-41,22.5-1.17-4.39,4.76-11.49,8.25-14.5,7.25-6.25,14.26-6.92,21.25-11,3.66,1.73,5.51-.19,7.5-1,7.76,1.54,16.01-.92,23.5,1.5Z"/>
          <path class="cls-76" d="m76.36,24.72c10.17.94,17.31,3.44,26.5,7.5l-1,3.5c-14.45-6.92-28.97-9.39-45-8.5-.35-2,3.85-.48,4.75-1,.58-.33-.08-1.67.5-2,.69-.4,12.17.31,14.25.5Z"/>
          <path class="cls-76" d="m119.86,123.72c-1.29,1.01-3.02,1.61-4,3-8.28,4.49-17.2,7.28-26.5,8.5-2.01-1.44-3.82,1.03-4.5-2.5,14.64-1.17,30.99-5.9,40.5-18,.27,3.81-4.6,5.35-5.5,9Z"/>
          <g>
            <path class="cls-54" d="m148.86,50.72c.2,1.64.21,3.36.5,5-1.07.22-1.75.81-2.5,1.5-3.86-27.49-13.02-35.07-36-48.5.42-.24.98-.39,1-1,18.88,7.9,31.95,23.21,37,43Z"/>
            <path class="cls-74" d="m110.86,8.72c22.98,13.43,32.14,21.01,36,48.5-2.67,2.44-5.13,18.79-5.5,23-2.42-3.64.56-11.74-1.5-19.5,5.03.53,5.44-6.46,3.5-8-1.89-1.5-4.77-.94-6.5.5-3.98-14.44-15.32-27.1-29.5-32.75,1.01-1.89,1.69-11,2-11.5.33-.53,1.23-.09,1.5-.25Z"/>
          </g>
          <path class="cls-8" d="m52.86,23.22c-1.99.81-3.84,2.73-7.5,1,6.97-20.7,29.79-15.9,29-14.25-7.25,2.62-15.18,10.67-21.5,13.25Z"/>
          <path class="cls-19" d="m139.36,81.72c.11,2.62-.93,12.56-1.5,15.5-1.63,8.37-7.51,18.93-14,24.5-2.48,2.13-5.16,3.46-8,5,.98-1.39,2.71-1.99,4-3,19.92-15.65,21.29-38.07,14.5-61,2.22,5.14,4.78,13.59,5,19Z"/>
          <path class="cls-11" d="m143.36,52.72v.5c-1.6,1.05-4.41,3.9-5,5.5h-.5c-2.87-2.74-3.65-3.29-1-5.5,1.73-1.44,4.61-2,6.5-.5Z"/>
          <path class="cls-45" d="m139.86,60.72c-.16-.02-.36.04-.5,0v-.5c3.38-.36,3.9-4.26,4-7v-.5c1.94,1.54,1.53,8.53-3.5,8Z"/>
          <g>
            <path class="cls-3" d="m111.86,7.72c-.02.61-.58.76-1,1-.27.16-1.17-.28-1.5.25-.31.5-.99,9.61-2,11.5,14.18,5.65,25.52,18.31,29.5,32.75-2.65,2.21-1.87,2.76,1,5.5.09.09-.04,1.55,1.5,2,.14.04.34-.02.5,0,2.06,7.76-.92,15.86,1.5,19.5-.01.17.01.33,0,.5l-2,1c-.22-5.41-2.78-13.86-5-19-6.76-15.67-16.21-23.74-31.5-30.5-9.19-4.06-16.33-6.56-26.5-7.5-7.49-2.42-15.74.04-23.5-1.5,6.32-2.58,14.25-10.63,21.5-13.25.79-1.65-22.03-6.45-29,14.25-6.99,4.08-14,4.75-21.25,11-3.49,3.01-9.42,10.11-8.25,14.5-1.8,4.4-3.19,11.29-3.5,16-1.98-2.59-.86-6.83-.5-10C17.05,10.62,71.43-9.19,111.86,7.72Z"/>
            <path class="cls-54" d="m115.11,31.22c4.18.71,13.29,11.52,14,16-3.59-6.3-9.09-10.8-14-16Z"/>
            <path class="cls-16" d="m139.36,60.22v.5c-1.54-.45-1.41-1.91-1.5-2h.5l1,1.5Z"/>
          </g>
          <path class="cls-74" d="m134.36,121.22c-2.16,1.92-4.45,4.37-6.75,6-1.56,1.11-4.25,1.31-3.75,3-8.56,3.85-17.18,7.39-26.5,9-2.97.11-7.29,1.27-10,1-7.43-.74-.39-4.41-10.25-3.5,2.07,4.66-2.35,3.96-3,3.5-.65-.46.15-2.54-.5-3-.68-.48-4.65.96-4.25-1,6.69.15,13.36-.13,20-1,9.3-1.22,18.22-4.01,26.5-8.5,2.84-1.54,5.52-2.87,8-5,5.47,1.1,9.67-5.02,12-9.5.98,3.35.44,6.38-1.5,9Z"/>
          <g>
            <path class="cls-40" d="m138.86,127.22c-2.07,5.46-22.73,13.92-28.5,15.5-7.03,1.93-14.74,2.84-22,3.5-14.13,1.29-34.1,1.84-47-4.5,11.56,2.86-8.16-6.37-5-8.5,2.33,1.21,8.8,4.34,11,5,.32,2.69-2.88,1.7-.25,3,.87.43,18.01,3.94,19,4,3.26.21,29.63-3.14,31-4,1.22-.77.17-.97.25-2,9.32-1.61,17.94-5.15,26.5-9,3.94-1.78,12.78-4.45,13.5-8.5,1.91,1.53,2.34,3.3,1.5,5.5Z"/>
            <path class="cls-18" d="m135.36,136.72c-5.84,5.26-16.43,8.94-24,11-2.35.64-4.13,1.01-6.5,1.5-8.49,1.74-16.84,2.78-25.5,3-6.17.16-12.35.09-18.5-.5-3.2-.31-6.86-.8-10-1.5-1.34-.3-2.69-.41-3-.5-4.76-1.32-13.93-6.29-14.5-10.5,4.52,7.08,16.73,9.51,24.5,10.5,18.97,2.42,39.25-.02,57.5-5.5,8.77-2.63,17.65-5.52,24-12.5-.89,2.07-2.37,3.53-4,5Z"/>
            <path class="cls-97" d="m32.86,132.72c2.06,3.04-.05,4.8,8.5,9,12.9,6.34,32.87,5.79,47,4.5,1.54,1.85-3.87,2.65-7.75,3-7.47.66-15.28-.91-22.75.5-7.77-.99-19.98-3.42-24.5-10.5-.86-1.35-1.22-2.43-1.5-4-.13-.71-1.56-2.18,1-2.5Z"/>
            <path class="cls-111" d="m139.36,131.72c-6.35,6.98-15.23,9.87-24,12.5-1.47-1.1-2.74,2.05-5-1.5,5.77-1.58,26.43-10.04,28.5-15.5,2.74,1.52,1.3,2.64.5,4.5Z"/>
            <path class="cls-21" d="m36.36,133.22c-3.16,2.13,16.56,11.36,5,8.5-8.55-4.2-6.44-5.96-8.5-9-.04-.07.01-.77-.5-1.5,1.81-.34,2.83,1.39,4,2Z"/>
            <path class="cls-9" d="m137.36,121.72c-.72,4.05-9.56,6.72-13.5,8.5-.5-1.69,2.19-1.89,3.75-3,2.3-1.63,4.59-4.08,6.75-6,.11-.09.9-.41,1-.5.75.42,1.29.43,2,1Z"/>
            <path class="cls-34" d="m87.36,140.22c2.71.27,7.03-.89,10-1-.08,1.03.97,1.23-.25,2-1.37.86-27.74,4.21-31,4-.99-.06-18.13-3.57-19-4-2.63-1.3.57-.31.25-3,11.34,3.42,28.05,2.77,40,2Z"/>
            <path class="cls-71" d="m110.36,142.72c2.26,3.55,3.53.4,5,1.5-18.25,5.48-38.53,7.92-57.5,5.5,7.47-1.41,15.28.16,22.75-.5,3.88-.35,9.29-1.15,7.75-3,7.26-.66,14.97-1.57,22-3.5Z"/>
          </g>
          <path class="cls-74" d="m135.86,112.22c-2.33,4.48-6.53,10.6-12,9.5,6.49-5.57,12.37-16.13,14-24.5,5.3-1.81-.3,11.73-2,15Z"/>
          <g>
            <path class="cls-101" d="m10.86,65.22c-4.08,6.95-5.63,12.39-5,20.5-1.67,7.17,2.49,13.59,6,19.5-14.63-3.23-14.04-34.57-1-40Z"/>
            <g>
              <path class="cls-89" d="m11.36,67.72c.16,3.48-1.03,7.99-1,14,.02,4.69.2,6.45,1,11-2.2.92-.04,4.74-1.5,6.5-2.41-4.67-3.59-8.22-4-13.5-.63-8.11.92-13.55,5-20.5.79-.05.44,1.14.5,2.5Z"/>
              <path class="cls-73" d="m14.36,102.22c.06.13.17,1.25,1,2.5-.64.04-.93,1.05-1.5,1-1.3-2.24-2.8-4.18-4-6.5,1.46-1.76-.7-5.58,1.5-6.5.68,3.87,1.36,5.95,3,9.5Z"/>
              <path class="cls-19" d="m9.86,99.22c1.2,2.32,2.7,4.26,4,6.5-.71-.06-1.3-.34-2-.5-3.51-5.91-7.67-12.33-6-19.5.41,5.28,1.59,8.83,4,13.5Z"/>
              <path class="cls-24" d="m14.36,102.22c-1.64-3.55-2.32-5.63-3-9.5-.8-4.55-.98-6.31-1-11l4,20.5Z"/>
            </g>
          </g>
          <g>
            <path class="cls-81" d="m162.36,66.22c-4.34-7.03-3.79-1.32-4-1-.59.91-1.29.25-1.5.75-.59,1.39-.75,3.97-1,4.75-.29.92-.91,2.59-1,3-1.62,7.31-2.18,13.41-1,21,.16,1.02.15,1.8.5,3,2.26,7.66,4.07,4.01,8,0-.97,3.19-1.5,4.32-3.5,7-9.77-4.37-2.23-15.48-9.5-17.5.37-9.25,2.81-16.51,4.5-25,3.89.53,9.78.43,4.5-3.5l1-.5c5.62,4.56,5.13,16.87,3,8Z"/>
            <path class="cls-18" d="m149.36,55.72c3.41-.69,7.29.31,10,2.5l-1,.5c-2.57-1.92-6.08-2.75-8.5-1-6.29,4.53-7.45,27.67-7,35,.13,2.13.68,3.94,1,6,.47,2.97.67,3.34,1.5,6,.29.92.29,2.74,1.5,4.5-.09.03-.23.6-1.5,1-4.97-8.92-4.8-19.56-4-29.5.01-.17-.01-.33,0-.5.37-4.21,2.83-20.56,5.5-23,.75-.69,1.43-1.28,2.5-1.5Z"/>
            <path class="cls-81" d="m158.86,104.72c-1.17,1.57-.54.86-2,2-3.21.61-3.25-.81-5-2.5-2.9-4.86-2.62-10.6-2.5-16,0-.33-.01-.67,0-1,7.27,2.02-.27,13.13,9.5,17.5Z"/>
            <path class="cls-10" d="m151.86,104.22c1.75,1.69,1.79,3.11,5,2.5-1.17.91-.63,1.35-3,2l-3.75-4.5.75,5c-1.47.33-2.19-.61-4,0-1.21-1.76-1.21-3.58-1.5-4.5l4-4.5c.33.91.54,2.49,1,3.25.61,1,1.44.69,1.5.75Z"/>
            <path class="cls-18" d="m162.86,94.22c-.31,1.46-.41,3.21-.5,3.5-3.93,4.01-5.74,7.66-8,0,3.29,4.52,6.98-.38,8-4l.5.5Z"/>
            <path class="cls-75" d="m162.86,94.22l-.5-.5c.2-.7,1.01-.83-.5-1.5,2.52-6.54.46-7.1.5-7.5,4.03-1.63,1.33,5.52.5,9.5Z"/>
            <path class="cls-78" d="m162.86,81.72c.06-1.79.64-3.29.5-6-.03-.5.04-1.01,0-1.5,1.98-1,2.79,9.7-.5,7.5Z"/>
            <path class="cls-107" d="m162.36,66.22l-1,.5c-.31-.44-2.23-1.55-3-1.5.21-.32-.34-6.03,4,1Z"/>
            <path class="cls-21" d="m153.86,108.72c-1.17.32-1.96.27-3,.5l-.75-5,3.75,4.5Z"/>
            <path class="cls-93" d="m153.86,62.22c-1.69,8.49-4.13,15.75-4.5,25-.01.33,0,.67,0,1-1.35-.79-1.07,7.36-2,3.25-1.4-6.19,1.08-24.87,4.5-30.25.63-.99,1.25-2.72,2.75-2.5.81.52-.62,2.87-.75,3.5Z"/>
            <path class="cls-81" d="m158.36,58.72c5.28,3.93-.61,4.03-4.5,3.5.13-.63,1.56-2.98.75-3.5-1.5-.22-2.12,1.51-2.75,2.5l-1.5-.5c.22-1.16.85-2.18-.5-3,2.42-1.75,5.93-.92,8.5,1Z"/>
            <path class="cls-106" d="m150.36,60.72c-1.55,8.06-4.02,16.22-5.5,24.25-.38,2.05.74,8.27-2,7.75-.45-7.33.71-30.47,7-35,1.35.82.72,1.84.5,3Z"/>
            <path class="cls-70" d="m151.86,61.22c-3.42,5.38-5.9,24.06-4.5,30.25.93,4.11.65-4.04,2-3.25-.12,5.4-.4,11.14,2.5,16-.06-.06-.89.25-1.5-.75-.46-.76-.67-2.34-1-3.25-.54-1.49-.65-6.22-1.75-6.5-1.88-.48-2.59,4.97-3.75,5-.32-2.06-.87-3.87-1-6,2.74.52,1.62-5.7,2-7.75,1.48-8.03,3.95-16.19,5.5-24.25l1.5.5Z"/>
            <path class="cls-26" d="m149.36,100.22l-4,4.5c-.83-2.66-1.03-3.03-1.5-6,1.16-.03,1.87-5.48,3.75-5,1.1.28,1.21,5.01,1.75,6.5Z"/>
            <g>
              <path class="cls-38" d="m163.36,75.72c.14,2.71-.44,4.21-.5,6-.06,1.71-.43,2.25-.5,3-3.44,1.39-.83,4.11-1,4.75-1.22,4.66-5.34,9.46-7,1.25,6.57,4,.76-2.96,6-5.75-1.04-2.66,2.36-6.46,2-9.25h1Z"/>
              <path class="cls-35" d="m161.36,66.72c.16.23,1.31,3.7,1.5,4.5-1.2.94-1.42-.32-2-1.5-.41-.82.26-6.99-5,1,.25-.78.41-3.36,1-4.75.21-.5.91.16,1.5-.75.77-.05,2.69,1.06,3,1.5Z"/>
              <path class="cls-20" d="m162.86,71.22c.08.34.47,2.7.5,3,.04.49-.03,1,0,1.5h-1c-.11-.87-.86-1.48-1.5-2-.15-.12-.74-.43-1-.5.11-1.23-.32-2.61,1-3.5.58,1.18.8,2.44,2,1.5Z"/>
              <path class="cls-42" d="m160.86,69.72c-1.32.89-.89,2.27-1,3.5-.21,2.34-.78,3.94,1,.5.64.52,1.39,1.13,1.5,2,.36,2.79-3.04,6.59-2,9.25-5.24,2.79.57,9.75-6,5.75-1.05-5.2-.08-11.77.5-17,.09-.41.71-2.08,1-3,5.26-7.99,4.59-1.82,5-1Z"/>
              <path class="cls-35" d="m154.36,90.72c1.66,8.21,5.78,3.41,7-1.25.17-.64-2.44-3.36,1-4.75-.04.4,2.02.96-.5,7.5-1.65,4.27-5.33,8.51-8,2.5-1.18-7.59-.62-13.69,1-21-.58,5.23-1.55,11.8-.5,17Z"/>
              <path class="cls-94" d="m162.36,93.72c-1.02,3.62-4.71,8.52-8,4-.35-1.2-.34-1.98-.5-3,2.67,6.01,6.35,1.77,8-2.5,1.51.67.7.8.5,1.5Z"/>
              <path class="cls-62" d="m160.86,73.72c-1.78,3.44-1.21,1.84-1-.5.26.07.85.38,1,.5Z"/>
            </g>
          </g>
          <path class="cls-41" d="m143.36,53.22c-.1,2.74-.62,6.64-4,7l-1-1.5c.59-1.6,3.4-4.45,5-5.5Z"/>
        </g>
        <g>
          <g>
            <path class="cls-40" d="m46.86,176.22c.03.75-.61.4-1,.5-3.77.96-3.32,0-6,4.5-.51-5.82-1.34-8.93-5-13.5-2.09-2.61-2.38-1.89-2.5-2-4.13-3.89-5.59-4.96-11-7-2.45-.92-4.82-1.95-7.5-2,2.8-4.1,5.86-7.25,9-11,2.28,2.1-1.75,3.41-2.25,6.5,1.5-.37,9.41-6.66,6.5-7.5-.75-.22-1.07,1.58-3.75,0,1.61-1.89,3.41-3.6,5-5.5,1.97,12.72,19.64,20.54,16,34.75.63,1.14,2.05-1.65,2.75-1.25.15.09-.49,2.02-.25,3.5Z"/>
            <path class="cls-98" d="m22.86,145.72s-.17-.21.5-1c2.68,1.58,3-.22,3.75,0,2.91.84-5,7.13-6.5,7.5.5-3.09,4.53-4.4,2.25-6.5Z"/>
            <path class="cls-53" d="m28.11,152.22c2.01,3.85-.51,6.64-3.75,3.25,1.49-4.93,1-.73,3.75-3.25Z"/>
            <path class="cls-89" d="m33.61,161.22c.24-.11,4.65,1.55,1.5,3-2.27,1.05-2.61-2.5-1.5-3Z"/>
          </g>
          <g>
            <path class="cls-76" d="m25.36,165.22c1.09.73,4.24,4.12,5.5,5.5-1.17,2.15-4.99,2.48-4.5,3.5-2.56-2.06-6.35-3.49-9.5-4-3.91-.63-7.44-1.13-10.5,2,.18-.66-.17-1.81,0-2.5,5.98-1.25,10.32-.7,9.5-8,3.41.32,6.67,1.61,9.5,3.5Z"/>
            <path class="cls-69" d="m21.36,158.72l4,6.5c-2.83-1.89-6.09-3.18-9.5-3.5-1.8-.17-3.69.12-5.5,0,2.29-4,3.33-4.75,3.5-5,2.68.05,5.05,1.08,7.5,2Z"/>
            <path class="cls-106" d="m15.86,161.72c.82,7.3-3.52,6.75-9.5,8,.83-3.33,2.39-5.19,4-8,1.81.12,3.7-.17,5.5,0Z"/>
            <path class="cls-56" d="m16.36,170.72c2.87.53,5.14,1.88,7.5,3.5l-1,1.5c-5.31-3.36-12.23-4.47-17,.5-.28-3.27.46-2.85.5-3,3.56-3,5.59-3.32,10-2.5Z"/>
            <path class="cls-14" d="m22.86,175.72c.14.09,2.35,1.85,2.5,2,2.04,2.03,3.13,5.06,4.5,7.5l-1.5-.75-.5,2.75c-.2-1.32-.4-1.57-.5-2-.1-.4,2.15-.9-3-6-2.29-2.27-4.31-3.8-7.5-4.5-4.67-1.03-6.99-.3-11,2v-.5c4.77-4.97,11.69-3.86,17-.5Z"/>
            <path class="cls-36" d="m16.86,170.22l-.5.5c-4.41-.82-6.44-.5-10,2.5.08-.28-.08-.72,0-1,3.06-3.13,6.59-2.63,10.5-2Z"/>
            <path class="cls-50" d="m32.36,165.72l-.5,5.5s-.31.25-1-.5c-1.26-1.38-4.41-4.77-5.5-5.5l-4-6.5c5.41,2.04,6.87,3.11,11,7Z"/>
            <path class="cls-109" d="m39.86,181.22c-.37.61-.96,1.42-1,1.5l-2.5-4.5c-.71-1.56-2-3.61-3-5,2.12-1.25.11-4.13,1.5-5.5,3.66,4.57,4.49,7.68,5,13.5Z"/>
            <path class="cls-108" d="m34.86,167.72c-1.39,1.37.62,4.25-1.5,5.5-.37-.52-1.15-1.58-1.5-2l.5-5.5c.12.11.41-.61,2.5,2Z"/>
            <path class="cls-9" d="m30.86,170.72c.69.75.96.46,1,.5.35.42,1.13,1.48,1.5,2,1,1.39,2.29,3.44,3,5,.87,1.9,1.36,3.91,1.5,6-.18,0-2.67,1.29-3.25,1.5-2.06-3.21-5.43-9.23-8.25-11.5-.49-1.02,3.33-1.35,4.5-3.5Z"/>
            <path class="cls-84" d="m26.36,176.22l-1,1.5c-.15-.15-2.36-1.91-2.5-2l1-1.5c1.03.71,1.58,1.1,2.5,2Z"/>
            <path class="cls-23" d="m29.86,185.22c-1.37-2.44-2.46-5.47-4.5-7.5l1-1.5c3.2,3.15,5.38,6.75,5.5,11.25-1.98,1.11-1.37-1.13-2-2.25Z"/>
            <path class="cls-45" d="m38.86,182.72c-.05.09.07.74-.5,1.5-.17,0-.33,0-.5,0-.14-2.09-.63-4.1-1.5-6l2.5,4.5Z"/>
          </g>
        </g>
        <path class="cls-63" d="m92.36,192.72c-7.06,3.92-9.27,9.31-15,8-2.78-.64-5.77-4.73-6,0-1.25-.36-2.48-2.11-3-2.5,2.73-.79.58-.99-2-5,.16,0,2.64-1.01,3-1,.4,0-1.78,1.52,7.25,1,4.33-1.02,8.18-2.78,12.25-4.5.35-.15,1-.05,1.5-.5.42,1.63,1.11,3.08,2,4.5Z"/>
        <path class="cls-63" d="m94.86,156.72c-2.22,1.18-3.36-1.61-3,4-.85.08-4.28-7.39-4-7.75.15-.19,4.57-.9,4.75-.75.45.38-.62,1.5,2.25,4.5Z"/>
        <path class="cls-99" d="m78.86,156.22c2.63.58,6.09,1.56,6,4-1.5-.31-3.01-.69-4.5-1-2.17-.46-4.43-.61-6.5-1.5.03-.04-1.2-.3-.25-1,3-2.22,4.8-.6,5.25-.5Z"/>
        <path class="cls-66" d="m90.36,185.72c-1.14,2.75-2.03,1.36-4.5,1.5-.06-.39-1.7-.76-1-2.75.3-.85,3.46-3.83,5.5,1.25Z"/>
        <path class="cls-86" d="m75.36,191.22c-.06.04.18.91-.25,1-.94.2-4.11.02-5.75,0-1.03-.01-5.86-.28-4.5-1.5,3.48.44,7,.6,10.5.5Z"/>
        <path class="cls-32" d="m84.86,160.22c0,.18-.59,1.23-.75,3.5l-3.75-4.5c1.49.31,3,.69,4.5,1Z"/>
        <path class="cls-19" d="m90.36,188.22c-.5.45-1.15.35-1.5.5h-3.75c-.96-1.93.77-1.39.75-1.5,2.47-.14,3.36,1.25,4.5-1.5.94,2.35-.03,2.38,0,2.5Z"/>
        <g>
          <path class="cls-58" d="m100.86,164.22c-.75-.67-3.26-1.49-3.75-1.5-6.56-.16-8.81,3.88-7.25,10-.32.13-.99,1.89-1,2-2.25-5.46-2.36-11.06,3.5-14,3.59-.09,7.11-.61,8.5,3.5Z"/>
          <g>
            <path class="cls-13" d="m100.86,164.22c2.36,2.11,2.62,4.66,3,7.5.07.5.49.55.5,1-1.24,1.36-1.91,5.32-4.75,6.5-4.39,1.83-8.71-2.42-9.75-6.5-1.56-6.12.69-10.16,7.25-10,.49.01,3,.83,3.75,1.5Z"/>
            <path class="cls-73" d="m104.36,172.72c.02.86-.34,4.13-.5,4.5-1.32,2.99-9.72,9.41-15-2-.01-.16-.01-.34,0-.5,0-.11.68-1.87,1-2,1.04,4.08,5.36,8.33,9.75,6.5,2.84-1.18,3.51-5.14,4.75-6.5Z"/>
            <path class="cls-40" d="m96.11,168.72c2.39-.6,4.92,1.53,3.25,4.25-2.44,3.96-7.32-3.22-3.25-4.25Z"/>
          </g>
        </g>
        <path class="cls-92" d="m66.36,193.22c2.58,4.01,4.73,4.21,2,5-3.72-2.78-7.11-5.72-7.5-6,1.73.02,3.92.9,5.5,1Z"/>
        <path class="cls-74" d="m64.36,190.72c.16.02.34-.02.5,0-1.36,1.22,3.47,1.49,4.5,1.5-.36,0-2.84,1.01-3,1-1.58-.1-3.77-.98-5.5-1-1.38-.99-2.66-2.03-4-3,2.57-.03,5.03,1.14,7.5,1.5Z"/>
        <g>
          <path class="cls-82" d="m110.86,150.72c.12,0,.58.49,2.5,0l-5.5,8h-1c-.42-.36-.36-1.1-.5-1.5.29-5.47-1.56-5.31,3-6.5.07-.02.32.09,1.5,0Z"/>
          <path class="cls-86" d="m119.36,154.22c-.24.43-.8,1.54-1,2-2.31,1.09-6.17,2.24-6.75,4.5-2.78-2.26-3.05-.9-3.25-1-.42-.21-1.09-.65-1.5-1h1c8.42,0,6.41-2.72,6-5l5.5.5Z"/>
          <path class="cls-93" d="m108.86,149.72l.5,1c-4.56,1.19-2.71,1.03-3,6.5-.62-1.75-1.07-4.53,0-7,.39-.02.34-.54,2.5-.5Z"/>
          <path class="cls-31" d="m113.86,153.72c.41,2.28,2.42,5-6,5l5.5-8v-.5c1.01.08.24,2.02.5,3.5Z"/>
          <path class="cls-47" d="m111.36,149.72l-.5,1c-1.18.09-1.43-.02-1.5,0l-.5-1c.76.02.33-.65,2.5,0Z"/>
          <path class="cls-71" d="m113.36,150.22v.5c-1.92.49-2.38,0-2.5,0l.5-1c.41.12,1.1-.21,2,.5Z"/>
        </g>
        <g>
          <g>
            <path class="cls-27" d="m157.86,188.72c-.91,1.41.96,4.21,1,7l-4,.5c.62-2.38,1.66-9.77-1.5-7.5-1.48-3.23-6.06-6.28-6.5-9.5,9.17.27,7.3,6.32,11,9.5Z"/>
            <path class="cls-22" d="m158.86,195.72c.1,6.48-2.74,7.23-3,8.5-.92-1.77-1.49.55-6,0,1.72-1.83,4.43-5.78,5-8l4-.5Z"/>
            <path class="cls-68" d="m146.86,179.22c.44,3.22,5.02,6.27,6.5,9.5-.66.47-.21-.28-1.5,1.5-1.21,1.67-1.31,3-3.5,5.5-3.42-.77-4.72,2.23-7.5,3.5-.1-.08-1.05.16-1-.25.09-.74,7.57-3.99,6.25-12.75-.31,4.31-5.51,13.32-9.75,11,.79-1.44,2.55-4.12,1.5-5,.76-1.75,1.9-4.63,1.5-6.5-1.46-6.76-5.22,3.31-7,4.5,0-.66-.05-1.34,0-2,0-.12.94-2.49,0-2.5.08-.04.9-1.43,1-1.5.61.02.76-.68,1-1,4.05-2.32,7.69-4.14,12.5-4Z"/>
            <path class="cls-68" d="m154.86,196.22c-.57,2.22-3.28,6.17-5,8-.15-.02-.9-.32-1.5-.5,1.23-4.6,4.24-8.44,3.5-13.5,1.29-1.78.84-1.03,1.5-1.5,3.16-2.27,2.12,5.12,1.5,7.5Z"/>
            <path class="cls-47" d="m148.36,203.72c-1.7-.52-4.48-2.13-4.5-4,1.63-.54,3.37-2.71,4.5-4,2.19-2.5,2.29-3.83,3.5-5.5.74,5.06-2.27,8.9-3.5,13.5Z"/>
            <path class="cls-83" d="m148.36,195.72c-1.13,1.29-2.87,3.46-4.5,4-1.71.57-1.45.79-3-.5,2.78-1.27,4.08-4.27,7.5-3.5Z"/>
            <path class="cls-100" d="m136.36,197.22c-1.74-.95-.86-1.45-1-1.5,1.13-.8,1.97-2.27,2.5-3.5,1.05.88-.71,3.56-1.5,5Z"/>
            <path class="cls-110" d="m134.36,183.22c-.24.32-.39,1.02-1,1,.09-.06.2-.54,1-1Z"/>
            <path class="cls-64" d="m139.36,185.72c-1.84,1.24-4.47,7.52-7,7,0-.83,0-1.67,0-2.5,1.78-1.19,5.54-11.26,7-4.5Z"/>
          </g>
          <g>
            <path class="cls-100" d="m16.86,174.72c-1.68,4.05-9.52,11.03-10.5,12.75-1.67,2.92-.35,5.07-2,4.75-.19-1.33.13-2.88,0-4.25h-1c-.26,3.45.28,6.83.5,10.25-8.45.96-.81-15.17,2-21.5,4.01-2.3,6.33-3.03,11-2Z"/>
            <path class="cls-64" d="m24.36,179.22c-1.26,1.4-5.23,1.22-4,3-4.65-.49-4.85,5.52-6.5,5.5l-.5,6.75c.42.93,1.1,5.66,1,6-2.23,7.8-5.97-10.82-6.5-11.5-.15,5.18,3.05,11.51,1,12.75-4.13-3.33-3.72-3.91-4.5-9.5,1.65.32.33-1.83,2-4.75.98-1.72,8.82-8.7,10.5-12.75,3.19.7,5.21,2.23,7.5,4.5Z"/>
            <path class="cls-18" d="m13.86,187.72c.19,1.31,3.14,16.89,5.5,11.75.21-.46-.07-5.09,0-6.75l5-1.5c.25,2.15,1.7,4.08,3.25,5.5l1.25-.25c.1-.05-.09-1.2,0-1.25.12-.06.91-.12,2.5-1-2.38,8.83-6.19,1.18-6.75,1-4.74-1.47.72,9.39-8.5,6.5-3.38,5.17-5.49,1.42-7.25,0,2.05-1.24-1.15-7.57-1-12.75.53.68,4.27,19.3,6.5,11.5.1-.34-.58-5.07-1-6l.5-6.75Z"/>
            <path class="cls-80" d="m27.36,185.22c-3.06.85-3.32,3.22-3,6l-5,1.5c.04-.99-1.58-7.37,1.25-7,.41.05,5.21,7.86,2.75-.75-.28-.97-1.98-2.64-3-2.75-1.23-1.78,2.74-1.6,4-3,5.15,5.1,2.9,5.6,3,6Z"/>
            <path class="cls-100" d="m27.36,185.22c.1.43.3.68.5,2,.4,2.66,1.15,5.28,1,8-.09.05.1,1.2,0,1.25l-1.25.25c-1.55-1.42-3-3.35-3.25-5.5-.32-2.78-.06-5.15,3-6Z"/>
            <path class="cls-100" d="m20.36,182.22c1.02.11,2.72,1.78,3,2.75,2.46,8.61-2.34.8-2.75.75-2.83-.37-1.21,6.01-1.25,7-.07,1.66.21,6.29,0,6.75-2.36,5.14-5.31-10.44-5.5-11.75,1.65.02,1.85-5.99,6.5-5.5Z"/>
          </g>
          <g>
            <path class="cls-40" d="m101.86,35.72c9.96,4.77,20.57,11.88,26,21.75,8.58,15.59,8.81,42.86-2.5,57.25-9.51,12.1-25.86,16.83-40.5,18-20.16,1.61-48.2.88-61-17.5-2.01-2.89-3.64-6.73-5-10-4.68-11.28-6.96-25.32-6.5-37.5.03-.66-.04-1.34,0-2,.31-4.71,1.7-11.6,3.5-16,6.25-15.3,25.91-21.66,41-22.5,16.03-.89,30.55,1.58,45,8.5Z"/>
            <g>
              <g>
                <path class="cls-9" d="m37.11,34.22c.35-.07,1.11-.11,1.25.25-19.61,18.18-16.27,48.97-7,71.5.02.05-.74.45-.5,1,1.36,3.14,7.65,11,8.25,14.25-21.67-10.9-26.44-61.11-12.75-78.75,1.88-2.43,9.54-8.02,10.75-8.25Z"/>
                <path class="cls-85" d="m61.36,36.72c-14.67-.87,2.74,1.97,5,6-7.11-1.39-15.65-8.76-20-1.5-6.96-2,5.16-9.29,15-4.5Z"/>
                <path class="cls-9" d="m66.36,42.72c3.03,2.75-6.63-1.17-9.75-1.5-3.65-.38-6.46,1.09-10.25,0,4.35-7.26,12.89.11,20,1.5Z"/>
                <path class="cls-85" d="m61.36,36.72c.32.15,1.16-.27,1.5.25-1.4.83-1.42-.25-1.5-.25Z"/>
              </g>
              <g>
                <path class="cls-6" d="m87.36,48.72c.52,4.08-.66,8.18.5,12.25,1.19,4.19,4.81,5.18,7,6.75-2.8-.38-6.78-.78-9,1.75,4.22.09,7.84.39,12,1.25-1.21,4.96-19.64,8-12,11.5-4.45,2.92-7.26,7.07-6,12.5.07.3.9,2.88,1,3l-5,3c-3.07-.04-3.24-7.55-13.75-5.5-4.5.88-3.38,5.68-7.75,0,1.56-5.95-10.69-14.15-18.5-5.25-.96,1.1-1.97,4.67-2.25,4.75-.29.08-5.33-4.49-.75,1-1.36-.18-.94.57-1,1.5-3.24-4.64-3.54-11.55-4-17,1.51.27,2.37-.91,3.5-1.5,3.3-1.74,6.79-3.1,10-5,5.1-.27,10.07-.7,15.25-2,16.04-4.03,21.19-6.93,21.25-24.5,1.09.13,2.61.14,2.5-.5,2.32.47,4.68,1.55,7,2Z"/>
                <path class="cls-100" d="m75.86,100.72c1.55,1.4-3.27,5.18-4,3-.9-3.93-4.9-2.14-6.25,1-3.6-3.28-10.03-.28-5.75,1.5.19.08,1.64.28,4,1,.14.04,2.19,1.49,2.5,1.5.97,1.08,1.11,3.46.5,4.5-1.87,3.17-7.42,1.25-7.75,1.5-2.4,1.82,1.54,1.89,2.25,2-.02,1.87-2.22,2.91-3,4-1.19,1.66-3.32,2.11,1,5-.86,0-4.5-.29-4.5.75,0,1.29,4,.02,2.5,1.75-14.64-2.67-26.43-15.57-25.5-31,.06-.93-.36-1.68,1-1.5,1.06,1.27,2.65,2.09,4,3,.46.31,2.35,2.78,3.25,3,.8.2,10.85.64,8.75-1.5,1.87-.55,4.96-2.96,5.5-5,4.37,5.68,3.25.88,7.75,0,10.51-2.05,10.68,5.46,13.75,5.5Z"/>
                <path class="cls-46" d="m107.86,52.22c1.76,2.23,7.25,1.12,11.5,6.75,6.91,9.16,5.29,26.24,2.5,36.75l-20.5,24.25v1.25c-3.37,1.73-6.24,3.15-10,4,2.43-3.81,7.36-5.07,10.75-8,3.76-3.25,12.99-14.56,13.25-19.25.41-7.32-3.17-4.56-7.5-5.75,2.05-.87,2.65-3.97,2.5-5.5-.04-.39-.33-.54-.5-1-1.59-4.32-5.19-5.52-2-7.75.84-1.62-2.94-5.12-4-5.75v-.5c.69.24,1.46.99,2.5.25-.97-6.4-.47-14.17-2.5-19.75,3.39.54,3.8-.03,4,0Z"/>
                <path class="cls-90" d="m77.86,47.22c-.06,17.57-5.21,20.47-21.25,24.5-5.18,1.3-10.15,1.73-15.25,2-1.86.1-5.97-2.43-10,5-1.13.59-1.99,1.77-3.5,1.5-.78-9.28-1.28-15.57,2-24.5,2.27-.33.98,5.87,4.25,8,6.4,4.16,37.84-5.58,36.25-17.5,2.48.08,5.05.7,7.5,1Z"/>
                <path class="cls-98" d="m70.36,46.22c1.59,11.92-29.85,21.66-36.25,17.5-3.27-2.13-1.98-8.33-4.25-8,2.15-5.87,3.6-7.68,8.5-11.5-.14,2.39,2.32-.33,5.25,0,1.58.18,5.67,2.26,8,2.5,4.74.49,11.86-.73,18.75-.5Z"/>
                <path class="cls-15" d="m82.86,128.72c1.34-1.65,2.96-.12,2-2.5.16-.01.56-.67,3-1,1.09-.15,2.6.2,3.5,0,3.76-.85,6.63-2.27,10-4,11.57-5.92,17.16-12.94,20.5-25.5,2.79-10.51,4.41-27.59-2.5-36.75-4.25-5.63-9.74-4.52-11.5-6.75,1.46.2,3.33-.22,4.75,0,17.91,2.81,18.73,41.89,6.75,58.75-8.26,11.63-22.93,16.41-36.5,17.75Z"/>
                <path class="cls-61" d="m103.86,52.22c2.03,5.58,1.53,13.35,2.5,19.75-1.04.74-1.81-.01-2.5-.25-2.16-.74-3.32-3.24-9-4-2.19-1.57-5.81-2.56-7-6.75-1.16-4.07.02-8.17-.5-12.25,5.54,1.09,10.89,2.6,16.5,3.5Z"/>
                <path class="cls-68" d="m59.36,125.72c6.42,0,19.5,1.04,25.5.5.96,2.38-.66.85-2,2.5-7.97.78-17.66.93-25.5-.5,1.5-1.73-2.5-.46-2.5-1.75,0-1.04,3.64-.75,4.5-.75Z"/>
                <path class="cls-46" d="m80.36,46.72c.11.64-1.41.63-2.5.5-2.45-.3-5.02-.92-7.5-1-6.89-.23-14.01.99-18.75.5-2.33-.24-6.42-2.32-8-2.5-2.93-.33-5.39,2.39-5.25,0,2.54-1.98,3.61.68,3.25-5,4.14,10.13,17.01,4.88,25,5,4.47.07,9.36,1.62,13.75,2.5Z"/>
                <path class="cls-61" d="m103.86,72.22c1.06.63,4.84,4.13,4,5.75-3.19,2.23.41,3.43,2,7.75-5.85-3.8-11.44-7.61-18.75-6.5-1.04.7-.67,1.47-.75,1.5-.91.31-4.3,1.37-4.5,1.5-7.64-3.5,10.79-6.54,12-11.5,1.53.32,4.75.75,6,1.5Z"/>
                <path class="cls-90" d="m87.36,98.72c-.05.48-.54.91-1,1-.68.13-1.53-.08-2.25,0l-11.5,11.5-4.25,2.5c-.09-.05-.74.07-1.5-.5.61-1.04.47-3.42-.5-4.5.16,0,.34.02.5,0,1.32-.14,3.18-1.84,4-3,.09-.12.88-.02,1-1.5.01-.15.03-.36,0-.5.73,2.18,5.55-1.6,4-3l5-3c.05.06.74.27,1.25,1,1.75.02,3.5-.03,5.25,0Z"/>
                <path class="cls-47" d="m94.86,67.72c5.68.76,6.84,3.26,9,4v.5c-1.25-.75-4.47-1.18-6-1.5-4.16-.86-7.78-1.16-12-1.25,2.22-2.53,6.2-2.13,9-1.75Z"/>
                <path class="cls-39" d="m41.36,73.72c-3.21,1.9-6.7,3.26-10,5,4.03-7.43,8.14-4.9,10-5Z"/>
                <path class="cls-6" d="m86.36,99.72c-.21,3.08-3.86,5.57-3,8.75.27,1,6.12,5.15,6.75,3.25.64.5-.02,2.38.25,3-1.53-.27-1.48,1.55-2,2-3.67,3.19-26.98,12.42-30,4,.78-1.09,2.98-2.13,3-4,.63.1,2.44.11,3,0,.58,1.14,1.81,2.11,3,2.5,1.07.35,2.09.84,3.25.5,3.01-.89.8-1.84.75-2-.23-.78.4-.95.5-1.5.32,0,3.43-1.3,6.25-1,3.89,4.2-.6-2.28-1.5-2.5-1.45-.35-3.48,3.52-8.25,1l4.25-2.5,11.5-11.5c.72-.08,1.57.13,2.25,0Z"/>
                <path class="cls-61" d="m87.86,125.22c-2.44.33-2.84.99-3,1-6,.54-19.08-.5-25.5-.5-4.32-2.89-2.19-3.34-1-5,3.02,8.42,26.33-.81,30-4,2.41.6-.23,1.83,4,1.25-2.63,3.95,2.09.92,2,2.5-.08,1.52-6.11,3.08-6.5,4.75Z"/>
                <path class="cls-17" d="m71.86,116.22c-1.64-.04-3.5-1.64-4.75-1.5-1.03.39-2.11,1.87-2.75,2-.56.11-2.37.1-3,0-.71-.11-4.65-.18-2.25-2,.33-.25,5.88,1.67,7.75-1.5.76.57,1.41.45,1.5.5,4.77,2.52,6.8-1.35,8.25-1,.9.22,5.39,6.7,1.5,2.5-2.82-.3-5.93,1.01-6.25,1Z"/>
                <path class="cls-100" d="m71.86,103.72c.03.14.01.35,0,.5-2.03-1.56-2.23-1.36-3.5,0-1.19,1.27-1.25,2.91-1.5,4.5-.16.02-.34,0-.5,0-.31-.01-2.36-1.46-2.5-1.5,3.12-.98-3.53-5.62-4-1-4.28-1.78,2.15-4.78,5.75-1.5,1.35-3.14,5.35-4.93,6.25-1Z"/>
                <path class="cls-28" d="m63.86,107.22c-2.36-.72-3.81-.92-4-1,.47-4.62,7.12.02,4,1Z"/>
                <path class="cls-51" d="m91.36,125.22c-.9.2-2.41-.15-3.5,0,.39-1.67,6.42-3.23,6.5-4.75.09-1.58-4.63,1.45-2-2.5-4.23.58-1.59-.65-4-1.25.52-.45.47-2.27,2-2,2.13,4.87,2.95-6.85,5-9.75,2-2.83,11.72-7.23,12-11.75.02-.33,0-.67,0-1,.14.05.34-.04.5,0,4.33,1.19,7.91-1.57,7.5,5.75-.26,4.69-9.49,16-13.25,19.25-3.39,2.93-8.32,4.19-10.75,8Z"/>
                <path class="cls-88" d="m101.36,121.22v-1.25l20.5-24.25c-3.34,12.56-8.93,19.58-20.5,25.5Z"/>
                <g>
                  <path class="cls-102" d="m101.86,87.72c-1.86,6.88.28,4.15,5,5.5-6.48,3.63-11.95,5.62-19.5,5.5-1.75-.03-3.5.02-5.25,0-.51-.73-1.2-.94-1.25-1-.1-.12-.93-2.7-1-3,.88-11.08,6.64-10.87,5.5-7.25-.16.51-6.52,4.35-.75,8.75,6.46,4.93,19.61-3.25,14-11.5.8-.36,2.72,2.53,3.25,3Z"/>
                  <g>
                    <path class="cls-40" d="m110.36,86.72c.15,1.53-.45,4.63-2.5,5.5-.16-.04-.36.05-.5,0-2.02-.72-3.92-3.09-5.5-4.5-.53-.47-2.45-3.36-3.25-3,5.61,8.25-7.54,16.43-14,11.5-5.77-4.4.59-8.24.75-8.75,1.14-3.62-4.62-3.83-5.5,7.25-1.26-5.43,1.55-9.58,6-12.5.2-.13,3.59-1.19,4.5-1.5,10.97-1.58,15.38,10.07,20,6Z"/>
                    <path class="cls-46" d="m109.86,85.72c.17.46.46.61.5,1-4.62,4.07-9.03-7.58-20-6,.08-.03-.29-.8.75-1.5,7.31-1.11,12.9,2.7,18.75,6.5Z"/>
                    <path class="cls-75" d="m107.36,92.22c0,.33.02.67,0,1h-.5c-4.72-1.35-6.86,1.38-5-5.5,1.58,1.41,3.48,3.78,5.5,4.5Z"/>
                    <path class="cls-102" d="m93.61,85.72c2.61-.61,2.84,3.62.5,3.5-1.54-.08-2.34-3.07-.5-3.5Z"/>
                  </g>
                </g>
                <g>
                  <path class="cls-40" d="m54.36,95.22c-.54,2.04-3.63,4.45-5.5,5-7.69,2.26-10.26-3.49-9.5-5.25.46-1.06,3.04-.48,3.5-2,1.1-3.64-5.46-5.16-6,5.75-1.35-.91-2.94-1.73-4-3-4.58-5.49.46-.92.75-1,.28-.08,1.29-3.65,2.25-4.75,7.81-8.9,20.06-.7,18.5,5.25Z"/>
                  <path class="cls-8" d="m48.86,100.22c2.1,2.14-7.95,1.7-8.75,1.5-.9-.22-2.79-2.69-3.25-3,.54-10.91,7.1-9.39,6-5.75-.46,1.52-3.04.94-3.5,2-.76,1.76,1.81,7.51,9.5,5.25Z"/>
                  <path class="cls-102" d="m51.11,90.72c1.57.02.95,2.96-.5,2.5-1.42-.45-.6-2.51.5-2.5Z"/>
                </g>
                <path class="cls-105" d="m107.36,93.22c-.28,4.52-10,8.92-12,11.75-2.05,2.9-2.87,14.62-5,9.75-.27-.62.39-2.5-.25-3-.63,1.9-6.48-2.25-6.75-3.25-.86-3.18,2.79-5.67,3-8.75.46-.09.95-.52,1-1,7.55.12,13.02-1.87,19.5-5.5h.5Z"/>
                <path class="cls-55" d="m70.86,105.72c-.82,1.16-2.68,2.86-4,3,.25-1.59.31-3.23,1.5-4.5l2.5,1.5Z"/>
                <path class="cls-28" d="m71.86,104.22c-.12,1.48-.91,1.38-1,1.5l-2.5-1.5c1.27-1.36,1.47-1.56,3.5,0Z"/>
                <path class="cls-52" d="m71.86,116.22c-.1.55-.73.72-.5,1.5l-4,1.5c-1.19-.39-2.42-1.36-3-2.5.64-.13,1.72-1.61,2.75-2,1.25-.14,3.11,1.46,4.75,1.5Z"/>
                <path class="cls-28" d="m67.36,119.22l4-1.5c.05.16,2.26,1.11-.75,2-1.16.34-2.18-.15-3.25-.5Z"/>
              </g>
            </g>
          </g>
        </g>
        <g>
          <path class="cls-40" d="m77.36,200.72c-.02.69-.57.21-1,1-.07.13.08.39,0,.5-2.3.82-4.14,3.51-5-.5-.06-.28-.02-.68,0-1,.23-4.73,3.22-.64,6,0Z"/>
          <path class="cls-57" d="m81.86,208.72c-4.49,4.3-.78.6-5,0,1.26-2.34,2.71-1.81,4.25-3.5-.33,1.38.61,2.28.75,3.5Z"/>
          <path class="cls-103" d="m76.36,202.22c.08-.11-.07-.37,0-.5.98.75,2.93,1.07,3,1.25.34.9-8,6.48-3-.75Z"/>
          <g>
            <path class="cls-4" d="m4.36,192.22c.78,5.59.37,6.17,4.5,9.5,1.76,1.42,3.87,5.17,7.25,0,9.22,2.89,3.76-7.97,8.5-6.5.56.18,4.37,7.83,6.75-1,2.31-1.27,1.88-2.6,9.5-2,6.29,2.79,9.25,6.17,12.5,6.5.11.12,1.61.83,2.5,2,9.79,12.81,6.7,34.63,3.25,24.5,0,.89-2.6.55-2.75.5-7.82-2.35-11.92-3.5-20.5-2.5,1.11-1.4,3.5-3.89,3.5-5.75,0-1.01-2.79-5.99-3.5-4.75-.7-1.3-5.98-8.83-6.75-9-14.58,6.51-26.97,4.89-12,22,1.56-.75,3.2-.82,3.75-1l1.5,1c-1.02,1.19-1.74,4.04-2,4.5-1.12,1.98-2.86,4.34-3.5,6.5-10.33-8.85-12.19-25.57-13-38.5-.22-3.42-.76-6.8-.5-10.25h1c.13,1.37-.19,2.92,0,4.25Z"/>
            <path class="cls-40" d="m128.36,188.22c2.36,1.06,3.64-.96,4,0-.05.66,0,1.34,0,2,0,.83,0,1.67,0,2.5-1.98-2.42-5.96-2.45-9-2.5-16.13-.27-34.69,10.12-38.5,26.5-.62,2.66-1.77,6.58-.5,9-.19.39-.87,3.63-1,4.75-1.74.59-5.69,3.59-6,3.75-7.6,3.94-10.65,1.63-15,5.5-.33-4.99-.9-8.05-4-12-.58-.74-1.05-1.65-2-2,.15.05,2.76.39,2.75-.5,3.45,10.13,6.54-11.69-3.25-24.5,1.88-2.13,7.79,11.7,8,8.75-3.16-7.31-7.95-13.53-14-18.75.31.06.67-.03,1,0,4.75,4.3,10.45,8.26,14,14,3.5,5.65,4.52,11.09,6.5,17,1.12,3.36,1.47,7.69,7.25,6.5,4.87-1,1.96-8.32,2.25-8.75.48-.73,1.44.83,2-.5.22-.53-.22-2.07,0-2.75,5.19-16.3,12.98-19.3,26.5-28.5,2.54-.24,16.97-2.43,17.75-2,.51.28.18,2.02,1.25,2.5Z"/>
            <path class="cls-29" d="m26.36,174.22c2.82,2.27,6.19,8.29,8.25,11.5.58-.21,3.07-1.5,3.25-1.5.17,0,.33,0,.5,0,2.81.02,6.16.69,9,1,.16.78-.11,1.89,0,2.75,1.6.86,2.3,1.67,3.5,2.75-.33-.03-.69.06-1,0-2.14-.4-10.6-6.51-16-3.5-5.11,2.85-.32,1.75,7,5-7.62-.6-7.19.73-9.5,2-1.59.88-2.38.94-2.5,1,.15-2.72-.6-5.34-1-8l.5-2.75,1.5.75c.63,1.12.02,3.36,2,2.25-.12-4.5-2.3-8.1-5.5-11.25-.92-.9-1.47-1.29-2.5-2-2.36-1.62-4.63-2.97-7.5-3.5l.5-.5c3.15.51,6.94,1.94,9.5,4Z"/>
            <path class="cls-29" d="m49.86,190.72c6.05,5.22,10.84,11.44,14,18.75-.21,2.95-6.12-10.88-8-8.75-.89-1.17-2.39-1.88-2.5-2-5.91-6.2-10.95-9.59-19.5-11.5,5.4-3.01,13.86,3.1,16,3.5Z"/>
            <path class="cls-29" d="m35.86,223.22c-6.18.72-10.8,3.02-15.5,7,.26-.46.98-3.31,2-4.5,3.34-2.48,12.43-4.92,14.5-8,1.84-2.73.61-2.02-1-5,.71-1.24,3.5,3.74,3.5,4.75,0,1.86-2.39,4.35-3.5,5.75Z"/>
            <path class="cls-32" d="m53.36,198.72c-3.25-.33-6.21-3.71-12.5-6.5-7.32-3.25-12.11-2.15-7-5,8.55,1.91,13.59,5.3,19.5,11.5Z"/>
            <path class="cls-32" d="m51.86,186.72c1.3.85,4.13,1.87,5,2.5,1.34.97,2.62,2.01,4,3,.39.28,3.78,3.22,7.5,6,.52.39,1.75,2.14,3,2.5-.02.32-.06.72,0,1-2.03-.62-4.38-.22-3.5,2-.15-.03-2.47.81-3,1-3.55-5.74-9.25-9.7-14-14-1.2-1.08-1.9-1.89-3.5-2.75-.11-.86.16-1.97,0-2.75-.52-2.56.26-6.43-1.5-8.5.39-.1,1.03.25,1-.5.46,2.9,1.31,5.79,1.5,8.75.52.84,2.04.8,3.5,1.75Z"/>
            <path class="cls-29" d="m78.36,218.22c.11.35,1.46-1.08,1.75,6.5-3.26-.25-6.42-.8-8.75-3-1.98-5.91-3-11.35-6.5-17,.53-.19,2.85-1.03,3-1,5.12,1.04,7.93,20.32,10.5,14.5Z"/>
            <g>
              <path class="cls-47" d="m81.86,208.72c.38,3.2-.83,4.61,1,7.5-.22.68.22,2.22,0,2.75-.56,1.33-1.52-.23-2,.5-.29.43,2.62,7.75-2.25,8.75-5.78,1.19-6.13-3.14-7.25-6.5,2.33,2.2,5.49,2.75,8.75,3-.29-7.58-1.64-6.15-1.75-6.5-1.11-3.4-3.37-6.04-1.5-9.5,4.22.6.51,4.3,5,0Z"/>
              <path class="cls-84" d="m78.61,213.72c.45-.09,1.17.43,1.25.75,1.26,4.74-3.61-.26-1.25-.75Z"/>
            </g>
          </g>
          <g>
            <path class="cls-29" d="m137.86,192.22c-.53,1.23-1.37,2.7-2.5,3.5-8.52-3.27-23.95.56-31.75,5-10.1,5.74-14.39,14.97-19.25,25-1.27-2.42-.12-6.34.5-9,4.13-1.43,6.45-7.06,9-10.75,4-4.37,14.65-9.82,20.25-11.75,5.22-1.8,10.51-.35,9.25-4,3.04.05,7.02.08,9,2.5,2.53.52,5.16-5.76,7-7,.4,1.87-.74,4.75-1.5,6.5Z"/>
            <path class="cls-29" d="m109.36,187.72c-13.52,9.2-21.31,12.2-26.5,28.5-1.83-2.89-.62-4.3-1-7.5-.14-1.22-1.08-2.12-.75-3.5-1.54,1.69-2.99,1.16-4.25,3.5-1.87,3.46.39,6.1,1.5,9.5-2.57,5.82-5.38-13.46-10.5-14.5-.88-2.22,1.47-2.62,3.5-2,.86,4.01,2.7,1.32,5,.5-5,7.23,3.34,1.65,3,.75-.07-.18-2.02-.5-3-1.25.43-.79.98-.31,1-1,5.73,1.31,7.94-4.08,15-8,3.59-1.99,7.81-2.88,11.5-4.5,1.86.03,3.66-.33,5.5-.5Z"/>
            <path class="cls-32" d="m123.36,190.22c1.26,3.65-4.03,2.2-9.25,4-5.6,1.93-16.25,7.38-20.25,11.75-2.55,3.69-4.87,9.32-9,10.75,3.81-16.38,22.37-26.77,38.5-26.5Z"/>
            <g>
              <path class="cls-2" d="m140.86,199.22c1.55,1.29,1.29,1.07,3,.5.02,1.87,2.8,3.48,4.5,4,.6.18,1.35.48,1.5.5,4.51.55,5.08-1.77,6,0,.78,9.64,1.45,15.94-2.5,25-.45,1.02-1.4,3.33-1.5,3.5-7.71,13.01-29.94,26.11-44.5,30,1.97-2.58,2.58-3.27,3.5-6.5,2-6.99.76-10.28-3.5-16-2.19-2.94-4.44-5.62-8-7-5.69-2.21-16.13-2.43-21.5,1h-.5c.31-.16,4.26-3.16,6-3.75.13-1.12.81-4.36,1-4.75,4.86-10.03,9.15-19.26,19.25-25,7.8-4.44,23.23-8.27,31.75-5,.14.05-.74.55,1,1.5,4.24,2.32,9.44-6.69,9.75-11,1.32,8.76-6.16,12.01-6.25,12.75-.05.41.9.17,1,.25Z"/>
              <g>
                <path class="cls-66" d="m98.86,221.72c.19.59-.2,1.94,0,2.25,1.3,2.03,4.11,2.66,5,3.25,3.17,2.1,7.2,4.56,10.5,6.5,1.59.93,4.89,3.93,6.75,4,3.31.13,12.53-6.11,12.75-10.5,2.25,5.97-5.69,10.06-9.5,14-7.33,2.59-8.79-3.8-14.25-7.5-12.26-8.32-17.07-5.52-12.25-13.5-.2,1.26.97,1.41,1,1.5Z"/>
                <path class="cls-96" d="m123.36,215.22v1.5c-2.49-2.16-7.65-3.92-10.75-5-.41.34-.67.9-1.25,1-5.61,1.01-8.75,5.01-12.5,9-.03-.09-1.2-.24-1-1.5,1.8-2.98,9.43-10.54,12.75-11,5.23-.73,9.14,3.68,12.75,6Z"/>
                <path class="cls-53" d="m124.36,241.22c3.81-3.94,11.75-8.03,9.5-14-1.26-3.34-5.38-6.39-8.5-8.5-.5-1-1.22-1.32-2-2v-1.5c3.45,2.22,12.79,8.05,13.5,12.25.81,4.8-8.45,12.32-12.5,13.75Z"/>
                <path class="cls-5" d="m123.36,216.72c.78.68,1.5,1,2,2,3.21,6.47-5.27,13.26-11,15-3.3-1.94-7.33-4.4-10.5-6.5-.33-1.62,2.11-3.95,3.5-5.5,2.47,4.48,8,.24,8-.25,0-.76-4.05-1.23-3.5-3.75l-.5-5c.58-.1.84-.66,1.25-1,3.1,1.08,8.26,2.84,10.75,5Z"/>
                <path class="cls-60" d="m133.86,227.22c-.22,4.39-9.44,10.63-12.75,10.5-1.86-.07-5.16-3.07-6.75-4,5.73-1.74,14.21-8.53,11-15,3.12,2.11,7.24,5.16,8.5,8.5Z"/>
                <path class="cls-7" d="m111.36,212.72l.5,5c-1.43,1.31-3.22,2.58-4.5,4-1.39,1.55-3.83,3.88-3.5,5.5-.89-.59-3.7-1.22-5-3.25-.2-.31.19-1.66,0-2.25,3.75-3.99,6.89-7.99,12.5-9Z"/>
                <path class="cls-42" d="m111.86,217.72c-.55,2.52,3.5,2.99,3.5,3.75,0,.49-5.53,4.73-8,.25,1.28-1.42,3.07-2.69,4.5-4Z"/>
              </g>
            </g>
          </g>
          <g>
            <path class="cls-74" d="m36.86,217.72c-2.07,3.08-11.16,5.52-14.5,8l-1.5-1c2.9-.95,11.13-7.18,16-7Z"/>
            <g>
              <path class="cls-95" d="m35.86,212.72c1.61,2.98,2.84,2.27,1,5-4.87-.18-13.1,6.05-16,7-.55.18-2.19.25-3.75,1-14.97-17.11-2.58-15.49,12-22,.77.17,6.05,7.7,6.75,9Z"/>
              <g>
                <path class="cls-101" d="m16.86,211.22l3.75,8c5.9-2.57,5.92-1.43,6.25-1.5-1.21,1.65-7.84,4.9-9.25,4.5-4.69-7.09-9.39-8.74-.75-11Z"/>
                <path class="cls-79" d="m28.86,217.22l-.5-2c2.67-3.01.72-1.96,0-3-.95-7.7-2.66-1.62-3-1.5-1.01.37-4.88-.35-6.5,0,.2-1.3,8.17-3.94,9.75-4.5l6.25,9.25c-1.85,1.09-3.98,1.24-6,1.75Z"/>
                <path class="cls-32" d="m18.86,210.72c1.62-.35,5.49.37,6.5,0-.88.32-1.58.59-2.5.75.59,3.98,2.92,6.66,5.5,3.75l.5,2c-.7.18-1.25.35-2,.5-.33.07-.35-1.07-6.25,1.5l-3.75-8c.46-.12.55-.41,1-.5.42,1.03,2.56,6.3,3.25,6.5,3.87,1.12-2.5-4.88-2.25-6.5Z"/>
                <path class="cls-11" d="m18.86,210.72c-.25,1.62,6.12,7.62,2.25,6.5-.69-.2-2.83-5.47-3.25-6.5.31-.06.7.06,1,0Z"/>
                <path class="cls-30" d="m28.36,212.22c.72,1.04,2.67-.01,0,3-2.58,2.91-4.91.23-5.5-3.75.92-.16,1.62-.43,2.5-.75.57-.21.85-.59,1.25-1,.86,1.86,1.66,2.37,1.75,2.5Z"/>
                <path class="cls-32" d="m28.36,212.22c-.09-.13-.89-.64-1.75-2.5-.4.41-.68.79-1.25,1,.34-.12,2.05-6.2,3,1.5Z"/>
              </g>
            </g>
          </g>
        </g>
        <g>
          <path class="cls-103" d="m72.36,159.22c1.02.14,4.29.43,4.5.5,3.88,4.34,5.83,26.86,3,30-.09.1-.47.48-.5.5l-1.5.5c-.31.06-.68-.03-1,0-3.38.37-9.32-1-13-2-7.99-2.16-8.29-3.02-10-10.75-.09-.41-.92-.09-1-.5-.29-1.57-.49-12.58,0-14,2.26-6.5,14.17-4.99,19.5-4.25Z"/>
          <g>
            <path class="cls-19" d="m79.86,189.72c2.83-3.14.88-25.66-3-30,1.86.64,3.89,2.53,4,2.75.63,1.29,4.12,27.53-1,27.25Z"/>
            <path class="cls-59" d="m76.86,190.72c0,.89-1.2.32-1.5.5-3.5.1-7.02-.06-10.5-.5-.16-.02-.34.02-.5,0l-.5-2c3.68,1,9.62,2.37,13,2Z"/>
            <path class="cls-15" d="m79.36,190.22c-.8.45-.66.34-1.5.5l1.5-.5Z"/>
            <path class="cls-49" d="m78.86,181.72l-1.5-1c.25-.99.66-15.93-5.5-18-1.94-.65-4.94-.99-7-1-.17,0-.33,0-.5,0-1.58.04-3.17-.03-4.75,0-.68.45-1.18,1.44-1.25,1.5-2.56,2.23-3.17,9.29-3,12.5.06,1.08.26,1.52.5,2.5.95,3.92,1.85,4.81,5.5,6.5,1.13.52,3.3,1.64,4.5,1.5v.5c-5.29-.95-10.02-2.23-11.5-8.25-.66-2.66-.33-10.5.5-13,2.71-8.2,18.63-4.26,20.5-2.5,2.51,2.37,3.51,14.95,3.5,18.75Z"/>
            <path class="cls-112" d="m78.86,181.72c0,1.75,0,3.5,0,5.25l-1,.25-5-1c1.99-5.44,3.75-2.61,4.5-5.5l1.5,1Z"/>
            <path class="cls-18" d="m77.86,187.22c-.36,1.09-2.97.1-6,0-.15-.56.98-.93,1-1l5,1Z"/>
            <path class="cls-104" d="m65.86,186.22c-1.2.14-3.37-.98-4.5-1.5-.27-2.01-.96-2.37-1-2.5,2.9-14.17,16.07,2.74,5.5,4Z"/>
            <path class="cls-50" d="m59.86,167.22c.43-.32.47-.48.5-.5l3-1c.81.2,2.38.47,2.5.5.28.08,1.25.4,1.5.5-.16.79-.97,1.07-1.5,1.5-3.39,2.72-7.19,4.69-10.5,7.5-.17-3.21.44-10.27,3-12.5l.5,4.75c.52.59.95-.71,1-.75Z"/>
            <path class="cls-43" d="m71.86,162.72c2.77,2.47,3.72,5.59,3.5,9.25-.61,1.27-1.71-.11-2,.25-1.73-6.3-4.19-4.77-6-5.5-.25-.1-1.22-.42-1.5-.5l-1-4.5c2.06,0,5.06.35,7,1Z"/>
            <path class="cls-65" d="m73.36,172.22c-.85,1.04-1.86,4.27-3.75,4-.33-.05-4.71-4.42-4.75-4.75-.18-1.44,3.08-2.35,1-3.25.53-.43,1.34-.71,1.5-1.5,1.81.73,4.27-.8,6,5.5Z"/>
            <path class="cls-48" d="m60.36,182.22c.04.13.73.49,1,2.5-3.65-1.69-4.55-2.58-5.5-6.5,3.17-1.88,6.46-7.11,10.25-4.5,5.89,4.05-8.63-.48-5.75,8.5Z"/>
            <g>
              <path class="cls-33" d="m77.36,180.72c-.75,2.89-2.51.06-4.5,5.5-.02.07-1.15.44-1,1-2.04-.07-3.99-.14-6-.5v-.5c10.57-1.26-2.6-18.17-5.5-4-2.88-8.98,11.64-4.45,5.75-8.5-3.79-2.61-7.08,2.62-10.25,4.5-.24-.98-.44-1.42-.5-2.5,3.31-2.81,7.11-4.78,10.5-7.5,2.08.9-1.18,1.81-1,3.25.04.33,4.42,4.7,4.75,4.75,1.89.27,2.9-2.96,3.75-4,.29-.36,1.39,1.02,2-.25.22-3.66-.73-6.78-3.5-9.25,6.16,2.07,5.75,17.01,5.5,18Z"/>
              <path class="cls-87" d="m75.11,175.72c1.98.66.81,7.22-3,6-3.8-1.22,2.29-6.24,3-6Z"/>
            </g>
            <path class="cls-72" d="m65.86,166.22c-.12-.03-1.69-.3-2.5-.5-.66-.17,1.14-2.52-3,1-.03.02-.07.18-.5.5-3.03-7.34,3.37-2.76,4.5-5.5.17,0,.33,0,.5,0l1,4.5Z"/>
            <path class="cls-67" d="m64.36,161.72c-1.13,2.74-7.53-1.84-4.5,5.5-.05.04-.48,1.34-1,.75l-.5-4.75c.07-.06.57-1.05,1.25-1.5,1.58-.03,3.17.04,4.75,0Z"/>
            <path class="cls-44" d="m63.36,165.72l-3,1c4.14-3.52,2.34-1.17,3-1Z"/>
          </g>
        </g>
      </g>
    </g>
  </g>
</svg>