<?xml version="1.0" encoding="UTF-8"?>
<svg id="Layer_2" data-name="Layer 2" xmlns="http://www.w3.org/2000/svg" xmlns:xlink="http://www.w3.org/1999/xlink" viewBox="0 0 296.74 442.4">
  <defs>
    <style>
      .cls-1 {
        fill: url(#linear-gradient);
      }

      .cls-1, .cls-2, .cls-3, .cls-4, .cls-5, .cls-6, .cls-7, .cls-8, .cls-9, .cls-10, .cls-11, .cls-12, .cls-13, .cls-14, .cls-15, .cls-16, .cls-17, .cls-18, .cls-19, .cls-20, .cls-21, .cls-22, .cls-23, .cls-24, .cls-25, .cls-26, .cls-27, .cls-28, .cls-29, .cls-30, .cls-31, .cls-32, .cls-33, .cls-34, .cls-35, .cls-36, .cls-37, .cls-38, .cls-39, .cls-40, .cls-41, .cls-42, .cls-43, .cls-44, .cls-45, .cls-46, .cls-47, .cls-48, .cls-49, .cls-50, .cls-51, .cls-52, .cls-53, .cls-54, .cls-55, .cls-56, .cls-57, .cls-58, .cls-59, .cls-60, .cls-61, .cls-62, .cls-63, .cls-64, .cls-65, .cls-66, .cls-67, .cls-68 {
        stroke-width: 0px;
      }

      .cls-2 {
        fill: #f7f4ad;
      }

      .cls-3 {
        fill: #45b79c;
      }

      .cls-4 {
        fill: #773418;
      }

      .cls-5 {
        fill: #75a7cd;
      }

      .cls-6 {
        fill: #5cc7d2;
      }

      .cls-7 {
        fill: #765a2f;
      }

      .cls-8 {
        fill: #4f3028;
      }

      .cls-9 {
        fill: #2a8ead;
      }

      .cls-10 {
        fill: #29bbb7;
      }

      .cls-11 {
        fill: #292521;
      }

      .cls-12 {
        fill: #5b7591;
      }

      .cls-13 {
        fill: #637954;
      }

      .cls-14 {
        fill: #85bdc5;
      }

      .cls-15 {
        fill: #88813e;
      }

      .cls-16 {
        fill: #465156;
      }

      .cls-17 {
        fill: #462a14;
      }

      .cls-18 {
        fill: #95ab3b;
      }

      .cls-19 {
        fill: #2cbfca;
      }

      .cls-20 {
        fill: #32231a;
      }

      .cls-21 {
        fill: #322813;
      }

      .cls-22 {
        fill: #0b6f6f;
      }

      .cls-23 {
        fill: #3f1a0e;
      }

      .cls-24 {
        fill: #11100e;
      }

      .cls-25 {
        fill: #3f9bb1;
      }

      .cls-26 {
        fill: #0a6688;
      }

      .cls-27 {
        fill: #137c9b;
      }

      .cls-28 {
        fill: #081b18;
      }

      .cls-29 {
        fill: #22110b;
      }

      .cls-30 {
        fill: #102c2c;
      }

      .cls-31 {
        fill: #121e12;
      }

      .cls-32 {
        fill: #c48a70;
      }

      .cls-33 {
        fill: #ca7674;
      }

      .cls-34 {
        fill: #c4e8ee;
      }

      .cls-35 {
        fill: #cc8e2c;
      }

      .cls-36 {
        fill: #cbe4bb;
      }

      .cls-37 {
        fill: #d3e6ef;
      }

      .cls-38 {
        fill: #d5af29;
      }

      .cls-39 {
        fill: #dba482;
      }

      .cls-40 {
        fill: #d6e5e3;
      }

      .cls-41 {
        fill: #c17531;
      }

      .cls-42 {
        fill: #b2e1ed;
      }

      .cls-43 {
        fill: #d08029;
      }

      .cls-44 {
        fill: #943567;
      }

      .cls-45 {
        fill: #71c1b6;
      }

      .cls-46 {
        fill: #323128;
      }

      .cls-47 {
        fill: #318e92;
      }

      .cls-48 {
        fill: #8cc2e1;
      }

      .cls-49 {
        fill: #6c6935;
      }

      .cls-50 {
        fill: #a0afb5;
      }

      .cls-51 {
        fill: #9f9133;
      }

      .cls-52 {
        fill: #9fd4ce;
      }

      .cls-53 {
        fill: #fdfaed;
      }

      .cls-54 {
        fill: #fdfefd;
      }

      .cls-55 {
        fill: #7dbf75;
      }

      .cls-56 {
        fill: #edf0cb;
      }

      .cls-57 {
        fill: #e49c5b;
      }

      .cls-58 {
        fill: #eeca94;
      }

      .cls-59 {
        fill: #e47a25;
      }

      .cls-60 {
        fill: #e78f87;
      }

      .cls-61 {
        fill: #edc3a3;
      }

      .cls-62 {
        fill: #ebe95f;
      }

      .cls-63 {
        fill: #efd235;
      }

      .cls-64 {
        fill: #f7911e;
      }

      .cls-65 {
        fill: #e7e8ad;
      }

      .cls-66 {
        fill: #035b52;
      }

      .cls-67 {
        fill: #677d39;
      }

      .cls-68 {
        fill: #6a4035;
      }
    </style>
    <linearGradient id="linear-gradient" x1="184.13" y1="28.66" x2="96.56" y2="92.72" gradientUnits="userSpaceOnUse">
      <stop offset="0" stop-color="#321918"/>
      <stop offset="1" stop-color="#462c1f"/>
    </linearGradient>
  </defs>
  <g id="Layer_1-2" data-name="Layer 1">
    <g>
      <path class="cls-16" d="m64.52,438.76v-.5c4.01.44,8.04-.37,12-.5,5.8-.19,11.93.71,17.5-1.5,0,.09,1.06.49,0,1.75-2.14,2.55-24.78.74-29.5.75Z"/>
      <g>
        <path class="cls-54" d="m253.52,417.76v-1.5c22.61-11.11,41.88-34.13,36.5-60.75-.2-.99-2.24-6.41-3-8.75-3.24-9.97-8.68-19.3-12-29.25-9.53-28.53-18.04-80.59-26-112-.68-.75-1.01.11-1.5,1-.8,1.47-7.57,24.41-7.5,25.75-.57-.76-1.83-2.99-2.5-2.25,2.92,11.21,6.77,22.14,10,33.25,1.69,5.81,2.71,12.07,3,13-8.49-4.45,1.56,19.8,5,28.25,3.95,9.72,22.26,43.75,21,51.5-1.59,9.76-25,19.67-33.5,22.25-9.5,2.88-19.25,4.86-29.25,4.5-1.53.62,2.89,7.7-2.25,8.5.39-2.96.6-6.4-1.5-8.75l5.5-4.5c-.2-.24-.55-.36-.5-.75.02-.19-.91-1.32-.5-3.75,1.2-7.15,4.06-14.65,2.5-22l1.25-1.25c17.18,1.21,20.39-13.98,19.25-28.75-.16-2.03-2.87-4.42,0-5.75,7.37-4.9,2.15-11.64,2.5-12.25h6.5c-7.23-5.16-.21-5.53-1.5-11.5-.06-.29-1.68-2.01-2-2.25,2.47-.87,1.21-2.28,1.5-4.5.21-1.61.57-2.79.5-4.5-.02-.43-1.1-2-1.5-4.5-.06-.36.25-5.5,0-7.25l-8.5-1.5c2.43-2.33,6.17-8.45,5.5-11.75-.22-1.1-1.88-1.17-2.5-2,.15-.08,2.33-1.44,2.5-1.75-.22-.4-2.9-.6-3.5-.75-1.51-.37-2.94-1.04-4.5-1l-1.5-2c1.21-.61,2.23-1.72,3.5-2.25-.43-.54-.91-.88-1.5-1.25-1.86-1.16-6.96-1.38-7-2.25l6.5-4.25c0-1.49-7.01-2.84-7.75-3.5-.51-.46-.12-1.34-.25-1.5-2-2.38-3.95-7.06-6-9.75-.2-1.06,1.69-1.06,2-1.25,9.78,16.2,14.12,13.51,3.5-1.5,1.53-.88,7.73-4.36,8-5.75l-2.5-9.5c13.9-6.24,23.71-18.78,27.75-21.75.46-.34,3.23,2.36,8.25-6.25-4.18-2.75-.49-4.02-3-8.25,4.62-6.67,14.33-10.84,15.5-22,.98.2,1.66-.05,2.5-.5,5.44-2.94,4.9-41.17,0-47.5.6.05.44-.35.5-.5,13.29,1.26,9.91,32.96,7.5,41.75-.64,2.32-19.09,41.25-20.5,43.5-6.33,10.1-14.3,12.67-14.5,16-.37,6.13,23.28,106.53,28,119.5,7.21,19.82,22.66,37.68,11,66-7.08,17.2-22.34,26.25-39,32.25Z"/>
        <g>
          <path class="cls-52" d="m253.52,416.26v1.5c-3.55,1.28-7.36,2.51-11,3.5-5.75,1.57-11.61,2.64-17.5,3.5-.01-.09-.74-.39-1-1.5,10.11-1.49,19.72-4.19,29.5-7Z"/>
          <path class="cls-36" d="m285.52,349.76l1.5-3c.76,2.34,2.8,7.76,3,8.75,5.38,26.62-13.89,49.64-36.5,60.75-9.78,2.81-19.39,5.51-29.5,7-2.13-9.11-9.52-17.51-15-25,1.3-2.42,2.13-4.19,2.5-7,5.14-.8.72-7.88,2.25-8.5,10,.36,19.75-1.62,29.25-4.5-1.82,3.29,13.64-2.5,16.75-4,10.45-5.05,17.85-12.53,22.25-23.25-1.72-3.51-3.05-7.13-4.5-10.75,2.25,1.7,7.19,16.3,8,16.75,3.53,1.95.19-6.64,0-7.25Z"/>
        </g>
        <path class="cls-36" d="m287.02,346.76l-1.5,3c-3.66-11.72-17.43-35.34-24-51.5-6.39-15.73-7.19-21.65-11.5-36-1.71-5.7-3.8-11.3-5.5-17l3-2.75c-.04-29.06.24-42.28-3.5-4.5-1.24,1.2-1.5-2.41-4-5.75-.07-1.34,6.7-24.28,7.5-25.75.49-.89.82-1.75,1.5-1,7.96,31.41,16.47,83.47,26,112,3.32,9.95,8.76,19.28,12,29.25Z"/>
        <path class="cls-65" d="m250.52,276.26c2.89,9.22,5.88,16.66,9.5,25.5,5.36,13.09,12.25,25.43,17.5,38.5,1.45,3.62,2.78,7.24,4.5,10.75-4.4,10.72-11.8,18.2-22.25,23.25-3.11,1.5-18.57,7.29-16.75,4,8.5-2.58,31.91-12.49,33.5-22.25,1.26-7.75-17.05-41.78-21-51.5-3.44-8.45-13.49-32.7-5-28.25Z"/>
        <path class="cls-57" d="m224.02,220.76c10.62,15.01,6.28,17.7-3.5,1.5,1.69-1.06,3.33-1.41,3.5-1.5Z"/>
        <path class="cls-36" d="m35.02,254.26c-5.6,4.38-12.5,27.12-12,33.5-.48.39,2,5.54,3,7.5-.35,0-.78-.16-1,.25-1.64,3.04-2.62,65.6-2,69,.21,1.16.55,2.73,2,2.25-3.35,11.32-6.56,22.87-8.5,34.5-3.25.84-4.04,8.03-4.75,8-16.82-38.22.77-79.4,3.25-118.75,6.27-35.01,23.96-73.45,53-95.25.4-.03,1.02-.07,1,.25-.06.94-8.67,9.85-12,14.5-9.68,13.54-16.57,28.56-22,44.25Z"/>
        <path class="cls-65" d="m78.02,191.26c-18.07,16.48-27.44,34.29-38,55.75-1.39,2.82-.62,6.89-5,7.25,5.43-15.69,12.32-30.71,22-44.25,3.33-4.65,11.94-13.56,12-14.5.02-.32-.6-.28-1-.25,2.79-2.09,5.51-4.19,8.5-6,.43.62,1.03,1.37,1.5,2Z"/>
        <path class="cls-54" d="m117.52,339.26c1.69,12.13,2.04,24.16,4.5,36.25.29,1.41-.78,2.21-.5,3,.35.98,2.09.5,2.5,1.5,1.15,2.82-.3,18.83,1.5,23.25l-.5,1c-5.67,4.04-15.02,15.31-16,22-.02.12-1.1.23-.25,2.5,6.09,1.98,14.61,1.73,20.75,0,.39,3.64-.48,5.7-.5,6-5.23.35-10.47,1.48-15.75,1-2.59-.24-5.82-2.5-8.25-1.5-.41-4.27.15-8.3,1.5-12.5.17-.53.3-.97.5-1.5,2.06-5.32,9.7-14.84,14-19.25-.7-3.82-.93-17.23-4.25-18.75-1.68-.77-25.03-4.42-31.25-6.5,1.19-20.98-.16-23.78-6.5-43.75,12.97,3.03,25.3-2.37,35-10.75,1.32,5.9,2.67,12.02,3.5,18Z"/>
        <path class="cls-54" d="m187.02,415.26c-.13,11.08-1.29,18.77,15,22,.07.97.31,1.59.5,2.5-3.33-.39-18.56-5.28-19.5-8.25-.42-1.33.34-6.56.5-8.75.05-.66.91-.35,1.5-1.25l-.5-2.25c-.96-12.44-.66-24.95-3-37.25-10.52-1.68-26.86,2.97-28.5-4.25,6.53-14.95,3.87-54.6,16.5-39.25,4.52,5.49,3.02,12.26,4.5,19,5.66,25.83,9.97,24.61,12,29,3.67,7.95,1.11,19.93,1,28.75Z"/>
        <path class="cls-50" d="m224.02,435.26c-2.67,5.71-15.92,5.16-21.5,4.5-.19-.91-.43-1.53-.5-2.5,0-.07.34.44,0-1.5-.05-.31.07-.71,0-1l22,.5Z"/>
        <path class="cls-54" d="m88.02,251.76c-2.54-5.62-10.75-9.6-16.5-10.5-1.02-.16-1.97-.43-3-.5-11.08-.72-20.55,2.58-28.25,10.5.67.18,2.63.43,2.75.5,1.84,1.06,3.55,2.43,5,4-.6-.05-.44.37-.5.5-11.12-5.8-18.89,22.09-20.5,30.25,6.52,5.62,16.67,24.1,21.75,27.75,5.26,3.78,10.1,4.25,15.25,0,6.29-5.19,5.59-12.83,4-20,3.5.88,6.84,1.88,10.5,2,16.06.52,25.79-10.41,24-26.25-8.25-.16-16.52-2.66-13.5,6,.22.62,9.4,6.47,10.5,8-2.97,4.45-6.82,8.43-12,10.25-4.56-10.3-5.5-16.55-3.5-27.75-4.67-3.52-5.43-13.44-11-17.75-.22-1.39-.48-.95-.5-1-.98-2.55-3.03-4.03-4-6.5,2.46.73,4.88,2.61,6.5,4.5,8.77,10.23,3.61,22.85,16.25,20,1.61-16.7,9.2-27.85,18-41.5,6.81,1.18-2.93,6.29.75,9.5-2.65,2.83-3.9,6.08-5.5,9.5-.18.38-1.51.9-2.5,3.25-.26.58.59.81.5,1.25-2.43,11.78,1.96,20.63,3.5,28,.76,3.62,1.78,4.75,1.5,10.5-.8,16.5-14.37,18.66-28,17-1.18-.14-6.87-2.14-7.25-2-3.38,20.11-16.47,24.2-31,10-.8,1.99-.2,3.71-.25,4-.55,3.45-.91,7.61-1,8-.94,4.2-9.68,25.76-13,36.5,1.88-19.94.43-39.99,1.5-60,.36.55,4,5.19,4.5,5.75,7.81,8.78-4.49-10.72-10-17.75-.5-6.38,6.4-29.12,12-33.5,4.38-.36,3.61-4.43,5-7.25,10.56-21.46,19.93-39.27,38-55.75,6.11,8.19,16.21,13.87,25,18.75-7.21,9.92,5.2,11.84,5.5,13.5-8.64,11.14-14.27,23.83-19.25,36.75-.85-.71-5.28-6.32-5.25-6.75.16-2.06,5.74,2.09,4-1.75Z"/>
        <g>
          <path class="cls-52" d="m183.52,422.76h-29c-.02-.51-.37-1.27-.5-3l30.5-.5.5,2.25c-.59.9-1.45.59-1.5,1.25Z"/>
          <path class="cls-36" d="m184.52,419.26l-30.5.5c-.81-10.69-3.27-20.89-2.5-31.75.06-.85,3.03-2.23-.5-3.75-.04-3.82-2.2-1.46,2-6.5,1.64,7.22,17.98,2.57,28.5,4.25,2.34,12.3,2.04,24.81,3,37.25Z"/>
        </g>
        <path class="cls-54" d="m212.02,343.26c-.02.1-.76-.28-.5,2-10.88-.12-22.08.26-32.25,4.5-2.63-12.48,13.67-22.44,21.75-31.75,4.94-5.69,11.24-16.39,12.25-16.25l2.25,12.25c-3.51,5.37-14.13,31.11-3,25.5-.45,1.21-.3,2.57-.5,3.75Z"/>
        <g>
          <path class="cls-54" d="m124.02,292.26c1.58,1.11,2.61,2.38,4,3.5-.26,1.51.5,3.8.5,4-.03,3.16-1.6,6.33-1.5,9.5-1.96.88-1.38,2.19-1.5,2.5-.64,1.61-2.46,4.49-2,6.25.29,1.1,12.24,12.55,14.25,14.25,8.04,6.82,14.49,7.15,12.75,13.75-.86,2.22-28.65-6.35-32.5-6.75,4.47-.31-.1-13.28-1.5-20,4.21-4.21,11.47-15.26,9.5-21.25-.22-.68-6.35-4.29-6.75-4.25-2.29.26-11.55,18.35-38.5,23.5-3.05.58-3.96-1.03-4.25-1-.06-.64,2.37-10.49,3-12.5,6.22,1.89,14.79,3.4,20.75.5,6.99-3.4,17.99-24.12,7.75-18l10.75-8,.25,11.25c4.01,3.43,4.74,2.57,5,2.75Z"/>
          <path class="cls-14" d="m118.02,339.26h-.5c-.83-5.98-2.18-12.1-3.5-18,.78-.67,1.79-1.29,2.5-2,1.4,6.72,5.97,19.69,1.5,20Z"/>
        </g>
        <g>
          <path class="cls-22" d="m261.52,298.26c-1.86.38-1.88,2.07-1.5,3.5-3.62-8.84-6.61-16.28-9.5-25.5-.29-.93-1.31-7.19-3-13l2.5-1c4.31,14.35,5.11,20.27,11.5,36Z"/>
          <path class="cls-66" d="m240.02,232.26c1.65,4.29,3.19,8.59,4.5,13,1.7,5.7,3.79,11.3,5.5,17l-2.5,1c-3.23-11.11-7.08-22.04-10-33.25.67-.74,1.93,1.49,2.5,2.25Z"/>
          <path class="cls-47" d="m261.52,298.26c6.57,16.16,20.34,39.78,24,51.5.19.61,3.53,9.2,0,7.25-.81-.45-5.75-15.05-8-16.75-5.25-13.07-12.14-25.41-17.5-38.5-.38-1.43-.36-3.12,1.5-3.5Z"/>
        </g>
        <path class="cls-53" d="m244.52,245.26c-1.31-4.41-2.85-8.71-4.5-13,2.5,3.34,2.76,6.95,4,5.75,3.74-37.78,3.46-24.56,3.5,4.5l-3,2.75Z"/>
        <path class="cls-65" d="m26.02,295.26c.25.48,2.36,4.29,2.5,4.5-1.07,20.01.38,40.06-1.5,60-.7,2.27-1.32,4.7-2,7-1.45.48-1.79-1.09-2-2.25-.62-3.4.36-65.96,2-69,.22-.41.65-.25,1-.25Z"/>
        <g>
          <path class="cls-53" d="m244.52,285.26c-.29,2.22.97,3.63-1.5,4.5-7.38-5.57-24.05-.53-25.25-1-.51-.2-1.31-3.56-1.25-3.75,1.01-3.11,25.35-5.1,28,.25Z"/>
          <path class="cls-54" d="m224.02,423.26c.26,1.11.99,1.41,1,1.5.43,2.89.2,7.94-1,10.5l-22-.5c-.47-2.04-1.58-3.93-2-6,3.35,1.02,18.42,1.59,20.5-.75.08-.54-.13-1.25,0-1.75,1.72-6.69-6.55-14.52-10.5-19-.55-.62-1.15-1.1-1.5-1.5-.52-.59-1.44-1.41-1.5-1.5-.42-.58-1.57-1.63-1.5-2.25,1-1.21,2.76-2.38,3.5-3.75,5.48,7.49,12.87,15.89,15,25Z"/>
          <path class="cls-54" d="m154.02,419.76c.13,1.73.48,2.49.5,3,.34,9.41-.19,8.55-8,12.5.32-1.62,1.47-.67.5-3,1.36-.83,2.72-1.79,4-2.75.75-1.32.19-3.65,0-5.25-.16-1.37-.96-2.66-1-3-.27-2.53-.22-4.98-.5-7.5-.15-1.38-.49-.94-.5-1-.11-.96-.25-1.13-1-1.75.93-3.57-.61-9.6-.5-12,0-.19,1.34-2.09,1.5-3.5.14-1.23-1.05-4.15-.5-6,.49-1.62,2.56-.32,2.5-5.25,3.53,1.52.56,2.9.5,3.75-.77,10.86,1.69,21.06,2.5,31.75Z"/>
          <path class="cls-6" d="m145.52,319.26c-1.91-9.78-9.95-17.4-17.5-23.5-1.39-1.12-2.42-2.39-4-3.5l.5-4.75c15.49,8.79,28.55,25.66,27.75,44.25-2.06-4.29-4.19-8.48-6.75-12.5Z"/>
          <path class="cls-66" d="m233.02,317.26c.62.44,1.65.96,2,1.5l-3.5,9.5c-3.81,1.05-3.26.28-5.5-.5l2-12.5c1.22.38,4.15,1.4,5,2Z"/>
          <path class="cls-19" d="m228.02,315.26l-2,12.5c-.25-.09-.8.09-1,0-3.47-3.59-4.7-8.59-4.5-13.5,4.15-.9,3.99-.11,7.5,1Z"/>
          <g>
            <path class="cls-6" d="m224.52,233.26c.13.16-.26,1.04.25,1.5.74.66,7.74,2.01,7.75,3.5-2.63.38-9.87,2.54-10.5,5-3.36-1.55-4.89,5.19-5,8,0,.17,0,.33,0,.5.14,14.91,13.78,4.44,14.75,4,1.11-.5,5.3-1.52,6.25-2,.62.83,2.28.9,2.5,2-9.07,3.46-26.04,12.92-28-3.25-.91-7.54,3.37-19.37,12-19.25Z"/>
            <path class="cls-31" d="m232.52,238.26l-6.5,4.25c.04.87,5.14,1.09,7,2.25l-4.5,4c-2.72,1.14-3.74,1.83-7,2.5-1.52.31-2.89.75-4.5.5,0-.17,0-.33,0-.5,8.16-.57,3.83-3.47,5-8,.63-2.46,7.87-4.62,10.5-5Z"/>
            <path class="cls-63" d="m238.02,253.76c-.95.48-5.14,1.5-6.25,2-.97.44-14.61,10.91-14.75-4,1.61.25,2.98-.19,4.5-.5l.5.5c-7.03,1.62.5,8.86,15-.5.6.15,3.28.35,3.5.75-.17.31-2.35,1.67-2.5,1.75Z"/>
            <path class="cls-24" d="m232.52,250.26c1.56-.04,2.99.63,4.5,1-14.5,9.36-22.03,2.12-15,.5.57-.13,9.97-1.48,10.5-1.5Z"/>
            <path class="cls-10" d="m232.52,250.26c-.53.02-9.93,1.37-10.5,1.5l-.5-.5c3.26-.67,4.28-1.36,7-2.5.21-.09.99.26,2.5-.5l1.5,2Z"/>
            <path class="cls-15" d="m231.02,248.26c-1.51.76-2.29.41-2.5.5l4.5-4c.59.37,1.07.71,1.5,1.25-1.27.53-2.29,1.64-3.5,2.25Z"/>
            <path class="cls-18" d="m222.02,243.26c-1.17,4.53,3.16,7.43-5,8,.11-2.81,1.64-9.55,5-8Z"/>
          </g>
          <g>
            <path class="cls-29" d="m237.52,315.76c-2.87,1.33-.16,3.72,0,5.75,1.14,14.77-2.07,29.96-19.25,28.75l-1.25,1.25c1.56,7.35-1.3,14.85-2.5,22-.41,2.43.52,3.56.5,3.75-3.25.22.96-11.29,1.5-16.75.41-4.17-.95-9.07,1-10.5-.91-.21-.93-.69-1-.75,1.92.33.33-5.65,1.75-11,.26,13.08,6.36,15.7,5,.5.54,1.63,1.07,4.98,1.75,6.25,4.72,8.82,2.57-15.45,5.5-1,4.09-4.13,4.77-12.79,5-18.75.06-1.62.07-5.41-.5-6.5-.35-.54-1.38-1.06-2-1.5,1.14-.3,3.61-.91,4.5-1.5Z"/>
            <path class="cls-39" d="m219.52,314.76c.93,4.81.3,10.57,5.5,13,.2.09.75-.09,1,0,2.24.78,1.69,1.55,5.5.5,2.4-.66,2.5-1.08,4-3-.23,5.96-.91,14.62-5,18.75-2.93-14.45-.78,9.82-5.5,1-.68-1.27-1.21-4.62-1.75-6.25,1.36,15.2-4.74,12.58-5-.5-1.42,5.35.17,11.33-1.75,11-.24-.21-2,.04-5-4-.26-2.28.48-1.9.5-2,6.37-15.65,13.61-25.46-2.25-5.5-1.96-.26,1.87-19.85,9.75-23Z"/>
            <path class="cls-34" d="m220.52,314.26c-.2,4.91,1.03,9.91,4.5,13.5-5.2-2.43-4.57-8.19-5.5-13,.05-.02-.39-.2,1-.5Z"/>
            <path class="cls-22" d="m235.52,325.26c-1.5,1.92-1.6,2.34-4,3l3.5-9.5c.57,1.09.56,4.88.5,6.5Z"/>
          </g>
          <g>
            <path class="cls-31" d="m208.52,405.76c.35.4.95.88,1.5,1.5-4.89-.1-9.48.99-14,2.75,10.89,1.45,5.43,3.36-1,6,11.94,3.77-4.29.76,1,7.5,3.73,4.74,18.8,4.04,24.5,2.75-.13.5.08,1.21,0,1.75-2.08,2.34-17.15,1.77-20.5.75-8.18-2.49-13.99-15.45-12-3.75.98,5.73,8.46,10.56,14,10.75.34,1.94,0,1.43,0,1.5-16.29-3.23-15.13-10.92-15-22,.64-.09,1.67.15,2,0l.25,1.5,5.25-4.75c-.77-.71-1.35.01-2,.25.09-1.19-.94-1.9-1-2,5.17-2.85,11.11-4.34,17-4.5Z"/>
            <path class="cls-7" d="m207.02,404.26c.06.09.98.91,1.5,1.5-5.89.16-11.83,1.65-17,4.5-.04-.06-.96.17-1-.25-.29-2.88,13.92-7.49,16.5-5.75Z"/>
            <path class="cls-19" d="m210.02,407.26c3.95,4.48,12.22,12.31,10.5,19-5.7,1.29-20.77,1.99-24.5-2.75-5.29-6.74,10.94-3.73-1-7.5,6.43-2.64,11.89-4.55,1-6,4.52-1.76,9.11-2.85,14-2.75Z"/>
            <path class="cls-26" d="m200.02,428.76c.42,2.07,1.53,3.96,2,6,.07.29-.05.69,0,1-5.54-.19-13.02-5.02-14-10.75-1.99-11.7,3.82,1.26,12,3.75Z"/>
          </g>
          <g>
            <path class="cls-24" d="m224.02,220.76c-.17.09-1.81.44-3.5,1.5-.31.19-2.2.19-2,1.25,2.05,2.69,4,7.37,6,9.75-8.63-.12-12.91,11.71-12,19.25,1.96,16.17,18.93,6.71,28,3.25.67,3.3-3.07,9.42-5.5,11.75l8.5,1.5c.25,1.75-.06,6.89,0,7.25-3.2-4.48-27.85-2.92-26,2.25.45,1.26,4.78-.63,6.25-.75,8.14-.69,13.62-.86,21.25,3,.07,1.71-.29,2.89-.5,4.5-2.65-5.35-26.99-3.36-28-.25-.06.19.74,3.55,1.25,3.75,1.2.47,17.87-4.57,25.25,1,.32.24,1.94,1.96,2,2.25,1.29,5.97-5.73,6.34,1.5,11.5h-6.5c-.35.61,4.87,7.35-2.5,12.25-.89.59-3.36,1.2-4.5,1.5-.85-.6-3.78-1.62-5-2-3.51-1.11-3.35-1.9-7.5-1-1.39.3-.95.48-1,.5-7.88,3.15-11.71,22.74-9.75,23,15.86-19.96,8.62-10.15,2.25,5.5.2-1.18.05-2.54.5-3.75-11.13,5.61-.51-20.13,3-25.5l-2.25-12.25c-1.01-.14-7.31,10.56-12.25,16.25-8.08,9.31-24.38,19.27-21.75,31.75,10.17-4.24,21.37-4.62,32.25-4.5,3,4.04,4.76,3.79,5,4,.07.06.09.54,1,.75-1.95,1.43-.59,6.33-1,10.5-.54,5.46-4.75,16.97-1.5,16.75-.05.39.3.51.5.75l-5.5,4.5c2.1,2.35,1.89,5.79,1.5,8.75-.37,2.81-1.2,4.58-2.5,7-.74,1.37-2.5,2.54-3.5,3.75-.07.62,1.08,1.67,1.5,2.25-2.58-1.74-16.79,2.87-16.5,5.75.04.42.96.19,1,.25.06.1,1.09.81,1,2-2.29.84-3.29,2.91-3.5,3-.33.15-1.36-.09-2,0,.11-8.82,2.67-20.8-1-28.75-2.03-4.39-6.34-3.17-12-29-1.48-6.74.02-13.51-4.5-19-12.63-15.35-9.97,24.3-16.5,39.25-4.2,5.04-2.04,2.68-2,6.5.06,4.93-2.01,3.63-2.5,5.25-.55,1.85.64,4.77.5,6-.16,1.41-1.49,3.31-1.5,3.5-.11,2.4,1.43,8.43.5,12,.75.62.89.79,1,1.75-1.19-.11-3.96,2.95-4.25,3-1.1.18-.69-.99-.75-1-.2-4.06-13.46-8.81-18.5-11.5-1.8-4.42-.35-20.43-1.5-23.25-.41-1-2.15-.52-2.5-1.5-.28-.79.79-1.59.5-3-2.46-12.09-2.81-24.12-4.5-36.25h.5c3.85.4,31.64,8.97,32.5,6.75,1.74-6.6-4.71-6.93-12.75-13.75-2.01-1.7-13.96-13.15-14.25-14.25-.46-1.76,1.36-4.64,2-6.25,3.01,4.29,7.81,9.63,11.75,13,9.62,8.23,13.61,9.73,4.75-1.25-2.84-3.53-14.62-13.22-15-14.25-.1-3.17,1.47-6.34,1.5-9.5,6.97,5.17,12.4,12.27,17,19.5,2.56,4.02,4.69,8.21,6.75,12.5.8-18.59-12.26-35.46-27.75-44.25l-.5,4.75c-.26-.18-.99.68-5-2.75l-.25-11.25-10.75,8h-.5c.28-5.75-.74-6.88-1.5-10.5,3.61-1.13,6.42-3.25,8.5-6.5,9.65-10.94,9.26-24.33-2-34-2.07-1.78-2.39-1.4-2.5-1.5-3.68-3.21,6.06-8.32-.75-9.5-8.8,13.65-16.39,24.8-18,41.5-12.64,2.85-7.48-9.77-16.25-20l1-.5c2.94,2.29,9.13,7.21,12,6.5,1.74,3.84-3.84-.31-4,1.75-.03.43,4.4,6.04,5.25,6.75,4.98-12.92,10.61-25.61,19.25-36.75-.3-1.66-12.71-3.58-5.5-13.5-8.79-4.88-18.89-10.56-25-18.75-.47-.63-1.07-1.38-1.5-2-.06-.09.03-.59,0-1,35.46,42.32,129.25,35.83,169.75,4,14.64-11.51,9.48-13.23,16.25-23,2.51,4.23-1.18,5.5,3,8.25-5.02,8.61-7.79,5.91-8.25,6.25-4.04,2.97-13.85,15.51-27.75,21.75l2.5,9.5c-.27,1.39-6.47,4.87-8,5.75Z"/>
            <g>
              <g>
                <path class="cls-63" d="m229.52,213.26c-1.79-1.61-8.89,3.16-14.25,5-34.7,11.92-78.93,10.96-112.75-3.5.64-6.38,5.82-.82,20.5,2.5-.52,1.56-.43,1.48,1.25,2,9.57,2.97,46.54,3.91,57.5,3,8.9-.74,41.61-7.04,46.25-14,.21.39,1.53,4.74,1.5,5Z"/>
                <path class="cls-38" d="m229.52,213.26c-.27,2.75-15.65,8.55-18.75,9.5-18.72,5.75-47.04,8.02-66.5,6.5-6.54-.51-42.63-5.75-41.75-14.5,33.82,14.46,78.05,15.42,112.75,3.5,5.36-1.84,12.46-6.61,14.25-5Z"/>
                <path class="cls-38" d="m228.02,208.26c-4.64,6.96-37.35,13.26-46.25,14-10.96.91-47.93-.03-57.5-3-1.68-.52-1.77-.44-1.25-2,31.72,7.17,74.85,4.3,104.25-10.5,1,.68.69,1.38.75,1.5Z"/>
              </g>
              <g>
                <path class="cls-54" d="m243.52,276.26c.4,2.5,1.48,4.07,1.5,4.5-7.63-3.86-13.11-3.69-21.25-3-1.47.12-5.8,2.01-6.25.75-1.85-5.17,22.8-6.73,26-2.25Z"/>
                <path class="cls-24" d="m144.27,381.26c-2.67,7.98-2.9,16.4-2.75,24.75-18.73-5.81-14.51-5.85-14-23.5l12.25.75,4.5-2Z"/>
                <path class="cls-6" d="m203.27,297.26c2.49,10.82-14.35,22.73-21.25,30.25-2.47,2.7-7.65,11.53-4.5,2,2.39-7.21,19.19-26.14,25.75-32.25Z"/>
                <path class="cls-59" d="m147.77,283.76h17.5l.75,9.75-17.75.75-.5-10.5Z"/>
                <path class="cls-54" d="m117.77,228.26l30.75,7.25c-.91.77-3.4,6.59-3.75,6.75-2.82,1.32-22.32-3.73-27-14Z"/>
                <path class="cls-6" d="m200.52,290.76c-8.56,2.99-13.38,10.75-20,16.25,1.15,2.81-3.61,3.98-2.5,7.25-.46.77-1.11,1.75-1.5,2.5-2.53-.27-1.75-2.14-1.5-4,1.15-8.47,16.27-26.32,25.25-29,.48,2.75,1.84,4.67.25,7Z"/>
                <path class="cls-54" d="m194.77,230.76c4.75-.25-7.67,5.45-13,8.5-12.04,2.56-14.28,6.45-17.5-5.5,9.67.95,23.54-2.63,30.5-3Z"/>
                <path class="cls-54" d="m149.27,240.26c1.48-.49,11.9.36,15.5,0,2.8,2.16,1.09,7.97.75,8.25-.62.52-15.49.05-16.25-.25-2.28-.9-3.13-6.96,0-8Z"/>
                <path class="cls-54" d="m191.02,268.76c-.27,3.29-4.66,6.43-6.75,9.5-12.15,0-18.75,4.79-15.75-4.5,10.19.07,17.33,1.64,19.5-4.5.15,0,.33-.84,3-.5Z"/>
                <path class="cls-54" d="m146.02,273.76c.95,7.84-.1,8.24-10.25,5-10.94-3.49-10.08-6.89-7.75-17h.5c-3.22,14.98,3.3,12.07,17.5,12Z"/>
                <path class="cls-19" d="m125.52,311.76c.12-.31-.46-1.62,1.5-2.5.38,1.03,12.16,10.72,15,14.25,8.86,10.98,4.87,9.48-4.75,1.25-3.94-3.37-8.74-8.71-11.75-13Z"/>
                <path class="cls-42" d="m200.27,235.26c.14,5.47-.71,10.76.25,16.25.85,4.83,4.24,10.75,6.25,15.25-6.9-7.34-16.41-23.62-6.5-31.5Z"/>
                <path class="cls-34" d="m114.52,269.26c7.04-11,4.1-23.41-2-34,11.26,9.67,11.65,23.06,2,34Z"/>
                <path class="cls-46" d="m207.77,383.26c.37.17.93,3.23.75,3.75-.39,1.14-15.1,5.72-15.5,5-2.93-5.26,4.33-4.61,4.75-4.75,4.2-1.39,9.51-4.22,10-4Z"/>
                <path class="cls-40" d="m145.52,319.26c-4.6-7.23-10.03-14.33-17-19.5,0-.2-.76-2.49-.5-4,7.55,6.1,15.59,13.72,17.5,23.5Z"/>
                <path class="cls-49" d="m144.02,414.76c-.33-.04-.74.07-1,0-2.87-.78-4.21-1.67-6.25-4-3.62-1.84-5.48-1.86-5.75-2-1.92-.98-3.65-1.67-5-3.5-.24-.32-.39-1.02-1-1l.5-1c5.04,2.69,18.3,7.44,18.5,11.5Z"/>
                <path class="cls-14" d="m200.52,290.76c-1.56,2.29-15.91,12.51-22.5,23.5-1.11-3.27,3.65-4.44,2.5-7.25,6.62-5.5,11.44-13.26,20-16.25Z"/>
                <path class="cls-6" d="m236.52,310.76c.61,4.45-9.87-.81-11.25-1-1.21-.17-8.09,1.86-3.25-1,4.2-2.48,10.36-.48,14.5,2Z"/>
                <path class="cls-11" d="m205.27,393.76c10.17-.37-12.31,6.11-12.75,5.25-.09-.17.61-3.62.75-3.75.44-.41,11.4-1.48,12-1.5Z"/>
                <path class="cls-54" d="m209.77,271.76c2.34,2.5-8.32,6.68,1.25,5.25,1.18,14.04-6.8,1.61-6.5,0,.07-.36,4.45-2.95,5.25-5.25Z"/>
                <path class="cls-42" d="m176.52,316.76c-2.31,4.47-3.4,9.52-5,14.25.28-6.16.76-12.58,3.5-18.25-.25,1.86-1.03,3.73,1.5,4Z"/>
                <path class="cls-55" d="m236.52,310.76c-4.14-2.48-10.3-4.48-14.5-2-6.07-3.61,13.68-4,14.5,2Z"/>
                <path class="cls-54" d="m211.27,284.76c.72.23,1.47,5.93,1.25,6.75-1.71,6.48-6.15-8.33-1.25-6.75Z"/>
                <g>
                  <path class="cls-62" d="m237.52,300.76c-3.95-3.73-9.71-2.93-14.5-3.5-13.32-1.57.53-7.03,10.75-5,9.9,1.96,8.9,8.14,3.75,8.5Z"/>
                  <path class="cls-51" d="m237.52,300.76c-2.58.18-5.28-1.57-7.75-2-2.81-.5-6.86,1.16-6.75-1.5,4.79.57,10.55-.23,14.5,3.5Z"/>
                </g>
                <path class="cls-37" d="m214.77,265.26c11.37-.4,2.07,3.11,1.5,3-.43-.08-1.83-2.82-1.5-3Z"/>
                <path class="cls-47" d="m189.02,415.26c.21-.09,1.21-2.16,3.5-3,.65-.24,1.23-.96,2-.25l-5.25,4.75-.25-1.5Z"/>
                <path class="cls-54" d="m211.77,297.26c1.44-.73.37,3.16,0,3-.4-.18-.41-2.79,0-3Z"/>
                <g>
                  <path class="cls-6" d="m191.52,262.26c1.87-8.97-14.11-6.62-14.5-5.75v12c3.59-.07,7.47.74,11,.75-2.17,6.14-9.31,4.57-19.5,4.5-7-.05-14.25-1.03-21.25-1-.26,0-1.17,1-1.25,1-14.2.07-20.72,2.98-17.5-12,.39-1.83,2.81-2.88,2.5-5.5v4.5l1,10c.27.33,7.47.12,8.5,0,.72-.08,2.63.27,3-.25-.71-6.38.96-11.85,1-13.25,4.39-.63,23.17,1.42,25.25.5,3.24-1.42-4.53-6.48,8-6,17.6.67,14.01,5.03,13.75,10.5Z"/>
                  <path class="cls-38" d="m191.52,262.26c-.1,2.17-.83,4.27-.5,6.5-2.67-.34-2.85.5-3,.5-3.53-.01-7.41-.82-11-.75v-12c.39-.87,16.37-3.22,14.5,5.75Z"/>
                  <path class="cls-52" d="m144.52,253.76c-.99.02-2.14.74-3,1-4.25,1.31-9.28.75-10.5,1.5.31,2.62-2.11,3.67-2.5,5.5h-.5c.38-1.67,1.11-7.28,2.25-8l13.5-1.5c.9.63.67,1.01.75,1.5Z"/>
                  <g>
                    <path class="cls-63" d="m144.52,253.76c.03.17.01,3.06,0,3.5-.04,1.4-1.71,6.87-1,13.25-.37.52-2.28.17-3,.25.86-4.51.51-9.2,1-13.75.05-.51,1.74-1.25,0-2.25.86-.26,2.01-.98,3-1Z"/>
                    <path class="cls-38" d="m141.52,254.76c1.74,1,.05,1.74,0,2.25-.49,4.55-.14,9.24-1,13.75-1.03.12-8.23.33-8.5,0l-1-10v-4.5c1.22-.75,6.25-.19,10.5-1.5Z"/>
                    <path class="cls-67" d="m132.02,270.76l-1-10,1,10Z"/>
                  </g>
                </g>
                <g>
                  <path class="cls-6" d="m205.27,351.76c1.67-.05,5.61-.2,6.5,0,5.84,1.31.72,22.53-8,27-9.49,4.86-15.43,2.06-18.75-7.75-5.45-16.09,6.88-18.82,20.25-19.25Z"/>
                  <path class="cls-62" d="m191.02,362.76l1-1.5c3-4.44,14.67-4.25,15.5,2.75,1.63,13.73-19,11.25-16.5-1.25Z"/>
                  <path class="cls-3" d="m191.02,362.76c.3-1.51.78-1.17,1-1.5l-1,1.5Z"/>
                </g>
                <g>
                  <path class="cls-6" d="m125.27,348.76c4.86-.58,21.06,3.71,22.25,9.25,1.81,8.4-7.8,26.61-23.5,16.5-.3-5.85-7.32-24.72,1.25-25.75Z"/>
                  <path class="cls-62" d="m127.27,353.76c8.51-1.51,12.68,10.41,5,13-9.35,3.15-12.59-11.65-5-13Z"/>
                </g>
              </g>
            </g>
          </g>
          <g>
            <path class="cls-50" d="m129.02,434.76c-.02.32,0,1.61,0,2,.02.8.21.88.5,1.5-1.56.5-3.91.18-3.5,2.5-4.89.31-18.08,1.1-21-3.75-1.22-2.02.01-2.61,0-2.75,2.43-1,5.66,1.26,8.25,1.5,5.28.48,10.52-.65,15.75-1Z"/>
            <path class="cls-37" d="m147.02,432.26c.97,2.33-.18,1.38-.5,3-7.52,3.8-12.25,4.98-20.5,5.5-.41-2.32,1.94-2,3.5-2.5,4.96-1.58,13.12-3.32,17.5-6Z"/>
            <g>
              <path class="cls-27" d="m149.02,412.76c0,.06.35-.38.5,1-2.6,1.85-2.47,5.4-6.75,5.5-4.07.09,1.72-1.89.25-4.5.26.07.67-.04,1,0,.06,0-.35,1.18.75,1,.29-.05,3.06-3.11,4.25-3Z"/>
              <path class="cls-26" d="m150.02,421.26c.04.34.84,1.63,1,3-2.11,8.02-14.47,10.62-22,12.5,0-.39-.02-1.68,0-2,.02-.3.89-2.36.5-6,5.27-1.49,10.14-6.94,20.5-7.5Z"/>
              <path class="cls-66" d="m126.02,405.26c-5.69,2.65-14.96,14.52-16,21-.25-.07-.67.04-1,0,.98-6.69,10.33-17.96,16-22,.61-.02.76.68,1,1Z"/>
              <path class="cls-30" d="m147.02,432.26c-4.38,2.68-12.54,4.42-17.5,6-.29-.62-.48-.7-.5-1.5,7.53-1.88,19.89-4.48,22-12.5.19,1.6.75,3.93,0,5.25-1.28.96-2.64,1.92-4,2.75Z"/>
              <path class="cls-19" d="m126.02,405.26c1.35,1.83,3.08,2.52,5,3.5-.3,3.1-7.21,4.07,1.5,8.25-.87,6.27,4.26,3.94,3.25,5.75-1.44,2.59-16.76,6.17-25.75,3.5,1.04-6.48,10.31-18.35,16-21Z"/>
              <g>
                <path class="cls-31" d="m143.02,414.76c1.47,2.61-4.32,4.59-.25,4.5,4.28-.1,4.15-3.65,6.75-5.5.28,2.52.23,4.97.5,7.5-10.36.56-15.23,6.01-20.5,7.5-6.14,1.73-14.66,1.98-20.75,0-.85-2.27.23-2.38.25-2.5.33.04.75-.07,1,0,8.99,2.67,24.31-.91,25.75-3.5,1.01-1.81-4.12.52-3.25-5.75-8.71-4.18-1.8-5.15-1.5-8.25.27.14,2.13.16,5.75,2,2.04,2.33,3.38,3.22,6.25,4Z"/>
                <path class="cls-25" d="m131.27,412.76c4.63-.61,6.1,2.22,7.25,6.25-2.31,1.2.09-3.15-7.25-6.25Z"/>
              </g>
            </g>
          </g>
          <g>
            <path class="cls-19" d="m112.52,235.26c6.1,10.59,9.04,23,2,34-2.08,3.25-4.89,5.37-8.5,6.5-1.54-7.37-5.93-16.22-3.5-28-.19,1.18.48.95.5,1,1.51,4.97,6.75,12.49,11.5,5.5,4.46-6.57-1.95-15.02-10-11,1.6-3.42,2.85-6.67,5.5-9.5.11.1.43-.28,2.5,1.5Z"/>
            <path class="cls-28" d="m114.52,254.26c-.53-1.66.8-.9,0-4.5-1.5-6.76-8.74-6.06-10.25-5-.52.37-.09,1.27-.25,1.5-.52.76-.94,1.57-1,2.5-.02-.05-.69.18-.5-1,.09-.44-.76-.67-.5-1.25.99-2.35,2.32-2.87,2.5-3.25,8.05-4.02,14.46,4.43,10,11Z"/>
            <path class="cls-24" d="m114.52,249.76c.8,3.6-.53,2.84,0,4.5-4.75,6.99-9.99-.53-11.5-5.5.06-.93.48-1.74,1-2.5,2.05,1.59,8.68,5.12,10.5,3.5Z"/>
            <path class="cls-64" d="m114.52,249.76c-1.82,1.62-8.45-1.91-10.5-3.5.16-.23-.27-1.13.25-1.5,1.51-1.06,8.75-1.76,10.25,5Z"/>
          </g>
        </g>
        <g>
          <path class="cls-24" d="m116.52,319.26c-.71.71-1.72,1.33-2.5,2-9.7,8.38-22.03,13.78-35,10.75,6.34,19.97,7.69,22.77,6.5,43.75-.12,2.2-.32,4.32-.5,6.5-.01.17.01.33,0,.5l-4.5-15.5c1.44-13.61-.13-23.41-5-36-.07-.18.63-.4-.5-3.75-12.38-.09-8.9.46-7.5,4.25,3.57,9.63,6.15,18.52,1,28.25,2.85,7.46,2.5,15.62.5,23.25-1.25,4.78-5.62,11.46-7,16-.54-13.16-2.18-31.2-20-25.25,11.11,6.13,12.09,26.76,2.25,28.75-8.29,1.67-9.21-9.56-10.75-5.75-1.07,2.64,5.57,20.65,2.5,32.75-.93-8.13.04-14.1-5.5-21.25-2.71-3.49-9.5-8.41-14-7.25,1.94-11.63,5.15-23.18,8.5-34.5.68-2.3,1.3-4.73,2-7,3.32-10.74,12.06-32.3,13-36.5.32.04.74-.07,1,0-.62,2.88,17.2,6.47,16,3.5,5.15.48,16.02.88,20.25-2.5,4.15-3.31-.57-6-.75-8,.29-.03,1.2,1.58,4.25,1,26.95-5.15,36.21-23.24,38.5-23.5.4-.04,6.53,3.57,6.75,4.25,1.97,5.99-5.29,17.04-9.5,21.25Z"/>
          <path class="cls-43" d="m62.02,399.26c-.34,1.11-.65,5.04-1,6.5-.21.88-.31,1.67-.5,2.5-1.52,6.6-1.73,13.57-4.5,19.75-.19,2.07,1.45,1.65,1.5,1.75.76,1.55.97.94,1,1,3.29,6.75-3.49,3.97-11.75,3.5-2.3,4.19.54,6.98-4.5,6.5-6.92-.65-5.72-6.42-6.25-11,3.07-12.1-3.57-30.11-2.5-32.75,1.54-3.81,2.46,7.42,10.75,5.75,9.84-1.99,8.86-22.62-2.25-28.75,17.82-5.95,19.46,12.09,20,25.25Z"/>
          <path class="cls-23" d="m74.52,406.76c-1.95,8.61-1.77,11.74-1,20.5.22,2.5.6,4.98.5,7.5-.45-.14-7.92.22-9.5,0-.29-2.44-1.71-4.86-1-7.5,1.16-8.64,14.55-36.61,11-20.5Z"/>
          <path class="cls-29" d="m74.52,406.76c3.55-16.11-9.84,11.86-11,20.5-2.56-6.13,1.08-13.44-3-19,.19-.83.29-1.62.5-2.5,1.54,5.88,10.98-7.31,12.5-10,3.64-6.46,4.22-11.01,5.5-18,4.8,9.7-2.37,19.57-4.5,29Z"/>
          <path class="cls-48" d="m74.02,434.76c.69.21,2.62,2.01,2.5,3-3.96.13-7.99.94-12,.5-1.07-2.59.03-3.26,0-3.5,1.58.22,9.05-.14,9.5,0Z"/>
          <path class="cls-54" d="m84.02,415.76c-.02.83.01,1.67,0,2.5l-.5.75c3.09,3.97,10.8,13.03,10.5,17.25-5.57,2.21-11.7,1.31-17.5,1.5.12-.99-1.81-2.79-2.5-3,.1-2.52-.28-5-.5-7.5l11-.75c-.75-1.48-3.85-5.27-4-6-.65-3.21,3.93-30.92,4.5-37.75.01-.17-.01-.33,0-.5.3.31,1.98,1.13,2,1.25.37,1.9-2.86,26.72-3,32.25Z"/>
          <path class="cls-10" d="m79.52,303.76v-.5c13.63,1.66,27.2-.5,28-17h.5c10.24-6.12-.76,14.6-7.75,18-5.96,2.9-14.53,1.39-20.75-.5Z"/>
          <path class="cls-43" d="m88.02,251.76c-2.87.71-9.06-4.21-12-6.5-1.51-1.18-3.15-2.62-4.5-4,5.75.9,13.96,4.88,16.5,10.5Z"/>
          <path class="cls-17" d="m71.52,241.26c1.35,1.38,2.99,2.82,4.5,4l-1,.5c-1.62-1.89-4.04-3.77-6.5-4.5v-.5c1.03.07,1.98.34,3,.5Z"/>
          <path class="cls-54" d="m75.52,331.26c4.87,12.59,6.44,22.39,5,36-.02.2-1.19,1.42-1.5,3.75-.23,2.02.32,5.01,0,6.75-1.28,6.99-1.86,11.54-5.5,18l-4.5-12.5c2-7.63,2.35-15.79-.5-23.25,5.15-9.73,2.57-18.62-1-28.25l8-.5Z"/>
          <path class="cls-43" d="m85.02,382.76c-.57,6.83-5.15,34.54-4.5,37.75.15.73,3.25,4.52,4,6l-11,.75c-.77-8.76-.95-11.89,1-20.5,2.13-9.43,9.3-19.3,4.5-29,.32-1.74-.23-4.73,0-6.75.31-2.33,1.48-3.55,1.5-3.75l4.5,15.5Z"/>
          <path class="cls-38" d="m76.52,316.26c.18,2,4.9,4.69.75,8-4.23,3.38-15.1,2.98-20.25,2.5-6.09-.57-10.26-1.88-16-3.5-.26-.07-.68.04-1,0,.09-.39.45-4.55,1-8,18.37,12.5,30.04,1.59,35.5,1Z"/>
          <path class="cls-48" d="m73.52,395.76c-1.52,2.69-10.96,15.88-12.5,10,.35-1.46.66-5.39,1-6.5,1.38-4.54,5.75-11.22,7-16l4.5,12.5Z"/>
          <path class="cls-5" d="m75.52,331.26l-8,.5c-1.4-3.79-4.88-4.34,7.5-4.25,1.13,3.35.43,3.57.5,3.75Z"/>
          <path class="cls-16" d="m57.02,326.76c1.2,2.97-16.62-.62-16-3.5,5.74,1.62,9.91,2.93,16,3.5Z"/>
          <path class="cls-45" d="m28.52,299.76c-.14-.21-2.25-4.02-2.5-4.5-1-1.96-3.48-7.11-3-7.5,5.51,7.03,17.81,26.53,10,17.75-.5-.56-4.14-5.2-4.5-5.75Z"/>
          <path class="cls-24" d="m72.52,247.76c.02.05.28-.39.5,1,1.06,6.77-5.98-2.39-11,5.25-8.06,12.28,4.46,33.32,6,40.25,1.59,7.17,2.29,14.81-4,20,.8-1.17,2.24-3.86,2.5-5,2.22-9.72-5.51-21.81-9-30.75-2.69-6.89-4.81-17.66-9.5-22.75-1.45-1.57-3.16-2.94-5-4,9.24-6.62,19.32-12.17,29.5-4Z"/>
          <path class="cls-24" d="m79.52,303.26v.5c-.63,2.01-3.06,11.86-3,12.5-5.46.59-17.13,11.5-35.5-1,.05-.29-.55-2.01.25-4,14.53,14.2,27.62,10.11,31-10,.38-.14,6.07,1.86,7.25,2Z"/>
          <path class="cls-24" d="m78.52,296.26c3.29-.77,5.67-.83,9-2,5.18-1.82,9.03-5.8,12-10.25-1.1-1.53-10.28-7.38-10.5-8-3.02-8.66,5.25-6.16,13.5-6,1.79,15.84-7.94,26.77-24,26.25Z"/>
          <g>
            <path class="cls-4" d="m47.52,256.26c-.62,1.33-.43,1.91,0,3.25,4.19,13.2,17.02,34.36,19,49.75-.26,1.14-1.7,3.83-2.5,5-5.15,4.25-9.99,3.78-15.25,0-5.08-3.65-15.23-22.13-21.75-27.75,1.61-8.16,9.38-36.05,20.5-30.25Z"/>
            <path class="cls-41" d="m66.52,309.26c-1.98-15.39-14.81-36.55-19-49.75-.43-1.34-.62-1.92,0-3.25.06-.13-.1-.55.5-.5,4.69,5.09,6.81,15.86,9.5,22.75,3.49,8.94,11.22,21.03,9,30.75Z"/>
          </g>
          <path class="cls-35" d="m68.52,240.76v.5c.97,2.47,3.02,3.95,4,6.5-10.18-8.17-20.26-2.62-29.5,4-.12-.07-2.08-.32-2.75-.5,7.7-7.92,17.17-11.22,28.25-10.5Z"/>
          <g>
            <path class="cls-43" d="m87.52,294.26c-3.33,1.17-5.71,1.23-9,2-3.66-.12-7-1.12-10.5-2-1.54-6.93-14.06-27.97-6-40.25,5.02-7.64,12.06,1.52,11-5.25,5.57,4.31,6.33,14.23,11,17.75-2,11.2-1.06,17.45,3.5,27.75Z"/>
            <g>
              <path class="cls-24" d="m68.77,253.76c7.61-1.19,11.37,16.11,2.5,18-12.72,2.71-7.18-17.27-2.5-18Z"/>
              <path class="cls-54" d="m69.77,259.26c2.32-.34,3.6,6.13.5,6.5-3.49.41-2.36-6.22-.5-6.5Z"/>
            </g>
          </g>
        </g>
        <g>
          <g>
            <path class="cls-24" d="m281.02,98.26c-.03.19.05.39,0,.5-.06.15.1.55-.5.5-5.16,1.98-4.68,8.27-5,12.75-.57,7.98-1.9,30.95,5,34.75-.84.45-1.52.7-2.5.5-1.13-.23-4.46-3.44-4.75-3.5-2.07-.46-7.47,1.95-8,2-1.71.16-1.65-1.01-1.75-1-1.37-2.82.43-13.74,2.5-15,.53-.32,3.41.02,4.5-1.75.56-1.48-.48-14.04,0-17.75.52-4.07,2.72-9.12,6.5-11,1.24-.62,2.58-1.11,4-1Z"/>
            <path class="cls-63" d="m280.52,99.26c4.9,6.33,5.44,44.56,0,47.5-6.9-3.8-5.57-26.77-5-34.75.32-4.48-.16-10.77,5-12.75Z"/>
          </g>
          <path class="cls-45" d="m266.52,117.26c-.03,4.2-.95,8.32-.5,12.5-2.07,1.26-3.87,12.18-2.5,15-2.85.34-5.98,1.64-9,1.5,11.49-58.99-18.59-119.29-81-129.5,9.75-.08,5.34,3.32,13.5-6.5,54.01,10.9,79.85,54.08,79.5,107Z"/>
          <path class="cls-9" d="m115.52,18.76l-.25,1.5c-.29-1.31,7.17-2.16,7.25-.75-4.11,3.76-10.93,5.88-12,8.25-13.53,7.67-24.86,19-32.5,32.5-11.72,12.92-12.32,41.2-14,42.75-.65.6-2.26-.39-4.5,1.25.01-3.2.62-5.59-3-7,7.08-33.08,28.35-63.51,59-78.5Z"/>
          <path class="cls-25" d="m164.52,7.76c.84,5.89-.96,4.41-2.5,7.5-17.57-.72-36.18,3.81-51.5,12.5,1.07-2.37,7.89-4.49,12-8.25-.08-1.41-7.54-.56-7.25.75l.25-1.5c16.07-7.86,31.06-11.07,49-11Z"/>
          <path class="cls-24" d="m56.52,97.26c3.62,1.41,3.01,3.8,3,7-.02,4.76-3.43,20.88-2,24.25.15.35,4.23,1.47,5,5.25.58,2.83-.86,14.81-2.25,15-1.57-1.18-1.16-1.93-1.25-2,.72-4.49.99-9.35-1.25-13.5l-.75,12c-.11-.08-1.95-.87-2.5-1-.35-4.26.09-9.92,0-14.5-.13-7.12-.42-13.85,0-21,.19-3.16,1.55-6.18,1-9.5-.33-2-1.57-1.02-1.5-2.5,1.55-.17,1.86.25,2.5.5Z"/>
          <path class="cls-10" d="m187.02,10.26c-8.16,9.82-3.75,6.42-13.5,6.5-3.72-.61-7.75-1.35-11.5-1.5,1.54-3.09,3.34-1.61,2.5-7.5,8,.03,14.7.93,22.5,2.5Z"/>
          <path class="cls-2" d="m54.52,129.76c-2.17.22-2.04,5.28-2,8.75l-1-1.25c-.21-5.57-3-11.38-3.5-17-.1-1.15.04-2.34,0-3.5l6.5-8c-.42,7.15-.13,13.88,0,21Z"/>
          <path class="cls-56" d="m270.52,110.26c-.48,3.71.56,16.27,0,17.75-1.09,1.77-3.97,1.43-4.5,1.75-.45-4.18.47-8.3.5-12.5,6.26-2.39.81-9.78,3-15,.23,2.53-.12,5.56,1,8Z"/>
          <path class="cls-6" d="m274.52,97.76c.14.02,1.48,1.07,2.5,1.5-3.78,1.88-5.98,6.93-6.5,11-1.12-2.44-.77-5.47-1-8-.11-1.18-.37-2.31-.5-3.5,1.35-1.23,3.68-1.29,5.5-1Z"/>
          <g>
            <path class="cls-54" d="m281.02,98.26c-1.42-.11-2.76.38-4,1-1.02-.43-2.36-1.48-2.5-1.5-3.78-22.44-13.36-44.1-28.5-61.25-2.44-2.77-16.66-18.28-13.5-9.5,2.49,6.93,30.76,20.87,36.5,71.75.13,1.19.39,2.32.5,3.5-2.19,5.22,3.26,12.61-3,15,.35-52.92-25.49-96.1-79.5-107-7.8-1.57-14.5-2.47-22.5-2.5-17.94-.07-32.93,3.14-49,11-30.65,14.99-51.92,45.42-59,78.5-.64-.25-.95-.67-2.5-.5-8.6.96-6.82,17.72-6.5,23.5.85,15.39,4.28,24.41,4,17l1,1.25c-.04-3.47-.17-8.53,2-8.75.09,4.58-.35,10.24,0,14.5,1.37,16.63,7.74,15.97,9.5,18.75.76,1.2,4.04,15.15,12.5,25.25.03.41-.06.91,0,1-2.99,1.81-5.71,3.91-8.5,6-29.04,21.8-46.73,60.24-53,95.25-2.48,39.35-20.07,80.53-3.25,118.75.71.03,1.5-7.16,4.75-8,4.5-1.16,11.29,3.76,14,7.25,5.54,7.15,4.57,13.12,5.5,21.25.53,4.58-.67,10.35,6.25,11,5.04.48,2.2-2.31,4.5-6.5,8.26.47,15.04,3.25,11.75-3.5l2.5-3.25-3.5,2.25c-.05-.1-1.69.32-1.5-1.75,2.77-6.18,2.98-13.15,4.5-19.75,4.08,5.56.44,12.87,3,19-.71,2.64.71,5.06,1,7.5.03.24-1.07.91,0,3.5v.5c-2.7,3.04-18,4.03-21.25,3.5-1.03-.17-17.57-7.55-19-8.5-4.02-2.67-7.29-6.94-9.75-11-11.69-19.32-16.89-42.35-13.5-64.75,11.52-67.31,11.27-122.13,68-170.5-9.69-9.72-12.91-23.26-18-35.5-5.54-13.31-13.57-20.02-10-43.5,2.43-15.94,10.12-13.97,11-15,1.11-1.3,1.04-13.03,11.5-32C99.47-3.65,185.94-20.78,242.77,28.26c20.51,17.7,35.74,42.76,38.25,70Z"/>
            <g>
              <g>
                <path class="cls-56" d="m274.52,97.76c-1.82-.29-4.15-.23-5.5,1-5.74-50.88-34.01-64.82-36.5-71.75-3.16-8.78,11.06,6.73,13.5,9.5,15.14,17.15,24.72,38.81,28.5,61.25Z"/>
                <path class="cls-13" d="m51.52,137.26c.28,7.41-3.15-1.61-4-17h.5c.5,5.62,3.29,11.43,3.5,17Z"/>
                <path class="cls-21" d="m54.02,96.76c-.07,1.48,1.17.5,1.5,2.5-7.85-4.39-7.69,12.16-7.5,17.5.04,1.16-.1,2.35,0,3.5h-.5c-.32-5.78-2.1-22.54,6.5-23.5Z"/>
              </g>
              <g>
                <path class="cls-24" d="m18.27,404.26c10.92-1.83,17.01,24.43,14,32-15.23-4.81-21.24-30.79-14-32Z"/>
                <path class="cls-20" d="m58.52,430.76c-.03-.06-.24.55-1-1l3.5-2.25-2.5,3.25Z"/>
              </g>
            </g>
          </g>
          <path class="cls-58" d="m59.02,146.76c-.65-.48-1.37-1.07-2-1.5l.75-12c2.24,4.15,1.97,9.01,1.25,13.5Z"/>
          <path class="cls-62" d="m55.52,99.26c.55,3.32-.81,6.34-1,9.5l-6.5,8c-.19-5.34-.35-21.89,7.5-17.5Z"/>
          <g>
            <path class="cls-9" d="m64.02,133.76c4.03,52.45,32.61,72.54,83.25,75,47.68,2.31,96.84-9.08,107.25-62.5,3.02.14,6.15-1.16,9-1.5.1-.01.04,1.16,1.75,1,.53-.05,5.93-2.46,8-2,.29.06,3.62,3.27,4.75,3.5-1.17,11.16-10.88,15.33-15.5,22-6.77,9.77-1.61,11.49-16.25,23-40.5,31.83-134.29,38.32-169.75-4-8.46-10.1-11.74-24.05-12.5-25.25-1.76-2.78-8.13-2.12-9.5-18.75.55.13,2.39.92,2.5,1,.63.43,1.35,1.02,2,1.5.09.07-.32.82,1.25,2,1.39-.19,2.83-12.17,2.25-15h1.5Z"/>
            <path class="cls-25" d="m78.02,60.26c-12.32,21.77-15.89,48.85-14,73.5h-1.5c-.77-3.78-4.85-4.9-5-5.25-1.43-3.37,1.98-19.49,2-24.25,2.24-1.64,3.85-.65,4.5-1.25,1.68-1.55,2.28-29.83,14-42.75Z"/>
            <g>
              <path class="cls-24" d="m162.02,15.26c3.75.15,7.78.89,11.5,1.5,62.41,10.21,92.49,70.51,81,129.5-10.41,53.42-59.57,64.81-107.25,62.5-50.64-2.46-79.22-22.55-83.25-75-1.89-24.65,1.68-51.73,14-73.5,7.64-13.5,18.97-24.83,32.5-32.5,15.32-8.69,33.93-13.22,51.5-12.5Z"/>
              <g>
                <path class="cls-29" d="m95.52,100.26c-2.62,2.51-2.94,10.7-25.75,13-1.03-.74,1.76-17.47,2.25-20,.96.57.73.56,1.5-.25,1.07-1.13,12.62-17.12,13.5-13.5-7.84,19.62,2.92,6.17,8.5-1l-4.5,10.5c.79,1.95,17.47-13.52,19.25-14.75l-15.25,24.25c-.28,1.02-.82,1.26.5,1.75Z"/>
                <g>
                  <path class="cls-68" d="m252.02,121.76c-1.04-1.24-3.55-.74-5.25-1.5-3.91-1.75-8.27-7.39-9.75-6-1.27-2.55-15.48-16.58-19.5-22.25-16.7-23.53-12.89-36.07-19.5-61.75,3.76-.24,20.86,12.41,24.25,15.5,21.18,19.35,29.93,47.96,29.75,76Z"/>
                  <path class="cls-68" d="m252.02,121.76c-.11,16.8-3.46,34.6-13.25,48.5l-7.75-10c4.33-12.33,12.09-33.81,6-46,1.48-1.39,5.84,4.25,9.75,6,1.7.76,4.21.26,5.25,1.5Z"/>
                </g>
                <path class="cls-29" d="m198.02,30.26c6.61,25.68,2.8,38.22,19.5,61.75,4.02,5.67,18.23,19.7,19.5,22.25,6.09,12.19-1.67,33.67-6,46h-1.5c4.87-12.63,10.87-39.53,2-50.75-9.9-12.52-26.82-17.64-32-55.75-.63-4.64.47-13.93-3-23.5.5-.02,1,.03,1.5,0Z"/>
                <path class="cls-29" d="m178.52,81.76c-17.89,13.98-31.48,16.85-53.5,19.5,0-2.18,3.37.5,3.5-3,14.51-.87,32.44-9.67,45.75-16,2.77-1.31,5.46-5.3,4.25-.5Z"/>
                <path class="cls-8" d="m196.52,30.26c3.47,9.57,2.37,18.86,3,23.5-1.17,4.54-3.59,8.15-6,12-3.43,2.2.68-10.32,1-15.25.58-9.08-.76-15.69-3.5-24.25,1.53.72,3.03,1.82,4.75,2l.75,2Z"/>
                <g>
                  <path class="cls-1" d="m191.02,26.26c2.74,8.56,4.08,15.17,3.5,24.25-.32,4.93-4.43,17.45-1,15.25-4.82,7.7-7.92,10.47-15,16,1.21-4.8-1.48-.81-4.25.5-13.31,6.33-31.24,15.13-45.75,16-15.33.92-10.8-1.78-12.25-3-2.3-1.92-18.56,2.91-20.75,5-1.32-.49-.78-.73-.5-1.75l15.25-24.25c-1.78,1.23-18.46,16.7-19.25,14.75l4.5-10.5c-5.58,7.17-16.34,20.62-8.5,1-.88-3.62-12.43,12.37-13.5,13.5-.77.81-.54.82-1.5.25,9.62-49.82,50.34-78.82,100.75-72,5.49.74,13.26,2.64,18.25,5Z"/>
                  <path class="cls-29" d="m166.27,51.26c.89-.06,16.98.45,13,2.5-16.47,1.63-32.77,3.72-48.75,8.25,10.72-4.87,23.33-9.86,35.75-10.75Z"/>
                  <path class="cls-20" d="m146.77,78.26c7.99-.87,4.75,1.85-4.75,1.75,1.42-.12,4.46-1.72,4.75-1.75Z"/>
                </g>
                <g>
                  <path class="cls-24" d="m115.52,153.26c-10.21.69-17.85-8.91-14.5-18.75,1.16-3.39,10.01-10.42,1.75-5.75-6.05,3.42-6.16,12.41-3.25,18-11.41-12.74,1.41-22.15,6.75-23.5,24.5-6.2,30.04,28.59,9.25,30Z"/>
                  <path class="cls-54" d="m115.52,153.26l-.5,1c-1.16-.34-5.2.1-8-1-1.46-.57-6.23-5.08-7.5-6.5-2.91-5.59-2.8-14.58,3.25-18,8.26-4.67-.59,2.36-1.75,5.75-3.35,9.84,4.29,19.44,14.5,18.75Z"/>
                  <path class="cls-54" d="m118.27,130.76c4.62-1.46,7.43,5.71,2.5,6.5-4.28.69-5.76-5.47-2.5-6.5Z"/>
                  <path class="cls-54" d="m122.27,139.76c1.99-.93,3.25,2.18,1.5,3-1.99.93-3.25-2.18-1.5-3Z"/>
                </g>
                <g>
                  <g>
                    <path class="cls-60" d="m115.02,154.26c26.9,7.9-.42,29.05-20.5,13-1.07-2.5-2.17-4.9-3-7.5,4.84-5.02,8.81-5.66,15.5-6.5,2.8,1.1,6.84.66,8,1Z"/>
                    <path class="cls-33" d="m108.27,157.76c19.57-1.76,13.26,13.45-4.5,8-11.71-3.59-2.19-7.4,4.5-8Z"/>
                  </g>
                  <g>
                    <path class="cls-61" d="m229.52,160.26c-19.67,50.99-97.63,45.74-121.75,26.5-6.65-5.31-9.98-11.85-13.25-19.5,20.08,16.05,47.4-5.1,20.5-13l.5-1c20.79-1.41,15.25-36.2-9.25-30-5.34,1.35-18.16,10.76-6.75,23.5,1.27,1.42,6.04,5.93,7.5,6.5-6.69.84-10.66,1.48-15.5,6.5-5.01-15.75-6.3-32.31-6-48.75,3.96-2.51,22.22-10.2,25.25-9.25,1.28.4.6,8.41,9-.5,1.7-.14,3.58.2,5.25,0,22.02-2.65,35.61-5.52,53.5-19.5,7.08-5.53,10.18-8.3,15-16,2.41-3.85,4.83-7.46,6-12,5.18,38.11,22.1,43.23,32,55.75,8.87,11.22,2.87,38.12-2,50.75Z"/>
                    <g>
                      <path class="cls-24" d="m163.02,178.26c-3.99.45-6.69,1.92-10.5-.5-2.32-1.47-4.84-6.61-3.25-7,8.97,3.65,21.2-4.66,13.75,7.5Z"/>
                      <path class="cls-24" d="m198.27,93.76c6.6-1.14,15.67,1.36,18.75,7.75-17.53-9.14-20.38-.6-21.75-.25-4.46,1.14-5.03-6.11,3-7.5Z"/>
                      <path class="cls-44" d="m163.02,178.26c-3.24,5.29-9.34,6.27-10.5-.5,3.81,2.42,6.51.95,10.5.5Z"/>
                      <path class="cls-29" d="m155.77,152.76c2.65-.91,4.01,2.36,2.5,3.5-3.03,2.29-5.31-2.54-2.5-3.5Z"/>
                      <path class="cls-39" d="m156.27,143.76c1.95-.45,3.2,2.74,1.5,3.5-2.22.99-3.68-2.99-1.5-3.5Z"/>
                      <path class="cls-32" d="m168.77,171.76c4.88-.76-2.29,4.69-1.75,1.25.04-.23,1.64-1.23,1.75-1.25Z"/>
                      <g>
                        <path class="cls-24" d="m217.52,143.76c4.27-7.6,5.64-17.38-4.75-20.5-10.73-3.22-4.04-.07-2,1.5,13.17,10.13,4.5,29.89-12.75,28.5-21.35-1.72-16.66-39.11,14.75-32,10.66,2.42,16.22,17.73,4.75,22.5Z"/>
                        <path class="cls-54" d="m217.52,143.76c-1.06,1.89-4.63,6.71-6.25,8-2.32,1.85-5.55,1.78-5.25,3-2.09-.02-5.19-.22-7,0l-1-1.5c17.25,1.39,25.92-18.37,12.75-28.5-2.04-1.57-8.73-4.72,2-1.5,10.39,3.12,9.02,12.9,4.75,20.5Z"/>
                        <path class="cls-54" d="m202.27,129.76c5-1.65,5.64,4.85,2,5.5-4.26.76-4.79-4.58-2-5.5Z"/>
                        <path class="cls-12" d="m209.77,129.26c2.68-.31,3,3.93.5,4-2.05.06-2.86-3.73-.5-4Z"/>
                      </g>
                      <g>
                        <path class="cls-60" d="m199.02,154.76c1.81-.22,4.91-.02,7,0,32.91.37,14.1,18.33,1.25,19.5-19.46,1.77-30.34-16.85-8.25-19.5Z"/>
                        <path class="cls-33" d="m205.77,157.76c4.71-.23,19.58,1.97,10.5,8-5.47,3.63-17.01,3.06-22-1-5.04-4.1,8.43-6.85,11.5-7Z"/>
                      </g>
                    </g>
                  </g>
                </g>
              </g>
            </g>
          </g>
        </g>
      </g>
    </g>
  </g>
</svg>